<svg xmlns="http://www.w3.org/2000/svg" xmlns:xlink="http://www.w3.org/1999/xlink" width="810" viewBox="0 0 810 375" height="375" version="1.0"><defs><g id="a"><path d="M 58.6875 -9.203125 C 58.6875 -5.597656 57.738281 -2.972656 55.84375 -1.328125 C 53.945312 0.304688 51.054688 1.125 47.171875 1.125 C 43.242188 1.125 40.34375 0.304688 38.46875 -1.328125 C 36.59375 -2.972656 35.65625 -5.597656 35.65625 -9.203125 L 35.65625 -93.15625 C 35.65625 -95.726562 33.878906 -97.015625 30.328125 -97.015625 C 27.753906 -97.015625 25.144531 -96.628906 22.5 -95.859375 C 19.851562 -95.085938 17.460938 -94.035156 15.328125 -92.703125 C 13.203125 -91.367188 11.460938 -89.773438 10.109375 -87.921875 C 8.753906 -86.078125 8.078125 -84.078125 8.078125 -81.921875 C 8.078125 -80.421875 8.273438 -79.222656 8.671875 -78.328125 C 9.066406 -77.441406 9.519531 -76.773438 10.03125 -76.328125 C 10.550781 -75.890625 11.078125 -75.613281 11.609375 -75.5 C 12.148438 -75.382812 12.539062 -75.328125 12.78125 -75.328125 C 13.945312 -75.328125 14.90625 -75.523438 15.65625 -75.921875 C 16.40625 -76.316406 17.082031 -76.734375 17.6875 -77.171875 C 18.300781 -77.617188 18.875 -78.039062 19.40625 -78.4375 C 19.945312 -78.84375 20.566406 -79.046875 21.265625 -79.046875 C 21.828125 -79.046875 22.421875 -78.914062 23.046875 -78.65625 C 23.679688 -78.394531 24.269531 -77.984375 24.8125 -77.421875 C 25.351562 -76.867188 25.8125 -76.132812 26.1875 -75.21875 C 26.5625 -74.300781 26.75 -73.191406 26.75 -71.890625 C 26.75 -70.015625 26.382812 -68.394531 25.65625 -67.03125 C 24.925781 -65.675781 23.988281 -64.539062 22.84375 -63.625 C 21.695312 -62.71875 20.382812 -62.039062 18.90625 -61.59375 C 17.4375 -61.15625 15.976562 -60.9375 14.53125 -60.9375 C 12.28125 -60.9375 10.253906 -61.320312 8.453125 -62.09375 C 6.648438 -62.863281 5.117188 -63.925781 3.859375 -65.28125 C 2.597656 -66.632812 1.640625 -68.222656 0.984375 -70.046875 C 0.328125 -71.878906 0 -73.828125 0 -75.890625 C 0 -79.765625 0.722656 -83.1875 2.171875 -86.15625 C 3.628906 -89.132812 5.675781 -91.695312 8.3125 -93.84375 C 10.957031 -96 14.128906 -97.789062 17.828125 -99.21875 C 21.523438 -100.644531 25.617188 -101.78125 30.109375 -102.625 C 34.609375 -103.46875 39.421875 -104.066406 44.546875 -104.421875 C 49.671875 -104.773438 54.992188 -104.953125 60.515625 -104.953125 C 73.898438 -104.953125 84.03125 -102.390625 90.90625 -97.265625 C 97.78125 -92.140625 101.21875 -84.78125 101.21875 -75.1875 C 101.21875 -70.5 100.597656 -66.351562 99.359375 -62.75 C 98.117188 -59.15625 96.457031 -56.054688 94.375 -53.453125 C 92.289062 -50.859375 89.890625 -48.753906 87.171875 -47.140625 C 84.460938 -45.523438 81.65625 -44.363281 78.75 -43.65625 C 75.851562 -42.957031 72.941406 -42.675781 70.015625 -42.8125 C 67.097656 -42.957031 64.375 -43.5 61.84375 -44.4375 L 62.828125 -47.453125 C 66.335938 -46.378906 69.226562 -46.34375 71.5 -47.34375 C 73.769531 -48.351562 75.546875 -50.144531 76.828125 -52.71875 C 78.117188 -55.289062 79.007812 -58.539062 79.5 -62.46875 C 79.988281 -66.40625 80.234375 -70.738281 80.234375 -75.46875 C 80.234375 -79.019531 79.859375 -82.257812 79.109375 -85.1875 C 78.359375 -88.113281 77.335938 -90.601562 76.046875 -92.65625 C 74.765625 -94.71875 73.269531 -96.320312 71.5625 -97.46875 C 69.851562 -98.613281 68.039062 -99.1875 66.125 -99.1875 C 64.625 -99.1875 63.394531 -98.960938 62.4375 -98.515625 C 61.476562 -98.078125 60.726562 -97.519531 60.1875 -96.84375 C 59.65625 -96.164062 59.28125 -95.4375 59.0625 -94.65625 C 58.851562 -93.882812 58.726562 -93.148438 58.6875 -92.453125 Z M 58.6875 -9.203125"/></g><g id="b"><path d="M 40.359375 -36.359375 C 40.359375 -37.535156 39.984375 -38.425781 39.234375 -39.03125 C 38.492188 -39.632812 37.535156 -39.9375 36.359375 -39.9375 C 34.722656 -39.9375 33.164062 -39.5625 31.6875 -38.8125 C 30.21875 -38.070312 28.921875 -36.972656 27.796875 -35.515625 C 26.671875 -34.066406 25.78125 -32.273438 25.125 -30.140625 C 24.46875 -28.015625 24.140625 -25.550781 24.140625 -22.75 C 24.140625 -20.03125 24.335938 -17.78125 24.734375 -16 C 25.140625 -14.226562 25.679688 -12.8125 26.359375 -11.75 C 27.035156 -10.695312 27.816406 -9.960938 28.703125 -9.546875 C 29.597656 -9.128906 30.535156 -8.921875 31.515625 -8.921875 C 32.734375 -8.921875 33.878906 -9.234375 34.953125 -9.859375 C 36.035156 -10.492188 36.972656 -11.300781 37.765625 -12.28125 C 38.554688 -13.269531 39.1875 -14.367188 39.65625 -15.578125 C 40.125 -16.796875 40.359375 -18.015625 40.359375 -19.234375 Z M 29.203125 -67.109375 C 27.609375 -67.109375 26.132812 -66.921875 24.78125 -66.546875 C 23.425781 -66.171875 22.253906 -65.703125 21.265625 -65.140625 C 20.285156 -64.578125 19.515625 -63.957031 18.953125 -63.28125 C 18.390625 -62.601562 18.109375 -61.960938 18.109375 -61.359375 C 18.109375 -60.648438 18.46875 -60.144531 19.1875 -59.84375 C 19.914062 -59.539062 20.722656 -59.1875 21.609375 -58.78125 C 22.503906 -58.382812 23.3125 -57.820312 24.03125 -57.09375 C 24.757812 -56.375 25.125 -55.265625 25.125 -53.765625 C 25.125 -52.785156 24.925781 -51.882812 24.53125 -51.0625 C 24.132812 -50.25 23.597656 -49.523438 22.921875 -48.890625 C 22.242188 -48.253906 21.445312 -47.757812 20.53125 -47.40625 C 19.625 -47.0625 18.675781 -46.890625 17.6875 -46.890625 C 15.070312 -46.890625 12.957031 -47.78125 11.34375 -49.5625 C 9.726562 -51.34375 8.921875 -53.707031 8.921875 -56.65625 C 8.921875 -59.507812 9.664062 -61.953125 11.15625 -63.984375 C 12.65625 -66.023438 14.609375 -67.695312 17.015625 -69 C 19.429688 -70.3125 22.160156 -71.28125 25.203125 -71.90625 C 28.242188 -72.539062 31.285156 -72.859375 34.328125 -72.859375 C 37.972656 -72.859375 41.457031 -72.460938 44.78125 -71.671875 C 48.101562 -70.878906 51.039062 -69.613281 53.59375 -67.875 C 56.144531 -66.144531 58.179688 -63.945312 59.703125 -61.28125 C 61.222656 -58.613281 61.984375 -55.382812 61.984375 -51.59375 L 61.984375 -11.9375 C 61.984375 -11.507812 62.003906 -11.035156 62.046875 -10.515625 C 62.097656 -10.003906 62.21875 -9.539062 62.40625 -9.125 C 62.59375 -8.707031 62.875 -8.359375 63.25 -8.078125 C 63.625 -7.796875 64.160156 -7.65625 64.859375 -7.65625 C 65.703125 -7.65625 66.484375 -7.96875 67.203125 -8.59375 C 67.929688 -9.226562 68.578125 -9.875 69.140625 -10.53125 L 70.90625 -9.0625 C 70.195312 -8.070312 69.351562 -6.992188 68.375 -5.828125 C 67.394531 -4.660156 66.203125 -3.5625 64.796875 -2.53125 C 63.390625 -1.5 61.75 -0.632812 59.875 0.0625 C 58.007812 0.769531 55.878906 1.125 53.484375 1.125 C 50.535156 1.125 47.914062 0.25 45.625 -1.5 C 43.332031 -3.257812 41.835938 -5.960938 41.140625 -9.609375 C 39.640625 -7.597656 38.082031 -5.914062 36.46875 -4.5625 C 34.851562 -3.207031 33.203125 -2.109375 31.515625 -1.265625 C 29.828125 -0.421875 28.128906 0.1875 26.421875 0.5625 C 24.722656 0.9375 23.003906 1.125 21.265625 1.125 C 19.023438 1.125 16.847656 0.769531 14.734375 0.0625 C 12.628906 -0.632812 10.742188 -1.742188 9.078125 -3.265625 C 7.421875 -4.785156 6.085938 -6.757812 5.078125 -9.1875 C 4.078125 -11.625 3.578125 -14.597656 3.578125 -18.109375 C 3.578125 -22.367188 4.421875 -25.851562 6.109375 -28.5625 C 7.796875 -31.28125 10.003906 -33.5625 12.734375 -35.40625 C 15.472656 -37.257812 18.585938 -38.84375 22.078125 -40.15625 C 25.566406 -41.46875 29.132812 -42.847656 32.78125 -44.296875 C 35.5 -45.367188 37.476562 -46.96875 38.71875 -49.09375 C 39.957031 -51.226562 40.578125 -53.421875 40.578125 -55.671875 C 40.578125 -59.128906 39.554688 -61.898438 37.515625 -63.984375 C 35.484375 -66.066406 32.710938 -67.109375 29.203125 -67.109375 Z M 29.203125 -67.109375"/></g><g id="c"><path d="M 9.609375 -60.515625 C 9.609375 -61.867188 9.289062 -63.046875 8.65625 -64.046875 C 8.03125 -65.054688 6.96875 -65.5625 5.46875 -65.5625 C 4.675781 -65.5625 4 -65.421875 3.4375 -65.140625 C 2.875 -64.859375 2.265625 -64.460938 1.609375 -63.953125 L 0.140625 -65.703125 C 1.210938 -66.597656 2.414062 -67.476562 3.75 -68.34375 C 5.082031 -69.207031 6.519531 -69.96875 8.0625 -70.625 C 9.613281 -71.28125 11.273438 -71.816406 13.046875 -72.234375 C 14.828125 -72.648438 16.703125 -72.859375 18.671875 -72.859375 C 20.773438 -72.859375 22.578125 -72.53125 24.078125 -71.875 C 25.578125 -71.226562 26.828125 -70.445312 27.828125 -69.53125 C 28.835938 -68.613281 29.597656 -67.648438 30.109375 -66.640625 C 30.628906 -65.640625 30.9375 -64.789062 31.03125 -64.09375 C 31.96875 -65.40625 33.078125 -66.597656 34.359375 -67.671875 C 35.648438 -68.742188 37.054688 -69.664062 38.578125 -70.4375 C 40.097656 -71.21875 41.710938 -71.816406 43.421875 -72.234375 C 45.128906 -72.648438 46.894531 -72.859375 48.71875 -72.859375 C 52.457031 -72.859375 55.847656 -72.085938 58.890625 -70.546875 C 61.929688 -69.003906 64.539062 -66.710938 66.71875 -63.671875 C 68.894531 -60.628906 70.566406 -56.859375 71.734375 -52.359375 C 72.910156 -47.867188 73.5 -42.675781 73.5 -36.78125 C 73.5 -29.945312 72.785156 -24.128906 71.359375 -19.328125 C 69.929688 -14.535156 68.054688 -10.617188 65.734375 -7.578125 C 63.421875 -4.535156 60.773438 -2.320312 57.796875 -0.9375 C 54.828125 0.4375 51.800781 1.125 48.71875 1.125 C 46.144531 1.125 43.882812 0.863281 41.9375 0.34375 C 40 -0.164062 38.328125 -0.796875 36.921875 -1.546875 C 35.515625 -2.296875 34.34375 -3.054688 33.40625 -3.828125 C 32.476562 -4.597656 31.734375 -5.238281 31.171875 -5.75 L 31.171875 28.5 C 31.171875 29.101562 31.078125 29.828125 30.890625 30.671875 C 30.703125 31.515625 30.242188 32.320312 29.515625 33.09375 C 28.796875 33.863281 27.71875 34.53125 26.28125 35.09375 C 24.851562 35.65625 22.898438 35.9375 20.421875 35.9375 C 17.941406 35.9375 15.988281 35.644531 14.5625 35.0625 C 13.132812 34.476562 12.046875 33.773438 11.296875 32.953125 C 10.546875 32.140625 10.078125 31.320312 9.890625 30.5 C 9.703125 29.675781 9.609375 29.007812 9.609375 28.5 Z M 31.171875 -15.796875 C 31.171875 -15.421875 31.332031 -14.765625 31.65625 -13.828125 C 31.988281 -12.890625 32.503906 -11.929688 33.203125 -10.953125 C 33.898438 -9.972656 34.800781 -9.09375 35.90625 -8.3125 C 37.007812 -7.539062 38.351562 -7.15625 39.9375 -7.15625 C 42 -7.15625 43.753906 -7.9375 45.203125 -9.5 C 46.660156 -11.070312 47.851562 -13.203125 48.78125 -15.890625 C 49.71875 -18.585938 50.394531 -21.722656 50.8125 -25.296875 C 51.238281 -28.878906 51.453125 -32.707031 51.453125 -36.78125 C 51.453125 -41.789062 51.179688 -46.023438 50.640625 -49.484375 C 50.109375 -52.953125 49.328125 -55.75 48.296875 -57.875 C 47.265625 -60.007812 46.035156 -61.554688 44.609375 -62.515625 C 43.179688 -63.472656 41.578125 -63.953125 39.796875 -63.953125 C 38.773438 -63.953125 37.75 -63.660156 36.71875 -63.078125 C 35.6875 -62.492188 34.757812 -61.765625 33.9375 -60.890625 C 33.125 -60.023438 32.457031 -59.054688 31.9375 -57.984375 C 31.425781 -56.910156 31.171875 -55.878906 31.171875 -54.890625 Z M 31.171875 -15.796875"/></g><g id="d"><path d="M 31.171875 -6.3125 C 31.171875 -5.707031 31.0625 -4.972656 30.84375 -4.109375 C 30.632812 -3.242188 30.144531 -2.421875 29.375 -1.640625 C 28.601562 -0.867188 27.492188 -0.21875 26.046875 0.3125 C 24.597656 0.851562 22.628906 1.125 20.140625 1.125 C 17.660156 1.125 15.71875 0.832031 14.3125 0.25 C 12.914062 -0.332031 11.863281 -1.019531 11.15625 -1.8125 C 10.457031 -2.613281 10.023438 -3.4375 9.859375 -4.28125 C 9.691406 -5.125 9.609375 -5.800781 9.609375 -6.3125 L 9.609375 -60.515625 C 9.609375 -61.867188 9.289062 -63.046875 8.65625 -64.046875 C 8.03125 -65.054688 6.96875 -65.5625 5.46875 -65.5625 C 4.675781 -65.5625 4 -65.421875 3.4375 -65.140625 C 2.875 -64.859375 2.265625 -64.460938 1.609375 -63.953125 L 0.140625 -65.703125 C 1.210938 -66.597656 2.414062 -67.476562 3.75 -68.34375 C 5.082031 -69.207031 6.519531 -69.96875 8.0625 -70.625 C 9.613281 -71.28125 11.273438 -71.816406 13.046875 -72.234375 C 14.828125 -72.648438 16.703125 -72.859375 18.671875 -72.859375 C 21.710938 -72.859375 24.078125 -72.445312 25.765625 -71.625 C 27.453125 -70.8125 28.691406 -69.804688 29.484375 -68.609375 C 30.273438 -67.421875 30.753906 -66.144531 30.921875 -64.78125 C 31.085938 -63.425781 31.171875 -62.238281 31.171875 -61.21875 Z M 7.4375 -88.875 C 7.4375 -90.1875 7.726562 -91.4375 8.3125 -92.625 C 8.90625 -93.820312 9.726562 -94.863281 10.78125 -95.75 C 11.832031 -96.632812 13.046875 -97.332031 14.421875 -97.84375 C 15.804688 -98.363281 17.316406 -98.625 18.953125 -98.625 C 20.546875 -98.625 22.03125 -98.363281 23.40625 -97.84375 C 24.789062 -97.332031 26 -96.632812 27.03125 -95.75 C 28.0625 -94.863281 28.867188 -93.820312 29.453125 -92.625 C 30.035156 -91.4375 30.328125 -90.1875 30.328125 -88.875 C 30.328125 -87.507812 30.035156 -86.242188 29.453125 -85.078125 C 28.867188 -83.910156 28.0625 -82.894531 27.03125 -82.03125 C 26 -81.164062 24.789062 -80.472656 23.40625 -79.953125 C 22.03125 -79.441406 20.546875 -79.1875 18.953125 -79.1875 C 17.316406 -79.1875 15.804688 -79.441406 14.421875 -79.953125 C 13.046875 -80.472656 11.832031 -81.164062 10.78125 -82.03125 C 9.726562 -82.894531 8.90625 -83.910156 8.3125 -85.078125 C 7.726562 -86.242188 7.4375 -87.507812 7.4375 -88.875 Z M 7.4375 -88.875"/></g><g id="f"><path d="M 34.8125 -67.453125 C 34.8125 -71.710938 34.773438 -75.617188 34.703125 -79.171875 C 34.640625 -82.734375 34.570312 -85.835938 34.5 -88.484375 C 34.425781 -91.128906 34.351562 -93.222656 34.28125 -94.765625 C 34.21875 -96.304688 34.1875 -97.21875 34.1875 -97.5 C 33.25 -98.15625 32.179688 -98.503906 30.984375 -98.546875 C 29.796875 -98.597656 28.617188 -98.625 27.453125 -98.625 C 25.804688 -98.625 23.835938 -98.238281 21.546875 -97.46875 C 19.253906 -96.695312 17.03125 -95.597656 14.875 -94.171875 C 12.726562 -92.742188 10.90625 -90.988281 9.40625 -88.90625 C 7.90625 -86.820312 7.15625 -84.492188 7.15625 -81.921875 C 7.15625 -80.421875 7.351562 -79.222656 7.75 -78.328125 C 8.15625 -77.441406 8.625 -76.773438 9.15625 -76.328125 C 9.695312 -75.890625 10.234375 -75.613281 10.765625 -75.5 C 11.304688 -75.382812 11.695312 -75.328125 11.9375 -75.328125 C 13.101562 -75.328125 14.0625 -75.523438 14.8125 -75.921875 C 15.5625 -76.316406 16.238281 -76.734375 16.84375 -77.171875 C 17.457031 -77.617188 18.03125 -78.039062 18.5625 -78.4375 C 19.101562 -78.84375 19.722656 -79.046875 20.421875 -79.046875 C 20.984375 -79.046875 21.582031 -78.914062 22.21875 -78.65625 C 22.851562 -78.394531 23.4375 -77.984375 23.96875 -77.421875 C 24.507812 -76.867188 24.96875 -76.132812 25.34375 -75.21875 C 25.71875 -74.300781 25.90625 -73.191406 25.90625 -71.890625 C 25.90625 -70.015625 25.539062 -68.394531 24.8125 -67.03125 C 24.09375 -65.675781 23.15625 -64.539062 22 -63.625 C 20.851562 -62.71875 19.539062 -62.039062 18.0625 -61.59375 C 16.59375 -61.15625 15.132812 -60.9375 13.6875 -60.9375 C 11.4375 -60.9375 9.410156 -61.320312 7.609375 -62.09375 C 5.804688 -62.863281 4.273438 -63.925781 3.015625 -65.28125 C 1.753906 -66.632812 0.796875 -68.222656 0.140625 -70.046875 C -0.515625 -71.878906 -0.84375 -73.828125 -0.84375 -75.890625 C -0.84375 -80.753906 0.171875 -85 2.203125 -88.625 C 4.242188 -92.25 6.957031 -95.273438 10.34375 -97.703125 C 13.738281 -100.140625 17.648438 -101.957031 22.078125 -103.15625 C 26.503906 -104.351562 31.078125 -104.953125 35.796875 -104.953125 C 40.054688 -104.953125 43.566406 -104.671875 46.328125 -104.109375 C 49.085938 -103.546875 51.332031 -102.796875 53.0625 -101.859375 C 54.800781 -100.921875 56.160156 -99.804688 57.140625 -98.515625 C 58.117188 -97.234375 58.960938 -95.890625 59.671875 -94.484375 C 62.523438 -88.679688 65.296875 -82.972656 67.984375 -77.359375 C 70.671875 -71.742188 73.265625 -66.265625 75.765625 -60.921875 C 78.273438 -55.585938 80.710938 -50.453125 83.078125 -45.515625 C 85.441406 -40.585938 87.75 -35.921875 90 -31.515625 L 90 -63.25 C 90 -67.132812 90.101562 -70.9375 90.3125 -74.65625 C 90.519531 -78.375 90.960938 -81.882812 91.640625 -85.1875 C 92.316406 -88.488281 93.332031 -91.519531 94.6875 -94.28125 C 96.050781 -97.039062 97.867188 -99.425781 100.140625 -101.4375 C 102.410156 -103.445312 105.226562 -105.015625 108.59375 -106.140625 C 111.96875 -107.265625 116.015625 -107.828125 120.734375 -107.828125 C 123.128906 -107.828125 125.332031 -107.648438 127.34375 -107.296875 C 129.351562 -106.941406 131.09375 -106.4375 132.5625 -105.78125 C 134.039062 -105.132812 135.203125 -104.328125 136.046875 -103.359375 C 136.890625 -102.398438 137.3125 -101.335938 137.3125 -100.171875 C 137.3125 -99.421875 137.203125 -98.632812 136.984375 -97.8125 C 136.773438 -97 136.457031 -96.265625 136.03125 -95.609375 C 135.613281 -94.953125 135.085938 -94.398438 134.453125 -93.953125 C 133.828125 -93.515625 133.09375 -93.296875 132.25 -93.296875 C 131.550781 -93.296875 130.90625 -93.785156 130.3125 -94.765625 C 129.726562 -95.742188 129.003906 -96.832031 128.140625 -98.03125 C 127.273438 -99.226562 126.128906 -100.316406 124.703125 -101.296875 C 123.273438 -102.273438 121.347656 -102.765625 118.921875 -102.765625 C 115.128906 -102.765625 111.976562 -102.097656 109.46875 -100.765625 C 106.96875 -99.429688 104.941406 -97.546875 103.390625 -95.109375 C 101.847656 -92.679688 100.710938 -89.722656 99.984375 -86.234375 C 99.265625 -82.753906 98.8125 -78.882812 98.625 -74.625 C 98.53125 -71.675781 98.445312 -68.804688 98.375 -66.015625 C 98.3125 -63.234375 98.265625 -60.414062 98.234375 -57.5625 C 98.210938 -54.707031 98.203125 -51.742188 98.203125 -48.671875 C 98.203125 -45.609375 98.203125 -42.320312 98.203125 -38.8125 C 98.203125 -33.851562 98.222656 -29.40625 98.265625 -25.46875 C 98.316406 -21.539062 98.390625 -18.316406 98.484375 -15.796875 C 100.585938 -12.191406 102.671875 -8.945312 104.734375 -6.0625 C 106.796875 -3.1875 108.820312 -0.753906 110.8125 1.234375 C 112.800781 3.222656 114.800781 4.753906 116.8125 5.828125 C 118.820312 6.898438 120.859375 7.4375 122.921875 7.4375 C 123.578125 7.4375 124.207031 7.34375 124.8125 7.15625 C 125.414062 6.96875 125.953125 6.757812 126.421875 6.53125 C 126.941406 6.289062 127.457031 5.984375 127.96875 5.609375 L 130.21875 8.359375 C 129.5625 8.828125 128.632812 9.382812 127.4375 10.03125 C 126.25 10.6875 124.800781 11.316406 123.09375 11.921875 C 121.382812 12.535156 119.429688 13.050781 117.234375 13.46875 C 115.035156 13.894531 112.625 14.109375 110 14.109375 C 106.207031 14.109375 102.566406 13.179688 99.078125 11.328125 C 95.597656 9.484375 92.242188 6.945312 89.015625 3.71875 C 85.785156 0.488281 82.695312 -3.285156 79.75 -7.609375 C 76.800781 -11.941406 73.957031 -16.585938 71.21875 -21.546875 C 68.476562 -26.503906 65.84375 -31.675781 63.3125 -37.0625 C 60.789062 -42.445312 58.347656 -47.769531 55.984375 -53.03125 C 53.617188 -58.300781 51.347656 -63.40625 49.171875 -68.34375 C 46.992188 -73.28125 44.878906 -77.804688 42.828125 -81.921875 C 42.828125 -79.203125 42.847656 -76.390625 42.890625 -73.484375 C 42.941406 -70.585938 42.96875 -67.664062 42.96875 -64.71875 L 42.96875 -42.96875 C 42.96875 -39.082031 42.875 -35.289062 42.6875 -31.59375 C 42.5 -27.894531 42.050781 -24.394531 41.34375 -21.09375 C 40.644531 -17.789062 39.628906 -14.75 38.296875 -11.96875 C 36.960938 -9.1875 35.144531 -6.785156 32.84375 -4.765625 C 30.550781 -2.753906 27.71875 -1.1875 24.34375 -0.0625 C 20.976562 1.050781 16.9375 1.609375 12.21875 1.609375 C 9.832031 1.609375 7.628906 1.429688 5.609375 1.078125 C 3.597656 0.734375 1.851562 0.234375 0.375 -0.421875 C -1.09375 -1.078125 -2.234375 -1.875 -3.046875 -2.8125 C -3.867188 -3.75 -4.28125 -4.820312 -4.28125 -6.03125 C -4.28125 -6.78125 -4.175781 -7.5625 -3.96875 -8.375 C -3.757812 -9.195312 -3.441406 -9.9375 -3.015625 -10.59375 C -2.597656 -11.25 -2.082031 -11.800781 -1.46875 -12.25 C -0.863281 -12.695312 -0.140625 -12.921875 0.703125 -12.921875 C 1.171875 -12.921875 1.601562 -12.6875 2 -12.21875 C 2.394531 -11.75 2.816406 -11.160156 3.265625 -10.453125 C 3.710938 -9.753906 4.226562 -8.992188 4.8125 -8.171875 C 5.394531 -7.359375 6.09375 -6.597656 6.90625 -5.890625 C 7.726562 -5.191406 8.722656 -4.609375 9.890625 -4.140625 C 11.066406 -3.671875 12.472656 -3.4375 14.109375 -3.4375 C 17.898438 -3.4375 21.046875 -4.101562 23.546875 -5.4375 C 26.054688 -6.769531 28.082031 -8.664062 29.625 -11.125 C 31.164062 -13.582031 32.285156 -16.539062 32.984375 -20 C 33.691406 -23.46875 34.140625 -27.351562 34.328125 -31.65625 C 34.460938 -34.601562 34.550781 -37.457031 34.59375 -40.21875 C 34.644531 -42.976562 34.691406 -45.785156 34.734375 -48.640625 C 34.785156 -51.492188 34.8125 -54.46875 34.8125 -57.5625 C 34.8125 -60.65625 34.8125 -63.953125 34.8125 -67.453125 Z M 34.8125 -67.453125"/></g><g id="g"><path d="M 4.28125 -35.9375 C 4.28125 -42.070312 5.164062 -47.441406 6.9375 -52.046875 C 8.71875 -56.660156 11.09375 -60.507812 14.0625 -63.59375 C 17.039062 -66.6875 20.492188 -69.003906 24.421875 -70.546875 C 28.359375 -72.085938 32.476562 -72.859375 36.78125 -72.859375 C 41.082031 -72.859375 45.195312 -72.144531 49.125 -70.71875 C 53.0625 -69.289062 56.515625 -67.101562 59.484375 -64.15625 C 62.460938 -61.207031 64.835938 -57.472656 66.609375 -52.953125 C 68.390625 -48.441406 69.28125 -43.097656 69.28125 -36.921875 C 69.28125 -30.796875 68.390625 -25.367188 66.609375 -20.640625 C 64.835938 -15.910156 62.460938 -11.929688 59.484375 -8.703125 C 56.515625 -5.472656 53.0625 -3.023438 49.125 -1.359375 C 45.195312 0.296875 41.082031 1.125 36.78125 1.125 C 32.476562 1.125 28.359375 0.34375 24.421875 -1.21875 C 20.492188 -2.789062 17.039062 -5.117188 14.0625 -8.203125 C 11.09375 -11.296875 8.71875 -15.160156 6.9375 -19.796875 C 5.164062 -24.429688 4.28125 -29.8125 4.28125 -35.9375 Z M 47.453125 -36.640625 C 47.453125 -40.390625 47.320312 -44.003906 47.0625 -47.484375 C 46.8125 -50.972656 46.3125 -54.070312 45.5625 -56.78125 C 44.8125 -59.5 43.734375 -61.664062 42.328125 -63.28125 C 40.921875 -64.894531 39.070312 -65.703125 36.78125 -65.703125 C 34.488281 -65.703125 32.640625 -64.847656 31.234375 -63.140625 C 29.828125 -61.429688 28.75 -59.1875 28 -56.40625 C 27.257812 -53.625 26.769531 -50.453125 26.53125 -46.890625 C 26.300781 -43.335938 26.1875 -39.6875 26.1875 -35.9375 C 26.1875 -32.195312 26.300781 -28.535156 26.53125 -24.953125 C 26.769531 -21.367188 27.257812 -18.171875 28 -15.359375 C 28.75 -12.554688 29.828125 -10.300781 31.234375 -8.59375 C 32.640625 -6.882812 34.488281 -6.03125 36.78125 -6.03125 C 39.070312 -6.03125 40.921875 -6.921875 42.328125 -8.703125 C 43.734375 -10.484375 44.8125 -12.820312 45.5625 -15.71875 C 46.3125 -18.625 46.8125 -21.898438 47.0625 -25.546875 C 47.320312 -29.203125 47.453125 -32.898438 47.453125 -36.640625 Z M 47.453125 -36.640625"/></g><g id="h"><path d="M 26.890625 -32.21875 C 26.890625 -30.71875 27.109375 -29.085938 27.546875 -27.328125 C 27.992188 -25.578125 28.640625 -23.8125 29.484375 -22.03125 C 30.328125 -20.257812 31.367188 -18.566406 32.609375 -16.953125 C 33.847656 -15.335938 35.273438 -13.894531 36.890625 -12.625 C 38.503906 -11.363281 40.289062 -10.359375 42.25 -9.609375 C 44.21875 -8.867188 46.375 -8.5 48.71875 -8.5 C 50.351562 -8.5 51.875 -8.679688 53.28125 -9.046875 C 54.6875 -9.421875 55.992188 -9.9375 57.203125 -10.59375 C 58.421875 -11.25 59.59375 -12.007812 60.71875 -12.875 C 61.84375 -13.75 62.96875 -14.675781 64.09375 -15.65625 L 65.84375 -13.96875 C 64.769531 -12.519531 63.390625 -10.925781 61.703125 -9.1875 C 60.015625 -7.457031 57.976562 -5.832031 55.59375 -4.3125 C 53.207031 -2.789062 50.421875 -1.523438 47.234375 -0.515625 C 44.054688 0.484375 40.429688 0.984375 36.359375 0.984375 C 32.285156 0.984375 28.316406 0.25 24.453125 -1.21875 C 20.597656 -2.695312 17.171875 -4.910156 14.171875 -7.859375 C 11.179688 -10.804688 8.785156 -14.476562 6.984375 -18.875 C 5.179688 -23.28125 4.28125 -28.429688 4.28125 -34.328125 C 4.28125 -38.585938 4.816406 -42.492188 5.890625 -46.046875 C 6.972656 -49.609375 8.4375 -52.816406 10.28125 -55.671875 C 12.132812 -58.523438 14.285156 -61.023438 16.734375 -63.171875 C 19.191406 -65.328125 21.78125 -67.117188 24.5 -68.546875 C 27.21875 -69.972656 29.988281 -71.046875 32.8125 -71.765625 C 35.644531 -72.492188 38.375 -72.859375 41 -72.859375 C 44.457031 -72.859375 47.472656 -72.484375 50.046875 -71.734375 C 52.617188 -70.992188 54.757812 -69.988281 56.46875 -68.71875 C 58.175781 -67.457031 59.453125 -65.992188 60.296875 -64.328125 C 61.140625 -62.671875 61.5625 -60.929688 61.5625 -59.109375 C 61.5625 -56.910156 60.925781 -54.929688 59.65625 -53.171875 C 58.394531 -51.421875 56.710938 -49.890625 54.609375 -48.578125 Z M 41 -46.46875 C 41.601562 -46.84375 42.101562 -47.203125 42.5 -47.546875 C 42.90625 -47.898438 43.222656 -48.320312 43.453125 -48.8125 C 43.679688 -49.3125 43.851562 -49.921875 43.96875 -50.640625 C 44.09375 -51.367188 44.15625 -52.269531 44.15625 -53.34375 C 44.15625 -54.519531 44.023438 -55.820312 43.765625 -57.25 C 43.503906 -58.675781 43.070312 -60.019531 42.46875 -61.28125 C 41.863281 -62.539062 41.09375 -63.59375 40.15625 -64.4375 C 39.21875 -65.28125 38.09375 -65.703125 36.78125 -65.703125 C 35.09375 -65.703125 33.648438 -65.195312 32.453125 -64.1875 C 31.265625 -63.1875 30.285156 -61.890625 29.515625 -60.296875 C 28.742188 -58.703125 28.132812 -56.890625 27.6875 -54.859375 C 27.25 -52.828125 26.910156 -50.78125 26.671875 -48.71875 C 26.441406 -46.65625 26.300781 -44.675781 26.25 -42.78125 C 26.207031 -40.882812 26.1875 -39.285156 26.1875 -37.984375 Z M 41 -46.46875"/></g><g id="i"><path d="M 30.46875 -6.171875 C 30.46875 -5.566406 30.359375 -4.84375 30.140625 -4 C 29.929688 -3.15625 29.441406 -2.359375 28.671875 -1.609375 C 27.898438 -0.859375 26.773438 -0.21875 25.296875 0.3125 C 23.828125 0.851562 21.851562 1.125 19.375 1.125 C 16.894531 1.125 14.953125 0.832031 13.546875 0.25 C 12.140625 -0.332031 11.097656 -1.019531 10.421875 -1.8125 C 9.742188 -2.613281 9.320312 -3.4375 9.15625 -4.28125 C 9 -5.125 8.921875 -5.800781 8.921875 -6.3125 L 8.921875 -96.875 C 8.921875 -98.226562 8.601562 -99.40625 7.96875 -100.40625 C 7.332031 -101.414062 6.269531 -101.921875 4.78125 -101.921875 C 3.976562 -101.921875 3.285156 -101.789062 2.703125 -101.53125 C 2.117188 -101.28125 1.5 -100.898438 0.84375 -100.390625 L -0.5625 -102.0625 C 0.507812 -102.957031 1.703125 -103.835938 3.015625 -104.703125 C 4.328125 -105.566406 5.765625 -106.328125 7.328125 -106.984375 C 8.898438 -107.640625 10.570312 -108.175781 12.34375 -108.59375 C 14.125 -109.019531 16 -109.234375 17.96875 -109.234375 C 21.007812 -109.234375 23.375 -108.820312 25.0625 -108 C 26.75 -107.175781 27.988281 -106.164062 28.78125 -104.96875 C 29.570312 -103.78125 30.050781 -102.519531 30.21875 -101.1875 C 30.382812 -99.851562 30.46875 -98.671875 30.46875 -97.640625 Z M 30.46875 -6.171875"/></g><g id="j"><path d="M 51.34375 -13.9375 C 51.34375 -12.175781 51.554688 -10.753906 51.984375 -9.671875 C 52.421875 -8.585938 53.046875 -7.738281 53.859375 -7.125 C 54.679688 -6.507812 55.71875 -6.085938 56.96875 -5.859375 C 58.21875 -5.640625 59.679688 -5.53125 61.359375 -5.53125 C 64.054688 -5.53125 66.488281 -5.804688 68.65625 -6.359375 C 70.832031 -6.910156 72.738281 -7.523438 74.375 -8.203125 C 76.007812 -8.878906 77.390625 -9.503906 78.515625 -10.078125 C 79.640625 -10.648438 80.507812 -10.9375 81.125 -10.9375 C 81.90625 -10.9375 82.519531 -10.6875 82.96875 -10.1875 C 83.425781 -9.695312 83.65625 -8.984375 83.65625 -8.046875 C 83.65625 -6.410156 83.488281 -5.234375 83.15625 -4.515625 C 82.832031 -3.796875 82.15625 -3.253906 81.125 -2.890625 C 77.40625 -1.578125 73.210938 -0.601562 68.546875 0.03125 C 63.878906 0.664062 58.597656 0.984375 52.703125 0.984375 C 48.316406 0.984375 44.726562 0.785156 41.9375 0.390625 C 39.15625 0.00390625 36.96875 -0.675781 35.375 -1.65625 C 33.78125 -2.632812 32.6875 -3.972656 32.09375 -5.671875 C 31.5 -7.378906 31.203125 -9.5625 31.203125 -12.21875 L 31.203125 -81.984375 C 31.203125 -82.890625 31.097656 -83.609375 30.890625 -84.140625 C 30.679688 -84.671875 30.394531 -85.085938 30.03125 -85.390625 C 29.664062 -85.703125 29.222656 -85.910156 28.703125 -86.015625 C 28.191406 -86.117188 27.628906 -86.171875 27.015625 -86.171875 C 26.117188 -86.171875 25.003906 -86.023438 23.671875 -85.734375 C 22.347656 -85.453125 20.945312 -85.023438 19.46875 -84.453125 C 18 -83.878906 16.515625 -83.171875 15.015625 -82.328125 C 13.523438 -81.484375 12.195312 -80.53125 11.03125 -79.46875 C 9.863281 -78.40625 8.910156 -77.21875 8.171875 -75.90625 C 7.429688 -74.601562 7.0625 -73.191406 7.0625 -71.671875 C 7.0625 -70.359375 7.234375 -69.3125 7.578125 -68.53125 C 7.929688 -67.757812 8.332031 -67.175781 8.78125 -66.78125 C 9.226562 -66.394531 9.6875 -66.148438 10.15625 -66.046875 C 10.632812 -65.953125 10.972656 -65.90625 11.171875 -65.90625 C 12.203125 -65.90625 13.039062 -66.078125 13.6875 -66.421875 C 14.34375 -66.765625 14.9375 -67.128906 15.46875 -67.515625 C 16.007812 -67.910156 16.515625 -68.28125 16.984375 -68.625 C 17.453125 -68.976562 17.992188 -69.15625 18.609375 -69.15625 C 19.097656 -69.15625 19.617188 -69.039062 20.171875 -68.8125 C 20.722656 -68.59375 21.234375 -68.234375 21.703125 -67.734375 C 22.179688 -67.242188 22.582031 -66.597656 22.90625 -65.796875 C 23.238281 -65.003906 23.40625 -64.035156 23.40625 -62.890625 C 23.40625 -61.253906 23.085938 -59.84375 22.453125 -58.65625 C 21.816406 -57.46875 20.992188 -56.472656 19.984375 -55.671875 C 18.984375 -54.867188 17.835938 -54.273438 16.546875 -53.890625 C 15.253906 -53.503906 13.976562 -53.3125 12.71875 -53.3125 C 10.75 -53.3125 8.972656 -53.648438 7.390625 -54.328125 C 5.816406 -55.003906 4.476562 -55.9375 3.375 -57.125 C 2.269531 -58.3125 1.429688 -59.703125 0.859375 -61.296875 C 0.285156 -62.890625 0 -64.585938 0 -66.390625 C 0 -69.210938 0.507812 -71.800781 1.53125 -74.15625 C 2.5625 -76.507812 3.96875 -78.628906 5.75 -80.515625 C 7.53125 -82.398438 9.613281 -84.046875 12 -85.453125 C 14.394531 -86.867188 16.984375 -88.046875 19.765625 -88.984375 C 22.554688 -89.929688 25.46875 -90.640625 28.5 -91.109375 C 31.53125 -91.578125 34.5625 -91.8125 37.59375 -91.8125 C 40.945312 -91.8125 43.554688 -91.492188 45.421875 -90.859375 C 47.285156 -90.222656 48.65625 -89.457031 49.53125 -88.5625 C 50.414062 -87.664062 50.9375 -86.722656 51.09375 -85.734375 C 51.257812 -84.753906 51.34375 -83.9375 51.34375 -83.28125 Z M 51.34375 -13.9375"/></g><g id="k"><path d="M 27.265625 -5.53125 C 27.265625 -5 27.171875 -4.351562 26.984375 -3.59375 C 26.804688 -2.832031 26.378906 -2.113281 25.703125 -1.4375 C 25.023438 -0.769531 24.050781 -0.203125 22.78125 0.265625 C 21.507812 0.742188 19.789062 0.984375 17.625 0.984375 C 15.457031 0.984375 13.757812 0.726562 12.53125 0.21875 C 11.300781 -0.289062 10.378906 -0.894531 9.765625 -1.59375 C 9.148438 -2.289062 8.769531 -3.007812 8.625 -3.75 C 8.488281 -4.488281 8.421875 -5.082031 8.421875 -5.53125 L 8.421875 -52.9375 C 8.421875 -54.125 8.140625 -55.15625 7.578125 -56.03125 C 7.023438 -56.914062 6.097656 -57.359375 4.796875 -57.359375 C 4.097656 -57.359375 3.5 -57.234375 3 -56.984375 C 2.507812 -56.742188 1.976562 -56.398438 1.40625 -55.953125 L 0.125 -57.484375 C 1.0625 -58.265625 2.113281 -59.03125 3.28125 -59.78125 C 4.445312 -60.539062 5.707031 -61.207031 7.0625 -61.78125 C 8.414062 -62.351562 9.867188 -62.820312 11.421875 -63.1875 C 12.972656 -63.5625 14.613281 -63.75 16.34375 -63.75 C 19 -63.75 21.0625 -63.390625 22.53125 -62.671875 C 24.007812 -61.953125 25.097656 -61.070312 25.796875 -60.03125 C 26.492188 -58.988281 26.910156 -57.875 27.046875 -56.6875 C 27.191406 -55.5 27.265625 -54.457031 27.265625 -53.5625 Z M 6.515625 -77.75 C 6.515625 -78.894531 6.769531 -79.988281 7.28125 -81.03125 C 7.789062 -82.082031 8.503906 -82.992188 9.421875 -83.765625 C 10.347656 -84.546875 11.414062 -85.160156 12.625 -85.609375 C 13.832031 -86.066406 15.148438 -86.296875 16.578125 -86.296875 C 17.972656 -86.296875 19.273438 -86.066406 20.484375 -85.609375 C 21.691406 -85.160156 22.742188 -84.546875 23.640625 -83.765625 C 24.546875 -82.992188 25.253906 -82.082031 25.765625 -81.03125 C 26.273438 -79.988281 26.53125 -78.894531 26.53125 -77.75 C 26.53125 -76.5625 26.273438 -75.457031 25.765625 -74.4375 C 25.253906 -73.414062 24.546875 -72.523438 23.640625 -71.765625 C 22.742188 -71.003906 21.691406 -70.398438 20.484375 -69.953125 C 19.273438 -69.503906 17.972656 -69.28125 16.578125 -69.28125 C 15.148438 -69.28125 13.832031 -69.503906 12.625 -69.953125 C 11.414062 -70.398438 10.347656 -71.003906 9.421875 -71.765625 C 8.503906 -72.523438 7.789062 -73.414062 7.28125 -74.4375 C 6.769531 -75.457031 6.515625 -76.5625 6.515625 -77.75 Z M 6.515625 -77.75"/></g><g id="l"><path d="M 27.390625 -58.84375 C 26.453125 -58.84375 25.5625 -58.71875 24.71875 -58.46875 C 23.882812 -58.21875 23.140625 -57.816406 22.484375 -57.265625 C 21.828125 -56.710938 21.3125 -56.015625 20.9375 -55.171875 C 20.570312 -54.335938 20.390625 -53.347656 20.390625 -52.203125 C 20.390625 -50.609375 20.972656 -49.019531 22.140625 -47.4375 C 23.304688 -45.863281 24.757812 -44.226562 26.5 -42.53125 C 28.238281 -40.832031 30.117188 -39.070312 32.140625 -37.25 C 34.171875 -35.425781 36.054688 -33.5 37.796875 -31.46875 C 39.535156 -29.445312 40.988281 -27.289062 42.15625 -25 C 43.320312 -22.707031 43.90625 -20.25 43.90625 -17.625 C 43.90625 -14.675781 43.40625 -12.054688 42.40625 -9.765625 C 41.40625 -7.472656 39.972656 -5.523438 38.109375 -3.921875 C 36.242188 -2.328125 33.988281 -1.109375 31.34375 -0.265625 C 28.707031 0.566406 25.773438 0.984375 22.546875 0.984375 C 19.710938 0.984375 17.148438 0.585938 14.859375 -0.203125 C 12.566406 -1.003906 10.53125 -1.988281 8.75 -3.15625 C 6.96875 -4.320312 5.441406 -5.5625 4.171875 -6.875 C 2.898438 -8.1875 1.921875 -9.375 1.234375 -10.4375 L 3.375 -11.96875 C 3.90625 -11.363281 4.582031 -10.703125 5.40625 -9.984375 C 6.226562 -9.265625 7.140625 -8.597656 8.140625 -7.984375 C 9.140625 -7.367188 10.210938 -6.863281 11.359375 -6.46875 C 12.503906 -6.082031 13.671875 -5.890625 14.859375 -5.890625 C 17.804688 -5.890625 20.222656 -6.597656 22.109375 -8.015625 C 23.992188 -9.429688 24.9375 -11.53125 24.9375 -14.3125 C 24.9375 -15.863281 24.421875 -17.46875 23.390625 -19.125 C 22.367188 -20.789062 21.082031 -22.503906 19.53125 -24.265625 C 17.976562 -26.023438 16.300781 -27.84375 14.5 -29.71875 C 12.695312 -31.601562 11.015625 -33.546875 9.453125 -35.546875 C 7.898438 -37.554688 6.609375 -39.625 5.578125 -41.75 C 4.554688 -43.882812 4.046875 -46.097656 4.046875 -48.390625 C 4.046875 -50.972656 4.566406 -53.222656 5.609375 -55.140625 C 6.660156 -57.066406 8.054688 -58.664062 9.796875 -59.9375 C 11.535156 -61.207031 13.519531 -62.160156 15.75 -62.796875 C 17.976562 -63.429688 20.28125 -63.75 22.65625 -63.75 C 25.40625 -63.75 27.90625 -63.503906 30.15625 -63.015625 C 32.40625 -62.523438 34.335938 -61.773438 35.953125 -60.765625 C 37.578125 -59.765625 38.828125 -58.503906 39.703125 -56.984375 C 40.585938 -55.472656 41.03125 -53.71875 41.03125 -51.71875 C 41.03125 -50.15625 40.515625 -48.800781 39.484375 -47.65625 C 38.460938 -46.507812 37.03125 -45.9375 35.1875 -45.9375 C 33.425781 -45.9375 32.082031 -46.316406 31.15625 -47.078125 C 30.238281 -47.835938 29.78125 -48.867188 29.78125 -50.171875 C 29.78125 -51.035156 29.992188 -51.710938 30.421875 -52.203125 C 30.859375 -52.691406 31.34375 -53.085938 31.875 -53.390625 C 32.40625 -53.703125 32.882812 -53.96875 33.3125 -54.1875 C 33.75 -54.414062 33.96875 -54.71875 33.96875 -55.09375 C 33.96875 -56.238281 33.351562 -57.148438 32.125 -57.828125 C 30.894531 -58.503906 29.316406 -58.84375 27.390625 -58.84375 Z M 27.390625 -58.84375"/></g><g id="m"><path d="M 27.578125 -58.46875 L 27.578125 -13.078125 C 27.578125 -10.910156 27.984375 -9.40625 28.796875 -8.5625 C 29.617188 -7.726562 30.75 -7.3125 32.1875 -7.3125 C 33.289062 -7.3125 34.269531 -7.617188 35.125 -8.234375 C 35.988281 -8.847656 36.726562 -9.539062 37.34375 -10.3125 C 38.082031 -11.175781 38.71875 -12.179688 39.25 -13.328125 L 41.15625 -12.46875 C 40.539062 -11.15625 39.8125 -9.71875 38.96875 -8.15625 C 38.125 -6.601562 37.003906 -5.160156 35.609375 -3.828125 C 34.222656 -2.503906 32.472656 -1.390625 30.359375 -0.484375 C 28.253906 0.410156 25.609375 0.859375 22.421875 0.859375 C 20.617188 0.859375 18.882812 0.59375 17.21875 0.0625 C 15.5625 -0.46875 14.085938 -1.304688 12.796875 -2.453125 C 11.515625 -3.597656 10.484375 -5.03125 9.703125 -6.75 C 8.921875 -8.46875 8.53125 -10.535156 8.53125 -12.953125 L 8.53125 -58.46875 L 1.65625 -58.46875 L 1.65625 -62.890625 C 2.800781 -62.890625 4.394531 -63.1875 6.4375 -63.78125 C 8.488281 -64.375 10.585938 -65.363281 12.734375 -66.75 C 14.890625 -68.144531 16.890625 -70.007812 18.734375 -72.34375 C 20.578125 -74.675781 21.882812 -77.566406 22.65625 -81.015625 L 27.578125 -81.015625 L 27.578125 -62.890625 L 37.59375 -62.890625 C 40.863281 -62.890625 42.5 -63.441406 42.5 -64.546875 C 42.5 -64.953125 42.289062 -65.226562 41.875 -65.375 C 41.46875 -65.519531 41.007812 -65.703125 40.5 -65.921875 C 39.988281 -66.148438 39.53125 -66.46875 39.125 -66.875 C 38.71875 -67.289062 38.515625 -67.96875 38.515625 -68.90625 C 38.515625 -70.050781 38.867188 -70.953125 39.578125 -71.609375 C 40.296875 -72.265625 41.226562 -72.59375 42.375 -72.59375 C 43.113281 -72.59375 43.757812 -72.4375 44.3125 -72.125 C 44.863281 -71.820312 45.320312 -71.414062 45.6875 -70.90625 C 46.0625 -70.394531 46.335938 -69.8125 46.515625 -69.15625 C 46.703125 -68.5 46.796875 -67.84375 46.796875 -67.1875 C 46.796875 -64.53125 46.023438 -62.410156 44.484375 -60.828125 C 42.953125 -59.253906 40.488281 -58.46875 37.09375 -58.46875 Z M 27.578125 -58.46875"/></g><g id="n"><path d="M 35.3125 -31.8125 C 35.3125 -32.832031 34.984375 -33.609375 34.328125 -34.140625 C 33.671875 -34.679688 32.832031 -34.953125 31.8125 -34.953125 C 30.382812 -34.953125 29.023438 -34.625 27.734375 -33.96875 C 26.441406 -33.3125 25.300781 -32.347656 24.3125 -31.078125 C 23.332031 -29.804688 22.554688 -28.238281 21.984375 -26.375 C 21.410156 -24.507812 21.125 -22.351562 21.125 -19.90625 C 21.125 -17.53125 21.296875 -15.5625 21.640625 -14 C 21.992188 -12.445312 22.46875 -11.207031 23.0625 -10.28125 C 23.65625 -9.363281 24.335938 -8.71875 25.109375 -8.34375 C 25.890625 -7.976562 26.710938 -7.796875 27.578125 -7.796875 C 28.640625 -7.796875 29.640625 -8.070312 30.578125 -8.625 C 31.523438 -9.175781 32.347656 -9.878906 33.046875 -10.734375 C 33.742188 -11.597656 34.296875 -12.5625 34.703125 -13.625 C 35.109375 -14.695312 35.3125 -15.765625 35.3125 -16.828125 Z M 25.546875 -58.71875 C 24.160156 -58.71875 22.875 -58.550781 21.6875 -58.21875 C 20.5 -57.894531 19.472656 -57.484375 18.609375 -56.984375 C 17.742188 -56.492188 17.066406 -55.953125 16.578125 -55.359375 C 16.085938 -54.765625 15.84375 -54.203125 15.84375 -53.671875 C 15.84375 -53.054688 16.160156 -52.613281 16.796875 -52.34375 C 17.429688 -52.082031 18.132812 -51.78125 18.90625 -51.4375 C 19.6875 -51.09375 20.394531 -50.601562 21.03125 -49.96875 C 21.664062 -49.332031 21.984375 -48.359375 21.984375 -47.046875 C 21.984375 -46.179688 21.804688 -45.390625 21.453125 -44.671875 C 21.109375 -43.960938 20.640625 -43.332031 20.046875 -42.78125 C 19.453125 -42.226562 18.753906 -41.796875 17.953125 -41.484375 C 17.160156 -41.179688 16.335938 -41.03125 15.484375 -41.03125 C 13.179688 -41.03125 11.320312 -41.804688 9.90625 -43.359375 C 8.5 -44.910156 7.796875 -46.976562 7.796875 -49.5625 C 7.796875 -52.0625 8.453125 -54.203125 9.765625 -55.984375 C 11.078125 -57.765625 12.785156 -59.226562 14.890625 -60.375 C 17.003906 -61.519531 19.390625 -62.367188 22.046875 -62.921875 C 24.710938 -63.472656 27.375 -63.75 30.03125 -63.75 C 33.226562 -63.75 36.28125 -63.398438 39.1875 -62.703125 C 42.09375 -62.003906 44.660156 -60.898438 46.890625 -59.390625 C 49.117188 -57.878906 50.898438 -55.953125 52.234375 -53.609375 C 53.566406 -51.273438 54.234375 -48.453125 54.234375 -45.140625 L 54.234375 -10.4375 C 54.234375 -10.070312 54.253906 -9.660156 54.296875 -9.203125 C 54.335938 -8.753906 54.4375 -8.347656 54.59375 -7.984375 C 54.757812 -7.617188 55.003906 -7.3125 55.328125 -7.0625 C 55.660156 -6.8125 56.132812 -6.6875 56.75 -6.6875 C 57.488281 -6.6875 58.175781 -6.960938 58.8125 -7.515625 C 59.445312 -8.078125 60.007812 -8.644531 60.5 -9.21875 L 62.03125 -7.921875 C 61.414062 -7.066406 60.675781 -6.125 59.8125 -5.09375 C 58.957031 -4.070312 57.914062 -3.109375 56.6875 -2.203125 C 55.457031 -1.304688 54.023438 -0.550781 52.390625 0.0625 C 50.753906 0.675781 48.890625 0.984375 46.796875 0.984375 C 44.222656 0.984375 41.929688 0.21875 39.921875 -1.3125 C 37.910156 -2.851562 36.597656 -5.222656 35.984375 -8.421875 C 34.679688 -6.648438 33.320312 -5.171875 31.90625 -3.984375 C 30.488281 -2.804688 29.039062 -1.847656 27.5625 -1.109375 C 26.09375 -0.367188 24.609375 0.160156 23.109375 0.484375 C 21.617188 0.816406 20.117188 0.984375 18.609375 0.984375 C 16.640625 0.984375 14.734375 0.675781 12.890625 0.0625 C 11.054688 -0.550781 9.410156 -1.523438 7.953125 -2.859375 C 6.492188 -4.191406 5.320312 -5.921875 4.4375 -8.046875 C 3.5625 -10.171875 3.125 -12.769531 3.125 -15.84375 C 3.125 -19.570312 3.859375 -22.625 5.328125 -25 C 6.804688 -27.375 8.742188 -29.367188 11.140625 -30.984375 C 13.535156 -32.597656 16.257812 -33.976562 19.3125 -35.125 C 22.363281 -36.269531 25.488281 -37.476562 28.6875 -38.75 C 31.0625 -39.695312 32.789062 -41.097656 33.875 -42.953125 C 34.957031 -44.816406 35.5 -46.734375 35.5 -48.703125 C 35.5 -51.734375 34.609375 -54.160156 32.828125 -55.984375 C 31.046875 -57.804688 28.617188 -58.71875 25.546875 -58.71875 Z M 25.546875 -58.71875"/></g><g id="p"><path d="M 41.765625 -33.34375 C 41.765625 -33.800781 41.765625 -34.710938 41.765625 -36.078125 C 41.765625 -37.453125 41.722656 -39.03125 41.640625 -40.8125 C 41.554688 -42.59375 41.410156 -44.484375 41.203125 -46.484375 C 41.003906 -48.492188 40.679688 -50.359375 40.234375 -52.078125 C 39.242188 -53.347656 38.144531 -54.484375 36.9375 -55.484375 C 35.726562 -56.492188 34.1875 -57 32.3125 -57 C 29.113281 -57 26.765625 -54.910156 25.265625 -50.734375 C 23.773438 -46.554688 23.03125 -40.085938 23.03125 -31.328125 C 23.03125 -27.472656 23.203125 -23.945312 23.546875 -20.75 C 23.898438 -17.5625 24.429688 -14.820312 25.140625 -12.53125 C 25.859375 -10.238281 26.78125 -8.457031 27.90625 -7.1875 C 29.039062 -5.914062 30.382812 -5.28125 31.9375 -5.28125 C 38.488281 -5.28125 41.765625 -14.632812 41.765625 -33.34375 Z M 41.03125 -60.375 C 40.25 -64.46875 39.160156 -68.285156 37.765625 -71.828125 C 36.378906 -75.367188 34.710938 -78.425781 32.765625 -81 C 30.816406 -83.582031 28.601562 -85.609375 26.125 -87.078125 C 23.65625 -88.554688 20.988281 -89.296875 18.125 -89.296875 C 16.476562 -89.296875 14.988281 -89.09375 13.65625 -88.6875 C 12.332031 -88.28125 11.175781 -87.796875 10.1875 -87.234375 C 9.207031 -86.679688 8.398438 -86.148438 7.765625 -85.640625 C 7.128906 -85.128906 6.671875 -84.753906 6.390625 -84.515625 L 4.796875 -86.65625 C 5.773438 -87.925781 6.96875 -89.113281 8.375 -90.21875 C 9.789062 -91.320312 11.335938 -92.265625 13.015625 -93.046875 C 14.691406 -93.828125 16.460938 -94.441406 18.328125 -94.890625 C 20.191406 -95.335938 22.046875 -95.5625 23.890625 -95.5625 C 29.953125 -95.5625 35.273438 -94.238281 39.859375 -91.59375 C 44.441406 -88.957031 48.269531 -85.222656 51.34375 -80.390625 C 54.414062 -75.554688 56.726562 -69.722656 58.28125 -62.890625 C 59.84375 -56.054688 60.625 -48.460938 60.625 -40.109375 C 60.625 -33.347656 59.9375 -27.40625 58.5625 -22.28125 C 57.1875 -17.164062 55.226562 -12.878906 52.6875 -9.421875 C 50.15625 -5.960938 47.078125 -3.363281 43.453125 -1.625 C 39.828125 0.113281 35.742188 0.984375 31.203125 0.984375 C 28.046875 0.984375 24.835938 0.421875 21.578125 -0.703125 C 18.328125 -1.828125 15.378906 -3.660156 12.734375 -6.203125 C 10.097656 -8.742188 7.941406 -12.070312 6.265625 -16.1875 C 4.585938 -20.300781 3.75 -25.347656 3.75 -31.328125 C 3.75 -36.484375 4.472656 -41.066406 5.921875 -45.078125 C 7.378906 -49.085938 9.335938 -52.472656 11.796875 -55.234375 C 14.253906 -58.003906 17.097656 -60.113281 20.328125 -61.5625 C 23.566406 -63.019531 26.984375 -63.75 30.578125 -63.75 C 31.972656 -63.75 33.222656 -63.632812 34.328125 -63.40625 C 35.429688 -63.1875 36.394531 -62.910156 37.21875 -62.578125 C 38.039062 -62.253906 38.757812 -61.894531 39.375 -61.5 C 39.988281 -61.113281 40.539062 -60.738281 41.03125 -60.375 Z M 41.03125 -60.375"/></g><g id="q"><path d="M 3.75 -31.453125 C 3.75 -36.804688 4.523438 -41.5 6.078125 -45.53125 C 7.640625 -49.570312 9.71875 -52.941406 12.3125 -55.640625 C 14.914062 -58.347656 17.9375 -60.375 21.375 -61.71875 C 24.8125 -63.070312 28.414062 -63.75 32.1875 -63.75 C 35.945312 -63.75 39.546875 -63.125 42.984375 -61.875 C 46.429688 -60.625 49.453125 -58.707031 52.046875 -56.125 C 54.648438 -53.550781 56.726562 -50.285156 58.28125 -46.328125 C 59.84375 -42.378906 60.625 -37.707031 60.625 -32.3125 C 60.625 -26.945312 59.84375 -22.195312 58.28125 -18.0625 C 56.726562 -13.925781 54.648438 -10.441406 52.046875 -7.609375 C 49.453125 -4.785156 46.429688 -2.644531 42.984375 -1.1875 C 39.546875 0.257812 35.945312 0.984375 32.1875 0.984375 C 28.414062 0.984375 24.8125 0.300781 21.375 -1.0625 C 17.9375 -2.4375 14.914062 -4.472656 12.3125 -7.171875 C 9.71875 -9.878906 7.640625 -13.257812 6.078125 -17.3125 C 4.523438 -21.375 3.75 -26.085938 3.75 -31.453125 Z M 41.515625 -32.0625 C 41.515625 -35.332031 41.398438 -38.492188 41.171875 -41.546875 C 40.953125 -44.597656 40.515625 -47.3125 39.859375 -49.6875 C 39.203125 -52.0625 38.257812 -53.953125 37.03125 -55.359375 C 35.800781 -56.773438 34.1875 -57.484375 32.1875 -57.484375 C 30.175781 -57.484375 28.554688 -56.734375 27.328125 -55.234375 C 26.097656 -53.742188 25.15625 -51.78125 24.5 -49.34375 C 23.84375 -46.90625 23.410156 -44.128906 23.203125 -41.015625 C 23.003906 -37.910156 22.90625 -34.722656 22.90625 -31.453125 C 22.90625 -28.171875 23.003906 -24.960938 23.203125 -21.828125 C 23.410156 -18.703125 23.84375 -15.910156 24.5 -13.453125 C 25.15625 -10.992188 26.097656 -9.015625 27.328125 -7.515625 C 28.554688 -6.023438 30.175781 -5.28125 32.1875 -5.28125 C 34.1875 -5.28125 35.800781 -6.054688 37.03125 -7.609375 C 38.257812 -9.171875 39.203125 -11.21875 39.859375 -13.75 C 40.515625 -16.289062 40.953125 -19.15625 41.171875 -22.34375 C 41.398438 -25.539062 41.515625 -28.78125 41.515625 -32.0625 Z M 41.515625 -32.0625"/></g></defs><g><use x="48.232" y="290.347" xmlns:xlink="http://www.w3.org/1999/xlink" xlink:href="#a" xlink:type="simple" xlink:actuate="onLoad" xlink:show="embed"/></g><g><use x="150.858" y="290.347" xmlns:xlink="http://www.w3.org/1999/xlink" xlink:href="#b" xlink:type="simple" xlink:actuate="onLoad" xlink:show="embed"/></g><g><use x="222.458" y="290.347" xmlns:xlink="http://www.w3.org/1999/xlink" xlink:href="#c" xlink:type="simple" xlink:actuate="onLoad" xlink:show="embed"/></g><g><use x="300.515" y="290.347" xmlns:xlink="http://www.w3.org/1999/xlink" xlink:href="#b" xlink:type="simple" xlink:actuate="onLoad" xlink:show="embed"/></g><g><use x="372.114" y="290.347" xmlns:xlink="http://www.w3.org/1999/xlink" xlink:href="#d" xlink:type="simple" xlink:actuate="onLoad" xlink:show="embed"/></g><g><use x="412.196" y="290.347" xmlns:xlink="http://www.w3.org/1999/xlink" xlink:href="#e" xlink:type="simple" xlink:actuate="onLoad" xlink:show="embed"/></g><g><use x="444.556" y="290.347" xmlns:xlink="http://www.w3.org/1999/xlink" xlink:href="#f" xlink:type="simple" xlink:actuate="onLoad" xlink:show="embed"/></g><g><use x="561.713" y="290.347" xmlns:xlink="http://www.w3.org/1999/xlink" xlink:href="#g" xlink:type="simple" xlink:actuate="onLoad" xlink:show="embed"/></g><g><use x="635.348" y="290.347" xmlns:xlink="http://www.w3.org/1999/xlink" xlink:href="#h" xlink:type="simple" xlink:actuate="onLoad" xlink:show="embed"/></g><g><use x="701.893" y="290.347" xmlns:xlink="http://www.w3.org/1999/xlink" xlink:href="#i" xlink:type="simple" xlink:actuate="onLoad" xlink:show="embed"/></g><g><use x="49.735" y="168.233" xmlns:xlink="http://www.w3.org/1999/xlink" xlink:href="#j" xlink:type="simple" xlink:actuate="onLoad" xlink:show="embed"/></g><g><use x="132.091" y="168.233" xmlns:xlink="http://www.w3.org/1999/xlink" xlink:href="#k" xlink:type="simple" xlink:actuate="onLoad" xlink:show="embed"/></g><g><use x="167.158" y="168.233" xmlns:xlink="http://www.w3.org/1999/xlink" xlink:href="#l" xlink:type="simple" xlink:actuate="onLoad" xlink:show="embed"/></g><g><use x="214.814" y="168.233" xmlns:xlink="http://www.w3.org/1999/xlink" xlink:href="#m" xlink:type="simple" xlink:actuate="onLoad" xlink:show="embed"/></g><g><use x="257.19" y="168.233" xmlns:xlink="http://www.w3.org/1999/xlink" xlink:href="#n" xlink:type="simple" xlink:actuate="onLoad" xlink:show="embed"/></g><g><use x="319.831" y="168.233" xmlns:xlink="http://www.w3.org/1999/xlink" xlink:href="#o" xlink:type="simple" xlink:actuate="onLoad" xlink:show="embed"/></g><g><use x="348.123" y="168.233" xmlns:xlink="http://www.w3.org/1999/xlink" xlink:href="#p" xlink:type="simple" xlink:actuate="onLoad" xlink:show="embed"/></g><g><use x="412.792" y="168.233" xmlns:xlink="http://www.w3.org/1999/xlink" xlink:href="#q" xlink:type="simple" xlink:actuate="onLoad" xlink:show="embed"/></g></svg>