<svg xmlns="http://www.w3.org/2000/svg" width="810" viewBox="0 0 810 375" height="375" version="1.0"><defs><clipPath id="a"><path d="M 277 139 L 529 139 L 529 365.003906 L 277 365.003906 Z M 277 139"/></clipPath><clipPath id="b"><path d="M 369 139 L 438 139 L 438 365.003906 L 369 365.003906 Z M 369 139"/></clipPath><clipPath id="c"><path d="M 238.066406 138 L 408 138 L 408 250 L 238.066406 250 Z M 238.066406 138"/></clipPath><clipPath id="d"><path d="M 402 138 L 571.816406 138 L 571.816406 250 L 402 250 Z M 402 138"/></clipPath><clipPath id="e"><path d="M 395 10.253906 L 404 10.253906 L 404 50 L 395 50 Z M 395 10.253906"/></clipPath></defs><path fill="#F33" d="M 406.695312 144.292969 C 406.695312 144.292969 432.933594 45.203125 486.660156 90.917969 C 486.660156 90.917969 532.949219 130.875 472.320312 144.292969 L 406.695312 144.292969"/><path d="M 406.695312 144.292969 L 411.171875 145.484375 L 411.175781 145.453125 C 411.285156 145.054688 412.433594 140.835938 414.625 134.769531 C 417.890625 125.675781 423.542969 112.410156 431.292969 101.757812 C 435.15625 96.429688 439.53125 91.777344 444.234375 88.554688 C 446.589844 86.941406 449.011719 85.683594 451.519531 84.824219 C 454.023438 83.96875 456.609375 83.503906 459.335938 83.503906 C 462.746094 83.507812 466.414062 84.226562 470.464844 85.945312 C 474.503906 87.667969 478.914062 90.410156 483.660156 94.453125 L 483.636719 94.433594 L 483.945312 94.070312 L 483.632812 94.429688 L 483.636719 94.433594 L 483.945312 94.070312 L 483.632812 94.429688 C 483.746094 94.523438 487.777344 98.058594 491.636719 103.105469 C 493.5625 105.621094 495.4375 108.507812 496.789062 111.445312 C 498.140625 114.386719 498.9375 117.339844 498.933594 120.015625 C 498.925781 121.804688 498.601562 123.472656 497.839844 125.140625 C 497.269531 126.390625 496.445312 127.652344 495.230469 128.945312 C 493.417969 130.875 490.714844 132.867188 486.804688 134.730469 C 482.898438 136.601562 477.800781 138.332031 471.316406 139.769531 L 472.320312 144.292969 L 472.320312 139.65625 L 406.695312 139.65625 L 406.695312 144.292969 L 411.171875 145.484375 L 406.695312 144.292969 L 406.695312 148.929688 L 472.320312 148.929688 C 472.652344 148.929688 472.988281 148.894531 473.3125 148.820312 C 479.550781 147.445312 484.785156 145.777344 489.183594 143.84375 C 492.484375 142.390625 495.3125 140.785156 497.722656 139.023438 C 501.332031 136.394531 504.003906 133.375 505.726562 130.09375 C 507.457031 126.824219 508.199219 123.347656 508.195312 120.015625 C 508.1875 115.476562 506.898438 111.222656 505.121094 107.394531 C 502.4375 101.644531 498.621094 96.753906 495.460938 93.210938 C 492.304688 89.671875 489.792969 87.503906 489.683594 87.410156 L 489.664062 87.386719 C 484.339844 82.855469 479.160156 79.574219 474.09375 77.414062 C 469.03125 75.253906 464.070312 74.230469 459.335938 74.230469 C 454.203125 74.226562 449.371094 75.433594 444.988281 77.472656 C 437.296875 81.054688 430.945312 87.070312 425.617188 93.894531 C 417.628906 104.144531 411.867188 116.363281 408.003906 126.074219 C 404.15625 135.78125 402.246094 142.980469 402.214844 143.105469 C 401.84375 144.5 402.144531 145.980469 403.019531 147.121094 C 403.898438 148.261719 405.253906 148.929688 406.695312 148.929688 L 406.695312 144.292969"/><path fill="#F33" d="M 406.695312 144.292969 C 406.695312 144.292969 380.445312 45.203125 326.71875 90.917969 C 326.71875 90.917969 280.433594 130.875 341.066406 144.292969 L 406.695312 144.292969"/><path d="M 406.695312 144.292969 L 411.171875 143.105469 C 411.144531 143.011719 410.027344 138.808594 407.796875 132.519531 C 404.441406 123.082031 398.625 108.96875 389.992188 96.875 C 385.664062 90.824219 380.625 85.257812 374.664062 81.101562 C 371.6875 79.027344 368.476562 77.304688 365.027344 76.105469 C 361.578125 74.90625 357.890625 74.230469 354.046875 74.230469 C 349.308594 74.230469 344.351562 75.253906 339.289062 77.414062 C 334.222656 79.574219 329.042969 82.855469 323.71875 87.386719 L 323.695312 87.410156 C 323.550781 87.535156 319.136719 91.339844 314.609375 97.1875 C 312.34375 100.117188 310.042969 103.558594 308.261719 107.394531 C 306.484375 111.222656 305.195312 115.476562 305.1875 120.015625 C 305.179688 122.976562 305.765625 126.054688 307.113281 129 C 308.121094 131.207031 309.554688 133.332031 311.40625 135.296875 C 314.183594 138.25 317.875 140.851562 322.589844 143.105469 C 327.300781 145.355469 333.050781 147.265625 340.0625 148.820312 C 340.394531 148.894531 340.730469 148.929688 341.066406 148.929688 L 406.695312 148.929688 C 408.132812 148.929688 409.484375 148.261719 410.363281 147.121094 C 411.238281 145.980469 411.539062 144.5 411.171875 143.105469 L 406.695312 144.292969 L 406.695312 139.65625 L 341.066406 139.65625 L 341.066406 144.292969 L 342.0625 139.769531 C 336.300781 138.492188 331.632812 136.984375 327.921875 135.347656 C 325.140625 134.125 322.902344 132.835938 321.125 131.535156 C 318.453125 129.582031 316.839844 127.640625 315.847656 125.765625 C 314.863281 123.886719 314.460938 122.023438 314.449219 120.015625 C 314.445312 117.296875 315.269531 114.289062 316.660156 111.304688 C 318.734375 106.828125 322.042969 102.503906 324.828125 99.390625 C 326.222656 97.828125 327.472656 96.566406 328.371094 95.703125 C 328.816406 95.273438 329.175781 94.945312 329.414062 94.726562 C 329.53125 94.617188 329.625 94.542969 329.683594 94.492188 L 329.742188 94.4375 L 329.75 94.429688 L 328.789062 93.324219 L 329.746094 94.433594 L 329.75 94.429688 L 328.789062 93.324219 L 329.746094 94.433594 L 329.722656 94.453125 C 334.46875 90.410156 338.878906 87.667969 342.917969 85.945312 C 346.96875 84.226562 350.632812 83.507812 354.046875 83.503906 C 357.742188 83.507812 361.175781 84.347656 364.496094 85.886719 C 370.300781 88.5625 375.722656 93.507812 380.464844 99.597656 C 387.59375 108.71875 393.117188 120.277344 396.769531 129.496094 C 398.597656 134.105469 399.964844 138.136719 400.875 140.996094 C 401.332031 142.425781 401.667969 143.5625 401.894531 144.332031 C 402.003906 144.722656 402.089844 145.015625 402.136719 145.210938 L 402.203125 145.425781 L 402.210938 145.472656 L 402.214844 145.484375 L 406.695312 144.292969 L 406.695312 139.65625 L 406.695312 144.292969"/><path fill="#F33" d="M 384.386719 153.929688 C 384.386719 153.929688 358.332031 123.546875 402.792969 123.386719 C 444.300781 123.238281 431.0625 148.574219 422.621094 153.929688 L 384.386719 153.929688"/><path d="M 384.386719 153.929688 L 387.902344 150.90625 L 387.886719 150.921875 L 387.902344 150.90625 L 387.886719 150.921875 L 387.902344 150.90625 C 387.796875 150.785156 386.050781 148.695312 384.433594 145.867188 C 383.617188 144.453125 382.839844 142.867188 382.292969 141.292969 C 381.734375 139.726562 381.429688 138.191406 381.433594 136.910156 C 381.4375 135.773438 381.644531 134.863281 382.078125 134.03125 C 382.414062 133.40625 382.886719 132.789062 383.6875 132.136719 C 384.875 131.160156 386.855469 130.117188 389.988281 129.339844 C 393.105469 128.550781 397.328125 128.042969 402.8125 128.023438 C 402.925781 128.023438 403.039062 128.023438 403.15625 128.023438 C 408.375 128.023438 412.574219 128.457031 415.855469 129.15625 C 418.316406 129.683594 420.253906 130.363281 421.742188 131.089844 C 423.988281 132.195312 425.183594 133.367188 425.890625 134.460938 C 426.589844 135.5625 426.878906 136.679688 426.886719 138.042969 C 426.890625 139.097656 426.683594 140.28125 426.285156 141.492188 C 425.6875 143.316406 424.648438 145.191406 423.476562 146.738281 C 422.3125 148.28125 420.980469 149.496094 420.140625 150.011719 L 422.621094 153.929688 L 422.621094 149.292969 L 384.386719 149.292969 L 384.386719 153.929688 L 387.902344 150.90625 L 384.386719 153.929688 L 384.386719 158.566406 L 422.621094 158.566406 C 423.5 158.566406 424.355469 158.320312 425.101562 157.847656 C 426.511719 156.949219 427.808594 155.8125 429.054688 154.480469 C 430.914062 152.488281 432.617188 150.050781 433.929688 147.28125 C 435.230469 144.507812 436.148438 141.390625 436.152344 138.042969 C 436.15625 135.507812 435.589844 132.824219 434.226562 130.351562 C 433.207031 128.5 431.765625 126.792969 429.945312 125.34375 C 427.207031 123.160156 423.683594 121.535156 419.292969 120.433594 C 414.890625 119.335938 409.59375 118.75 403.15625 118.75 C 403.027344 118.75 402.902344 118.75 402.78125 118.75 C 397.417969 118.769531 392.933594 119.203125 389.128906 120.015625 C 386.277344 120.625 383.8125 121.449219 381.667969 122.507812 C 378.464844 124.085938 375.972656 126.253906 374.378906 128.835938 C 373.589844 130.121094 373.023438 131.484375 372.671875 132.851562 C 372.316406 134.21875 372.167969 135.589844 372.167969 136.910156 C 372.171875 139.675781 372.792969 142.253906 373.628906 144.585938 C 374.890625 148.089844 376.675781 151.089844 378.144531 153.285156 C 379.613281 155.476562 380.785156 156.851562 380.871094 156.949219 C 381.757812 157.980469 383.03125 158.566406 384.386719 158.566406 L 384.386719 153.929688"/><path fill="#FFF" d="M 524.285156 345.351562 C 524.285156 353.683594 517.828125 360.441406 509.859375 360.441406 L 296.433594 360.441406 C 288.464844 360.441406 282.007812 353.683594 282.007812 345.351562 L 282.007812 159.386719 C 282.007812 151.046875 288.464844 144.292969 296.433594 144.292969 L 509.859375 144.292969 C 517.828125 144.292969 524.285156 151.046875 524.285156 159.386719 L 524.285156 345.351562"/><g clip-path="url(#a)"><path d="M 524.285156 345.351562 L 519.65625 345.351562 C 519.65625 348.308594 518.515625 350.929688 516.714844 352.8125 C 514.90625 354.699219 512.515625 355.804688 509.859375 355.804688 L 296.433594 355.804688 C 293.773438 355.804688 291.390625 354.699219 289.578125 352.8125 C 287.777344 350.929688 286.640625 348.3125 286.640625 345.351562 L 286.640625 159.386719 C 286.640625 156.429688 287.777344 153.804688 289.578125 151.917969 C 291.390625 150.039062 293.773438 148.933594 296.433594 148.929688 L 509.859375 148.929688 C 512.515625 148.933594 514.90625 150.039062 516.714844 151.921875 C 518.515625 153.804688 519.65625 156.429688 519.65625 159.386719 L 519.65625 345.351562 L 528.917969 345.351562 L 528.917969 159.386719 C 528.917969 154.011719 526.828125 149.082031 523.410156 145.503906 C 520 141.929688 515.167969 139.65625 509.859375 139.65625 L 296.433594 139.65625 C 291.121094 139.65625 286.296875 141.929688 282.882812 145.503906 C 279.460938 149.085938 277.375 154.011719 277.375 159.386719 L 277.375 345.351562 C 277.375 350.726562 279.460938 355.652344 282.882812 359.226562 C 286.296875 362.808594 291.121094 365.082031 296.433594 365.078125 L 509.859375 365.078125 C 515.167969 365.082031 520 362.808594 523.410156 359.226562 C 526.828125 355.652344 528.917969 350.726562 528.917969 345.351562 L 524.285156 345.351562"/></g><path fill="#FFF" d="M 270.832031 196.058594 L 535.460938 196.058594 L 535.460938 143.539062 L 270.832031 143.539062 Z M 270.832031 196.058594"/><path d="M 535.460938 196.058594 L 535.460938 191.421875 L 275.464844 191.421875 L 275.464844 148.175781 L 530.828125 148.175781 L 530.828125 196.058594 L 535.460938 196.058594 L 535.460938 191.421875 L 535.460938 196.058594 L 540.09375 196.058594 L 540.09375 143.539062 C 540.09375 142.316406 539.601562 141.125 538.734375 140.261719 C 537.871094 139.398438 536.683594 138.902344 535.460938 138.902344 L 270.832031 138.902344 C 269.617188 138.902344 268.421875 139.398438 267.558594 140.261719 C 266.695312 141.125 266.199219 142.316406 266.199219 143.539062 L 266.199219 196.058594 C 266.199219 197.28125 266.695312 198.476562 267.558594 199.339844 C 268.421875 200.203125 269.617188 200.695312 270.832031 200.695312 L 535.460938 200.695312 C 536.683594 200.695312 537.871094 200.203125 538.734375 199.339844 C 539.601562 198.476562 540.09375 197.28125 540.09375 196.058594 L 535.460938 196.058594"/><path fill="#43B36E" d="M 500.300781 355.804688 L 296.433594 355.804688 C 293.773438 355.804688 291.390625 354.699219 289.578125 352.8125 C 287.777344 350.929688 286.640625 348.3125 286.640625 345.351562 L 286.640625 200.695312 L 503.773438 200.695312 C 503.871094 205.109375 503.972656 209.515625 504.148438 213.894531 C 505.328125 243.445312 504.09375 273.007812 503.945312 302.5625 C 503.875 316.324219 504.390625 330.085938 504.078125 343.84375 C 504.03125 345.976562 504.070312 348.1875 503.6875 350.277344 C 503.5 351.167969 503.246094 352.035156 502.929688 352.886719 C 503.007812 352.660156 503.007812 352.574219 502.96875 352.574219 C 502.898438 352.574219 502.722656 352.808594 502.570312 353.046875 C 502.417969 353.277344 502.296875 353.511719 502.34375 353.511719 C 502.355469 353.511719 502.402344 353.480469 502.472656 353.398438 C 501.785156 354.222656 501.058594 355.023438 500.300781 355.804688"/><path d="M 495.464844 360.441406 L 296.433594 360.441406 C 288.464844 360.441406 282.007812 353.683594 282.007812 345.351562 L 282.007812 200.695312 L 286.640625 200.695312 L 286.640625 345.351562 C 286.640625 348.3125 287.777344 350.929688 289.578125 352.8125 C 291.390625 354.699219 293.773438 355.804688 296.433594 355.804688 L 500.300781 355.804688 C 498.757812 357.402344 497.105469 358.929688 495.464844 360.441406"/><path fill="#43B36E" d="M 503.554688 191.421875 L 275.464844 191.421875 L 275.464844 148.175781 L 500.609375 148.175781 C 502.382812 154.941406 502.054688 167.066406 502.46875 171.519531 C 503.085938 178.101562 503.371094 184.757812 503.554688 191.421875"/><path d="M 503.773438 200.695312 L 282.007812 200.695312 L 282.007812 195.164062 L 271.273438 194.355469 L 271.273438 148.214844 C 271.273438 144.164062 275.324219 143.125 280.410156 143.125 C 285.792969 143.125 292.335938 144.292969 296.433594 144.292969 L 487.738281 144.292969 C 488.121094 144.859375 488.558594 145.390625 489.046875 145.886719 C 489.484375 146.632812 490.007812 146.921875 490.582031 146.921875 C 491.558594 146.921875 492.695312 146.09375 493.859375 145.265625 C 495.023438 144.4375 496.21875 143.609375 497.3125 143.609375 C 497.894531 143.609375 498.449219 143.84375 498.953125 144.445312 C 499.652344 145.273438 500.1875 146.574219 500.609375 148.175781 L 275.464844 148.175781 L 275.464844 191.421875 L 503.554688 191.421875 C 503.640625 194.515625 503.703125 197.605469 503.773438 200.695312"/><path fill="#F33" d="M 432.546875 345.527344 C 432.546875 353.765625 426.804688 360.441406 419.726562 360.441406 L 386.566406 360.441406 C 379.484375 360.441406 373.742188 353.765625 373.742188 345.527344 L 373.742188 159.210938 C 373.742188 150.972656 379.484375 144.292969 386.566406 144.292969 L 419.726562 144.292969 C 426.804688 144.292969 432.546875 150.972656 432.546875 159.210938 L 432.546875 345.527344"/><g clip-path="url(#b)"><path d="M 432.546875 345.527344 L 427.914062 345.527344 C 427.917969 348.566406 426.847656 351.234375 425.28125 353.050781 C 424.5 353.960938 423.609375 354.648438 422.675781 355.109375 C 421.738281 355.566406 420.765625 355.804688 419.726562 355.804688 L 386.566406 355.804688 C 385.523438 355.804688 384.554688 355.566406 383.617188 355.109375 C 382.21875 354.421875 380.898438 353.199219 379.9375 351.539062 C 378.972656 349.875 378.375 347.804688 378.375 345.527344 L 378.375 159.210938 C 378.371094 156.171875 379.441406 153.503906 381.007812 151.6875 C 381.789062 150.78125 382.683594 150.089844 383.617188 149.625 C 384.554688 149.167969 385.523438 148.933594 386.566406 148.929688 L 419.726562 148.929688 C 420.765625 148.933594 421.738281 149.167969 422.675781 149.625 C 424.070312 150.316406 425.390625 151.539062 426.351562 153.199219 C 427.316406 154.863281 427.917969 156.929688 427.914062 159.210938 L 427.914062 345.527344 L 437.179688 345.527344 L 437.179688 159.210938 C 437.179688 154.011719 435.378906 149.222656 432.300781 145.636719 C 430.765625 143.847656 428.894531 142.355469 426.761719 141.304688 C 424.628906 140.253906 422.226562 139.65625 419.726562 139.65625 L 386.566406 139.65625 C 384.066406 139.65625 381.664062 140.253906 379.53125 141.304688 C 376.324219 142.882812 373.730469 145.441406 371.929688 148.539062 C 370.128906 151.640625 369.109375 155.308594 369.109375 159.210938 L 369.109375 345.527344 C 369.113281 350.726562 370.910156 355.511719 373.988281 359.101562 C 375.523438 360.890625 377.398438 362.382812 379.53125 363.433594 C 381.664062 364.484375 384.066406 365.082031 386.566406 365.078125 L 419.726562 365.078125 C 422.226562 365.082031 424.628906 364.484375 426.761719 363.433594 C 429.964844 361.851562 432.566406 359.292969 434.359375 356.195312 C 436.164062 353.09375 437.179688 349.425781 437.179688 345.527344 L 432.546875 345.527344"/></g><path fill="#F33" d="M 403.148438 144.292969 C 403.148438 144.292969 343.742188 158.722656 295.488281 245.171875 L 286.382812 205.40625 L 243.207031 214.050781 C 243.207031 214.050781 290.226562 135.050781 403.148438 144.292969"/><g clip-path="url(#c)"><path d="M 403.148438 144.292969 L 402.058594 139.785156 C 401.613281 139.894531 386.214844 143.703125 364.78125 158.5 C 343.351562 173.285156 315.90625 199.070312 291.441406 242.90625 L 295.488281 245.171875 L 300.003906 244.132812 L 290.894531 204.367188 C 290.335938 201.925781 287.921875 200.363281 285.472656 200.859375 L 242.296875 209.503906 L 243.207031 214.050781 L 247.183594 216.421875 L 246.316406 215.902344 L 247.183594 216.425781 L 247.183594 216.421875 L 246.316406 215.902344 L 247.183594 216.425781 C 247.296875 216.222656 257.667969 199.066406 280.011719 182.074219 C 291.183594 173.574219 305.34375 165.105469 322.746094 158.761719 C 340.148438 152.417969 360.796875 148.183594 385.019531 148.175781 C 390.734375 148.175781 396.652344 148.417969 402.765625 148.914062 L 403.148438 144.292969 L 402.058594 139.785156 L 403.148438 144.292969 L 403.523438 139.671875 C 397.15625 139.152344 390.992188 138.902344 385.019531 138.902344 C 359.511719 138.902344 337.601562 143.414062 319.140625 150.207031 C 291.4375 160.394531 271.511719 175.675781 258.507812 188.425781 C 245.5 201.183594 239.378906 211.417969 239.226562 211.675781 C 238.289062 213.253906 238.367188 215.230469 239.425781 216.726562 C 240.480469 218.226562 242.320312 218.953125 244.117188 218.597656 L 282.871094 210.835938 L 290.972656 246.203125 C 291.402344 248.074219 292.9375 249.484375 294.832031 249.757812 C 296.730469 250.03125 298.601562 249.105469 299.53125 247.429688 C 323.320312 204.824219 349.707031 180.171875 370.042969 166.132812 C 380.210938 159.113281 388.867188 154.757812 394.933594 152.164062 C 397.960938 150.867188 400.34375 150.015625 401.945312 149.492188 C 402.738281 149.226562 403.339844 149.050781 403.730469 148.9375 C 403.925781 148.882812 404.066406 148.847656 404.152344 148.824219 L 404.238281 148.800781 L 404.242188 148.800781 C 406.453125 148.261719 407.941406 146.207031 407.765625 143.929688 C 407.585938 141.65625 405.796875 139.859375 403.523438 139.671875 L 403.148438 144.292969"/></g><path fill="#F33" d="M 406.695312 144.292969 C 406.695312 144.292969 466.09375 158.722656 514.347656 245.171875 L 523.460938 205.40625 L 566.628906 214.050781 C 566.628906 214.050781 519.609375 135.050781 406.695312 144.292969"/><g clip-path="url(#d)"><path d="M 406.695312 144.292969 L 405.597656 148.800781 C 406.066406 148.921875 420.554688 152.65625 440.753906 166.800781 C 460.949219 180.949219 486.890625 205.492188 510.304688 247.429688 C 511.242188 249.105469 513.109375 250.03125 515.003906 249.757812 C 516.90625 249.484375 518.4375 248.074219 518.863281 246.203125 L 526.964844 210.835938 L 565.722656 218.597656 C 567.515625 218.953125 569.355469 218.226562 570.414062 216.726562 C 571.46875 215.230469 571.546875 213.25 570.609375 211.675781 C 570.402344 211.332031 559.597656 193.246094 535.984375 175.113281 C 524.179688 166.054688 509.164062 156.996094 490.699219 150.207031 C 472.234375 143.414062 450.324219 138.902344 424.820312 138.902344 C 418.847656 138.902344 412.683594 139.152344 406.3125 139.671875 C 404.042969 139.859375 402.25 141.65625 402.074219 143.929688 C 401.894531 146.207031 403.386719 148.261719 405.597656 148.800781 L 406.695312 144.292969 L 407.070312 148.914062 C 413.191406 148.417969 419.101562 148.175781 424.820312 148.175781 C 449.234375 148.183594 470.015625 152.484375 487.5 158.910156 C 513.722656 168.554688 532.566406 183.015625 544.847656 195.050781 C 550.984375 201.070312 555.472656 206.476562 558.410156 210.34375 C 559.878906 212.285156 560.960938 213.832031 561.660156 214.886719 C 562.015625 215.414062 562.269531 215.8125 562.433594 216.074219 C 562.515625 216.207031 562.574219 216.300781 562.613281 216.359375 L 562.648438 216.417969 L 562.652344 216.425781 L 564.265625 215.457031 L 562.652344 216.421875 L 562.652344 216.425781 L 564.265625 215.457031 L 562.652344 216.421875 L 566.628906 214.050781 L 567.539062 209.503906 L 524.363281 200.859375 C 521.910156 200.363281 519.5 201.925781 518.945312 204.367188 L 509.832031 244.132812 L 514.347656 245.171875 L 518.394531 242.90625 C 493.929688 199.070312 466.488281 173.285156 445.054688 158.5 C 423.621094 143.703125 408.226562 139.894531 407.785156 139.785156 L 406.695312 144.292969 L 407.070312 148.914062 L 406.695312 144.292969"/></g><path fill="#FFF" d="M 432.546875 138.441406 C 432.546875 138.441406 452.5 125.1875 465.167969 127.105469 C 477.832031 129.027344 452.121094 140.359375 432.546875 138.441406"/><path d="M 432.546875 138.441406 L 435.105469 142.304688 L 434.097656 140.777344 L 435.105469 142.304688 L 434.097656 140.777344 L 435.105469 142.304688 C 435.128906 142.289062 439.355469 139.5 444.960938 136.785156 C 447.753906 135.425781 450.898438 134.085938 453.984375 133.117188 C 457.058594 132.136719 460.078125 131.542969 462.511719 131.554688 C 463.21875 131.554688 463.878906 131.601562 464.476562 131.6875 C 464.890625 131.753906 465.199219 131.824219 465.359375 131.875 L 465.484375 131.914062 L 465.488281 131.914062 L 466.492188 129.785156 L 464.714844 131.269531 C 465.136719 131.761719 465.4375 131.886719 465.488281 131.914062 L 466.492188 129.785156 L 464.714844 131.269531 L 467.378906 129.046875 L 464.140625 130.269531 C 464.289062 130.679688 464.507812 131.023438 464.714844 131.269531 L 467.378906 129.046875 L 464.140625 130.269531 L 467.527344 128.996094 L 463.90625 128.996094 C 463.90625 129.40625 463.980469 129.863281 464.140625 130.269531 L 467.527344 128.996094 L 463.90625 128.996094 L 467.089844 128.996094 L 464.257812 127.488281 C 464.121094 127.75 463.90625 128.265625 463.90625 128.996094 L 467.089844 128.996094 L 464.257812 127.488281 L 466.023438 128.421875 L 464.414062 127.234375 C 464.378906 127.28125 464.324219 127.359375 464.257812 127.488281 L 466.023438 128.421875 L 464.414062 127.234375 L 464.992188 127.660156 L 464.464844 127.167969 L 464.414062 127.234375 L 464.992188 127.660156 L 464.464844 127.167969 C 464.457031 127.1875 464.15625 127.464844 463.648438 127.785156 C 462.753906 128.363281 461.257812 129.113281 459.40625 129.835938 C 456.625 130.933594 453.035156 131.996094 449.167969 132.765625 C 445.292969 133.542969 441.136719 134.019531 437.195312 134.019531 C 435.757812 134.019531 434.351562 133.957031 433 133.828125 L 432.546875 138.441406 L 435.105469 142.304688 L 432.546875 138.441406 L 432.09375 143.054688 C 433.78125 143.21875 435.488281 143.296875 437.195312 143.296875 C 445.308594 143.285156 453.503906 141.636719 459.933594 139.503906 C 463.152344 138.425781 465.914062 137.246094 468.128906 135.917969 C 469.242188 135.238281 470.230469 134.546875 471.140625 133.601562 C 471.597656 133.125 472.046875 132.570312 472.441406 131.839844 C 472.824219 131.113281 473.167969 130.148438 473.167969 128.996094 C 473.167969 128.417969 473.078125 127.816406 472.894531 127.25 C 472.578125 126.25 471.984375 125.421875 471.378906 124.839844 C 470.449219 123.96875 469.53125 123.527344 468.644531 123.199219 C 467.75 122.871094 466.847656 122.671875 465.863281 122.523438 C 464.746094 122.351562 463.628906 122.277344 462.511719 122.277344 C 458.652344 122.289062 454.804688 123.125 451.105469 124.296875 C 445.570312 126.058594 440.367188 128.609375 436.488281 130.71875 C 432.609375 132.835938 430.066406 134.523438 429.984375 134.574219 C 428.351562 135.660156 427.578125 137.65625 428.050781 139.558594 C 428.523438 141.460938 430.144531 142.867188 432.09375 143.054688 L 432.546875 138.441406"/><path fill="#FFF" d="M 374.941406 138.441406 C 374.941406 138.441406 354.984375 125.1875 342.316406 127.105469 C 329.65625 129.027344 355.367188 140.359375 374.941406 138.441406"/><path d="M 374.941406 138.441406 L 377.503906 134.574219 C 377.390625 134.503906 372.914062 131.53125 366.714844 128.511719 C 363.609375 126.996094 360.070312 125.472656 356.382812 124.296875 C 352.679688 123.125 348.832031 122.289062 344.976562 122.277344 C 343.859375 122.277344 342.738281 122.351562 341.625 122.523438 C 340.875 122.636719 340.167969 122.78125 339.484375 122.984375 C 338.96875 123.140625 338.460938 123.324219 337.941406 123.578125 C 337.179688 123.953125 336.351562 124.480469 335.597656 125.398438 C 335.226562 125.855469 334.894531 126.414062 334.664062 127.039062 C 334.433594 127.664062 334.3125 128.347656 334.3125 128.996094 C 334.320312 130.148438 334.65625 131.113281 335.042969 131.839844 C 335.414062 132.527344 335.828125 133.050781 336.253906 133.507812 C 337.058594 134.359375 337.910156 134.996094 338.855469 135.605469 C 340.507812 136.65625 342.460938 137.59375 344.71875 138.480469 C 348.097656 139.804688 352.140625 140.992188 356.519531 141.863281 C 360.90625 142.734375 365.609375 143.296875 370.292969 143.296875 C 372 143.296875 373.707031 143.21875 375.390625 143.054688 C 377.339844 142.867188 378.964844 141.460938 379.433594 139.558594 C 379.910156 137.65625 379.128906 135.660156 377.503906 134.574219 L 374.941406 138.441406 L 374.488281 133.828125 C 373.132812 133.957031 371.726562 134.019531 370.292969 134.019531 C 363.464844 134.03125 355.988281 132.550781 350.480469 130.707031 C 347.730469 129.796875 345.457031 128.773438 344.128906 127.964844 C 343.476562 127.578125 343.058594 127.222656 343.023438 127.175781 L 343.019531 127.167969 L 341.828125 128.257812 L 343.253906 127.539062 C 343.113281 127.265625 343.019531 127.175781 343.019531 127.167969 L 341.828125 128.257812 L 343.253906 127.539062 L 340.363281 128.996094 L 343.578125 128.996094 C 343.578125 128.3125 343.390625 127.8125 343.253906 127.539062 L 340.363281 128.996094 L 343.578125 128.996094 L 339.957031 128.996094 L 343.402344 130.113281 C 343.519531 129.746094 343.582031 129.351562 343.578125 128.996094 L 339.957031 128.996094 L 343.402344 130.113281 L 340.171875 129.0625 L 342.539062 131.515625 C 342.820312 131.25 343.195312 130.757812 343.402344 130.113281 L 340.171875 129.0625 L 342.539062 131.515625 L 340.902344 129.820312 L 342.074219 131.878906 C 342.160156 131.824219 342.324219 131.726562 342.539062 131.515625 L 340.902344 129.820312 L 342.074219 131.878906 L 341.511719 130.890625 L 342 131.914062 L 342.074219 131.878906 L 341.511719 130.890625 L 342 131.914062 L 341.878906 131.660156 L 341.988281 131.917969 L 342 131.914062 L 341.878906 131.660156 L 341.988281 131.917969 C 342.007812 131.90625 342.378906 131.785156 343.011719 131.6875 C 343.605469 131.601562 344.265625 131.554688 344.976562 131.554688 C 347.425781 131.542969 350.472656 132.144531 353.574219 133.136719 C 358.238281 134.613281 363.023438 136.929688 366.566406 138.867188 C 368.347656 139.835938 369.816406 140.707031 370.839844 141.332031 C 371.34375 141.644531 371.738281 141.890625 372.003906 142.0625 C 372.136719 142.144531 372.238281 142.207031 372.300781 142.25 L 372.363281 142.292969 L 372.382812 142.304688 L 372.570312 142.007812 L 372.375 142.304688 L 372.382812 142.304688 L 372.570312 142.007812 L 372.375 142.304688 L 374.941406 138.441406 L 374.488281 133.828125 L 374.941406 138.441406"/><path d="M 479.824219 233.90625 L 484.195312 230.476562 C 485.199219 229.6875 485.371094 228.234375 484.582031 227.226562 C 483.796875 226.226562 482.34375 226.050781 481.34375 226.839844 L 476.972656 230.269531 C 475.96875 231.058594 475.796875 232.511719 476.585938 233.519531 C 477.371094 234.523438 478.824219 234.695312 479.824219 233.90625"/><path d="M 480.152344 230.589844 L 476.542969 226.363281 C 475.714844 225.390625 474.257812 225.277344 473.292969 226.105469 C 472.324219 226.9375 472.207031 228.398438 473.039062 229.367188 L 476.644531 233.589844 C 477.472656 234.5625 478.933594 234.675781 479.902344 233.847656 C 480.867188 233.019531 480.980469 231.558594 480.152344 230.589844"/><path d="M 474.722656 252.933594 L 470.351562 256.363281 C 469.347656 257.152344 469.175781 258.605469 469.960938 259.613281 C 470.75 260.613281 472.199219 260.789062 473.199219 260 L 477.574219 256.570312 C 478.578125 255.78125 478.75 254.328125 477.964844 253.320312 C 477.175781 252.316406 475.726562 252.144531 474.722656 252.933594"/><path d="M 474.390625 256.25 L 478 260.480469 C 478.828125 261.449219 480.285156 261.5625 481.253906 260.734375 C 482.226562 259.90625 482.339844 258.449219 481.511719 257.472656 L 477.90625 253.25 C 477.074219 252.277344 475.617188 252.164062 474.648438 252.992188 C 473.679688 253.820312 473.5625 255.277344 474.390625 256.25"/><path d="M 476.683594 225.976562 L 473.277344 260.296875 C 473.152344 261.5625 474.074219 262.699219 475.34375 262.824219 C 476.617188 262.949219 477.742188 262.027344 477.871094 260.753906 L 481.28125 226.4375 C 481.40625 225.164062 480.480469 224.03125 479.210938 223.902344 C 477.941406 223.777344 476.8125 224.707031 476.683594 225.976562"/><path d="M 486.753906 240.929688 L 491.886719 243.046875 C 493.070312 243.53125 494.421875 242.96875 494.90625 241.789062 C 495.390625 240.605469 494.828125 239.257812 493.648438 238.769531 L 488.507812 236.652344 C 487.332031 236.167969 485.980469 236.734375 485.496094 237.910156 C 485.011719 239.09375 485.574219 240.441406 486.753906 240.929688"/><path d="M 489.804688 239.582031 L 491.703125 234.355469 C 492.136719 233.15625 491.523438 231.832031 490.324219 231.394531 C 489.125 230.960938 487.800781 231.574219 487.363281 232.777344 L 485.464844 238 C 485.027344 239.203125 485.644531 240.527344 486.84375 240.964844 C 488.042969 241.402344 489.363281 240.78125 489.804688 239.582031"/><path d="M 467.699219 245.851562 L 462.566406 243.730469 C 461.386719 243.246094 460.035156 243.808594 459.546875 244.988281 C 459.0625 246.167969 459.625 247.519531 460.804688 248.003906 L 465.945312 250.121094 C 467.121094 250.609375 468.472656 250.046875 468.957031 248.867188 C 469.441406 247.683594 468.878906 246.335938 467.699219 245.851562"/><path d="M 464.652344 247.195312 L 462.75 252.421875 C 462.3125 253.621094 462.933594 254.941406 464.128906 255.382812 C 465.328125 255.816406 466.65625 255.199219 467.089844 254 L 468.992188 248.773438 C 469.429688 247.574219 468.8125 246.25 467.613281 245.8125 C 466.414062 245.375 465.089844 245.996094 464.652344 247.195312"/><path d="M 492.105469 234.289062 L 460.585938 248.214844 C 459.417969 248.726562 458.890625 250.09375 459.402344 251.261719 C 459.917969 252.429688 461.285156 252.960938 462.449219 252.441406 L 493.96875 238.519531 C 495.136719 238 495.664062 236.636719 495.148438 235.46875 C 494.632812 234.300781 493.273438 233.773438 492.105469 234.289062"/><path d="M 484.0625 250.421875 L 484.75 255.9375 C 484.90625 257.207031 486.0625 258.105469 487.324219 257.945312 C 488.589844 257.792969 489.492188 256.636719 489.332031 255.367188 L 488.644531 249.847656 C 488.488281 248.582031 487.332031 247.683594 486.066406 247.84375 C 484.800781 248 483.902344 249.15625 484.0625 250.421875"/><path d="M 486.730469 252.417969 L 492.210938 251.5 C 493.46875 251.289062 494.316406 250.097656 494.105469 248.839844 C 493.898438 247.578125 492.707031 246.726562 491.449219 246.941406 L 485.972656 247.855469 C 484.714844 248.070312 483.863281 249.253906 484.074219 250.519531 C 484.285156 251.777344 485.472656 252.625 486.730469 252.417969"/><path d="M 470.40625 236.246094 L 469.71875 230.722656 C 469.558594 229.457031 468.40625 228.558594 467.144531 228.71875 C 465.878906 228.875 464.976562 230.03125 465.136719 231.300781 L 465.824219 236.816406 C 465.980469 238.082031 467.132812 238.984375 468.402344 238.820312 C 469.667969 238.667969 470.5625 237.511719 470.40625 236.246094"/><path d="M 467.734375 234.25 L 462.253906 235.167969 C 460.996094 235.375 460.148438 236.566406 460.359375 237.824219 C 460.566406 239.082031 461.757812 239.933594 463.019531 239.726562 L 468.496094 238.808594 C 469.753906 238.597656 470.605469 237.410156 470.390625 236.148438 C 470.183594 234.890625 468.992188 234.039062 467.734375 234.25"/><path d="M 492.46875 251.816406 L 464.851562 231.207031 C 463.828125 230.445312 462.378906 230.65625 461.617188 231.679688 C 460.855469 232.703125 461.0625 234.152344 462.085938 234.914062 L 489.707031 255.523438 C 490.730469 256.289062 492.179688 256.074219 492.9375 255.050781 C 493.703125 254.027344 493.488281 252.578125 492.46875 251.816406"/><path d="M 331.148438 233.90625 L 335.515625 230.476562 C 336.523438 229.6875 336.695312 228.234375 335.90625 227.226562 C 335.121094 226.226562 333.667969 226.050781 332.667969 226.839844 L 328.296875 230.269531 C 327.292969 231.058594 327.121094 232.511719 327.910156 233.519531 C 328.695312 234.523438 330.148438 234.695312 331.148438 233.90625"/><path d="M 331.476562 230.589844 L 327.867188 226.363281 C 327.039062 225.390625 325.582031 225.277344 324.617188 226.105469 C 323.648438 226.9375 323.53125 228.398438 324.359375 229.367188 L 327.96875 233.589844 C 328.796875 234.5625 330.257812 234.675781 331.222656 233.847656 C 332.191406 233.019531 332.304688 231.558594 331.476562 230.589844"/><path d="M 326.046875 252.933594 L 321.675781 256.363281 C 320.675781 257.152344 320.5 258.605469 321.285156 259.613281 C 322.074219 260.613281 323.523438 260.789062 324.53125 260 L 328.898438 256.570312 C 329.902344 255.78125 330.074219 254.328125 329.289062 253.320312 C 328.5 252.316406 327.050781 252.144531 326.046875 252.933594"/><path d="M 325.71875 256.25 L 329.324219 260.480469 C 330.152344 261.449219 331.609375 261.5625 332.578125 260.734375 C 333.550781 259.90625 333.664062 258.449219 332.835938 257.472656 L 329.230469 253.25 C 328.402344 252.277344 326.945312 252.164062 325.972656 252.992188 C 325.003906 253.820312 324.886719 255.277344 325.71875 256.25"/><path d="M 328.007812 225.976562 L 324.601562 260.296875 C 324.476562 261.5625 325.402344 262.699219 326.667969 262.824219 C 327.941406 262.949219 329.070312 262.027344 329.199219 260.753906 L 332.605469 226.4375 C 332.730469 225.164062 331.808594 224.03125 330.535156 223.902344 C 329.265625 223.777344 328.136719 224.707031 328.007812 225.976562"/><path d="M 338.078125 240.929688 L 343.210938 243.046875 C 344.394531 243.53125 345.746094 242.96875 346.230469 241.789062 C 346.714844 240.605469 346.152344 239.257812 344.972656 238.769531 L 339.832031 236.652344 C 338.65625 236.167969 337.304688 236.734375 336.820312 237.910156 C 336.335938 239.09375 336.898438 240.441406 338.078125 240.929688"/><path d="M 341.125 239.582031 L 343.027344 234.355469 C 343.460938 233.15625 342.847656 231.832031 341.648438 231.394531 C 340.449219 230.960938 339.121094 231.574219 338.683594 232.777344 L 336.789062 238 C 336.351562 239.203125 336.96875 240.527344 338.167969 240.964844 C 339.363281 241.402344 340.6875 240.78125 341.125 239.582031"/><path d="M 319.027344 245.851562 L 313.890625 243.730469 C 312.710938 243.246094 311.359375 243.808594 310.878906 244.988281 C 310.386719 246.167969 310.953125 247.519531 312.128906 248.003906 L 317.269531 250.121094 C 318.449219 250.609375 319.796875 250.046875 320.285156 248.867188 C 320.769531 247.683594 320.203125 246.335938 319.027344 245.851562"/><path d="M 315.980469 247.195312 L 314.074219 252.421875 C 313.640625 253.621094 314.261719 254.941406 315.460938 255.382812 C 316.652344 255.816406 317.980469 255.199219 318.417969 254 L 320.316406 248.773438 C 320.757812 247.574219 320.136719 246.25 318.9375 245.8125 C 317.738281 245.375 316.414062 245.996094 315.980469 247.195312"/><path d="M 343.429688 234.289062 L 311.914062 248.214844 C 310.746094 248.726562 310.214844 250.09375 310.730469 251.261719 C 311.246094 252.429688 312.609375 252.960938 313.777344 252.441406 L 345.292969 238.519531 C 346.460938 238 346.988281 236.636719 346.472656 235.46875 C 345.957031 234.300781 344.597656 233.773438 343.429688 234.289062"/><path d="M 335.386719 250.421875 L 336.074219 255.9375 C 336.230469 257.207031 337.386719 258.105469 338.652344 257.945312 C 339.914062 257.792969 340.816406 256.636719 340.65625 255.367188 L 339.96875 249.847656 C 339.8125 248.582031 338.65625 247.683594 337.390625 247.84375 C 336.125 248 335.226562 249.15625 335.386719 250.421875"/><path d="M 338.058594 252.417969 L 343.535156 251.5 C 344.792969 251.289062 345.640625 250.097656 345.433594 248.839844 C 345.222656 247.578125 344.03125 246.726562 342.773438 246.941406 L 337.296875 247.855469 C 336.039062 248.070312 335.191406 249.253906 335.398438 250.519531 C 335.613281 251.777344 336.796875 252.625 338.058594 252.417969"/><path d="M 321.734375 236.246094 L 321.046875 230.722656 C 320.886719 229.457031 319.734375 228.558594 318.46875 228.71875 C 317.199219 228.875 316.304688 230.03125 316.460938 231.300781 L 317.148438 236.816406 C 317.304688 238.082031 318.457031 238.984375 319.726562 238.820312 C 320.992188 238.667969 321.886719 237.511719 321.734375 236.246094"/><path d="M 319.058594 234.25 L 313.582031 235.167969 C 312.324219 235.375 311.472656 236.566406 311.683594 237.824219 C 311.894531 239.082031 313.085938 239.933594 314.34375 239.726562 L 319.820312 238.808594 C 321.078125 238.597656 321.929688 237.410156 321.71875 236.148438 C 321.507812 234.890625 320.316406 234.039062 319.058594 234.25"/><path d="M 343.792969 251.816406 L 316.175781 231.207031 C 315.152344 230.445312 313.703125 230.65625 312.941406 231.679688 C 312.179688 232.703125 312.390625 234.152344 313.414062 234.914062 L 341.03125 255.523438 C 342.054688 256.289062 343.5 256.074219 344.265625 255.050781 C 345.027344 254.027344 344.8125 252.578125 343.792969 251.816406"/><path d="M 479.824219 307.546875 L 484.195312 304.113281 C 485.199219 303.328125 485.371094 301.871094 484.582031 300.871094 C 483.796875 299.867188 482.34375 299.691406 481.339844 300.476562 L 476.972656 303.914062 C 475.96875 304.703125 475.796875 306.15625 476.585938 307.15625 C 477.371094 308.164062 478.824219 308.339844 479.824219 307.546875"/><path d="M 480.152344 304.226562 L 476.542969 300.003906 C 475.714844 299.03125 474.257812 298.914062 473.292969 299.75 C 472.324219 300.578125 472.207031 302.035156 473.035156 303.003906 L 476.644531 307.234375 C 477.472656 308.203125 478.933594 308.316406 479.902344 307.488281 C 480.867188 306.660156 480.980469 305.199219 480.152344 304.226562"/><path d="M 474.722656 326.570312 L 470.351562 330.003906 C 469.347656 330.792969 469.175781 332.246094 469.960938 333.25 C 470.75 334.25 472.195312 334.429688 473.199219 333.640625 L 477.574219 330.207031 C 478.574219 329.417969 478.75 327.964844 477.964844 326.960938 C 477.175781 325.960938 475.726562 325.785156 474.722656 326.570312"/><path d="M 474.390625 329.890625 L 478 334.121094 C 478.828125 335.089844 480.285156 335.203125 481.257812 334.375 C 482.226562 333.546875 482.339844 332.085938 481.511719 331.113281 L 477.90625 326.886719 C 477.074219 325.914062 475.617188 325.800781 474.648438 326.628906 C 473.679688 327.457031 473.5625 328.921875 474.390625 329.890625"/><path d="M 476.683594 299.617188 L 473.277344 333.933594 C 473.152344 335.207031 474.074219 336.339844 475.34375 336.464844 C 476.617188 336.59375 477.742188 335.664062 477.871094 334.390625 L 481.28125 300.074219 C 481.40625 298.800781 480.480469 297.675781 479.210938 297.546875 C 477.941406 297.421875 476.8125 298.347656 476.683594 299.617188"/><path d="M 486.753906 314.566406 L 491.886719 316.683594 C 493.070312 317.171875 494.417969 316.609375 494.90625 315.425781 C 495.390625 314.25 494.828125 312.894531 493.648438 312.410156 L 488.507812 310.292969 C 487.332031 309.804688 485.984375 310.367188 485.496094 311.550781 C 485.011719 312.730469 485.574219 314.082031 486.753906 314.566406"/><path d="M 489.804688 313.222656 L 491.703125 307.996094 C 492.136719 306.796875 491.523438 305.472656 490.324219 305.035156 C 489.125 304.597656 487.800781 305.214844 487.363281 306.414062 L 485.464844 311.640625 C 485.027344 312.839844 485.644531 314.167969 486.84375 314.601562 C 488.042969 315.042969 489.363281 314.421875 489.804688 313.222656"/><path d="M 467.699219 319.488281 L 462.566406 317.371094 C 461.386719 316.882812 460.035156 317.445312 459.546875 318.628906 C 459.0625 319.808594 459.625 321.160156 460.804688 321.644531 L 465.945312 323.761719 C 467.121094 324.25 468.472656 323.6875 468.957031 322.503906 C 469.441406 321.324219 468.878906 319.972656 467.699219 319.488281"/><path d="M 464.652344 320.832031 L 462.75 326.054688 C 462.3125 327.253906 462.933594 328.582031 464.128906 329.019531 C 465.328125 329.457031 466.65625 328.839844 467.089844 327.640625 L 468.992188 322.417969 C 469.429688 321.21875 468.8125 319.890625 467.613281 319.453125 C 466.414062 319.019531 465.089844 319.632812 464.652344 320.832031"/><path d="M 492.105469 307.925781 L 460.585938 321.851562 C 459.417969 322.367188 458.890625 323.730469 459.402344 324.898438 C 459.917969 326.070312 461.285156 326.597656 462.449219 326.082031 L 493.96875 312.15625 C 495.136719 311.644531 495.664062 310.277344 495.148438 309.109375 C 494.632812 307.941406 493.273438 307.414062 492.105469 307.925781"/><path d="M 484.0625 324.0625 L 484.75 329.578125 C 484.90625 330.847656 486.0625 331.746094 487.324219 331.589844 C 488.589844 331.429688 489.492188 330.277344 489.332031 329.007812 L 488.644531 323.492188 C 488.488281 322.222656 487.332031 321.324219 486.066406 321.480469 C 484.800781 321.640625 483.902344 322.792969 484.0625 324.0625"/><path d="M 486.730469 326.054688 L 492.210938 325.140625 C 493.46875 324.933594 494.316406 323.738281 494.105469 322.476562 C 493.898438 321.21875 492.707031 320.367188 491.449219 320.578125 L 485.972656 321.496094 C 484.714844 321.707031 483.863281 322.898438 484.074219 324.15625 C 484.285156 325.417969 485.472656 326.269531 486.730469 326.054688"/><path d="M 470.40625 309.882812 L 469.71875 304.363281 C 469.558594 303.101562 468.40625 302.199219 467.144531 302.355469 C 465.878906 302.515625 464.976562 303.671875 465.136719 304.9375 L 465.824219 310.453125 C 465.980469 311.722656 467.132812 312.625 468.402344 312.464844 C 469.667969 312.304688 470.5625 311.152344 470.40625 309.882812"/><path d="M 467.734375 307.890625 L 462.253906 308.804688 C 460.996094 309.015625 460.148438 310.207031 460.359375 311.46875 C 460.566406 312.726562 461.757812 313.574219 463.019531 313.367188 L 468.496094 312.453125 C 469.753906 312.238281 470.605469 311.046875 470.390625 309.789062 C 470.183594 308.53125 468.992188 307.679688 467.734375 307.890625"/><path d="M 492.46875 325.457031 L 464.851562 304.847656 C 463.828125 304.082031 462.378906 304.296875 461.617188 305.320312 C 460.855469 306.34375 461.0625 307.792969 462.085938 308.558594 L 489.707031 329.167969 C 490.730469 329.925781 492.179688 329.714844 492.9375 328.691406 C 493.703125 327.667969 493.488281 326.21875 492.46875 325.457031"/><path d="M 328.664062 307.546875 L 333.03125 304.113281 C 334.035156 303.328125 334.210938 301.871094 333.417969 300.871094 C 332.632812 299.867188 331.179688 299.691406 330.179688 300.476562 L 325.808594 303.914062 C 324.808594 304.703125 324.632812 306.15625 325.421875 307.15625 C 326.207031 308.164062 327.660156 308.339844 328.664062 307.546875"/><path d="M 328.988281 304.226562 L 325.382812 300.003906 C 324.554688 299.03125 323.09375 298.914062 322.128906 299.75 C 321.160156 300.578125 321.046875 302.035156 321.875 303.003906 L 325.480469 307.234375 C 326.3125 308.203125 327.769531 308.316406 328.738281 307.488281 C 329.703125 306.660156 329.820312 305.199219 328.988281 304.226562"/><path d="M 323.5625 326.570312 L 319.191406 330.003906 C 318.1875 330.792969 318.011719 332.246094 318.796875 333.25 C 319.585938 334.25 321.039062 334.429688 322.042969 333.640625 L 326.410156 330.207031 C 327.414062 329.417969 327.585938 327.964844 326.800781 326.960938 C 326.011719 325.960938 324.5625 325.785156 323.5625 326.570312"/><path d="M 323.230469 329.890625 L 326.835938 334.121094 C 327.664062 335.089844 329.121094 335.203125 330.09375 334.375 C 331.0625 333.546875 331.179688 332.085938 330.347656 331.113281 L 326.742188 326.886719 C 325.914062 325.914062 324.453125 325.800781 323.484375 326.628906 C 322.515625 327.457031 322.398438 328.921875 323.230469 329.890625"/><path d="M 325.523438 299.617188 L 322.113281 333.933594 C 321.988281 335.207031 322.914062 336.339844 324.179688 336.464844 C 325.453125 336.59375 326.582031 335.664062 326.710938 334.390625 L 330.121094 300.074219 C 330.242188 298.800781 329.320312 297.675781 328.050781 297.546875 C 326.78125 297.421875 325.648438 298.347656 325.523438 299.617188"/><path d="M 335.589844 314.566406 L 340.730469 316.683594 C 341.90625 317.171875 343.257812 316.609375 343.742188 315.425781 C 344.226562 314.25 343.664062 312.894531 342.484375 312.410156 L 337.351562 310.292969 C 336.167969 309.804688 334.820312 310.367188 334.332031 311.550781 C 333.847656 312.730469 334.410156 314.082031 335.589844 314.566406"/><path d="M 338.640625 313.222656 L 340.539062 307.996094 C 340.976562 306.796875 340.359375 305.472656 339.160156 305.035156 C 337.960938 304.597656 336.636719 305.214844 336.199219 306.414062 L 334.300781 311.640625 C 333.863281 312.839844 334.480469 314.167969 335.679688 314.601562 C 336.878906 315.042969 338.203125 314.421875 338.640625 313.222656"/><path d="M 316.539062 319.488281 L 311.402344 317.371094 C 310.222656 316.882812 308.871094 317.445312 308.390625 318.628906 C 307.898438 319.808594 308.464844 321.160156 309.648438 321.644531 L 314.78125 323.761719 C 315.960938 324.25 317.308594 323.6875 317.792969 322.503906 C 318.28125 321.324219 317.722656 319.972656 316.539062 319.488281"/><path d="M 313.492188 320.832031 L 311.589844 326.054688 C 311.152344 327.253906 311.773438 328.582031 312.96875 329.019531 C 314.164062 329.457031 315.492188 328.839844 315.929688 327.640625 L 317.828125 322.417969 C 318.269531 321.21875 317.648438 319.890625 316.449219 319.453125 C 315.25 319.019531 313.925781 319.632812 313.492188 320.832031"/><path d="M 340.941406 307.925781 L 309.425781 321.851562 C 308.257812 322.367188 307.726562 323.730469 308.246094 324.898438 C 308.761719 326.070312 310.121094 326.597656 311.289062 326.082031 L 342.804688 312.15625 C 343.972656 311.644531 344.5 310.277344 343.984375 309.109375 C 343.476562 307.941406 342.109375 307.414062 340.941406 307.925781"/><path d="M 332.898438 324.0625 L 333.585938 329.578125 C 333.746094 330.847656 334.898438 331.746094 336.164062 331.589844 C 337.425781 331.429688 338.328125 330.277344 338.167969 329.007812 L 337.480469 323.492188 C 337.324219 322.222656 336.167969 321.324219 334.902344 321.480469 C 333.640625 321.640625 332.738281 322.792969 332.898438 324.0625"/><path d="M 335.570312 326.054688 L 341.046875 325.140625 C 342.308594 324.933594 343.152344 323.738281 342.945312 322.476562 C 342.734375 321.21875 341.546875 320.367188 340.289062 320.578125 L 334.808594 321.496094 C 333.550781 321.707031 332.699219 322.898438 332.910156 324.15625 C 333.121094 325.417969 334.3125 326.269531 335.570312 326.054688"/><path d="M 319.242188 309.882812 L 318.554688 304.363281 C 318.398438 303.101562 317.246094 302.199219 315.980469 302.355469 C 314.714844 302.515625 313.816406 303.671875 313.972656 304.9375 L 314.660156 310.453125 C 314.816406 311.722656 315.96875 312.625 317.238281 312.464844 C 318.503906 312.304688 319.402344 311.152344 319.242188 309.882812"/><path d="M 316.574219 307.890625 L 311.09375 308.804688 C 309.832031 309.015625 308.984375 310.207031 309.195312 311.46875 C 309.40625 312.726562 310.597656 313.574219 311.855469 313.367188 L 317.332031 312.453125 C 318.589844 312.238281 319.441406 311.046875 319.226562 309.789062 C 319.019531 308.53125 317.828125 307.679688 316.574219 307.890625"/><path d="M 341.308594 325.457031 L 313.6875 304.847656 C 312.664062 304.082031 311.214844 304.296875 310.453125 305.320312 C 309.691406 306.34375 309.90625 307.792969 310.925781 308.558594 L 338.542969 329.167969 C 339.570312 329.925781 341.015625 329.714844 341.777344 328.691406 C 342.539062 327.667969 342.332031 326.21875 341.308594 325.457031"/><path d="M 271.339844 78.132812 L 275.722656 74.691406 C 276.726562 73.898438 276.902344 72.441406 276.113281 71.4375 C 275.324219 70.425781 273.867188 70.253906 272.859375 71.042969 L 268.480469 74.488281 C 267.472656 75.277344 267.300781 76.734375 268.085938 77.746094 C 268.878906 78.75 270.335938 78.925781 271.339844 78.132812"/><path d="M 271.671875 74.804688 L 268.050781 70.566406 C 267.21875 69.59375 265.757812 69.476562 264.785156 70.308594 C 263.8125 71.140625 263.699219 72.605469 264.53125 73.578125 L 268.152344 77.816406 C 268.976562 78.789062 270.441406 78.910156 271.414062 78.074219 C 272.386719 77.242188 272.503906 75.777344 271.671875 74.804688"/><path d="M 266.222656 97.214844 L 261.839844 100.65625 C 260.832031 101.445312 260.65625 102.90625 261.445312 103.910156 C 262.238281 104.921875 263.695312 105.097656 264.699219 104.304688 L 269.082031 100.863281 C 270.085938 100.070312 270.261719 98.617188 269.476562 97.605469 C 268.683594 96.597656 267.226562 96.425781 266.222656 97.214844"/><path d="M 265.894531 100.546875 L 269.511719 104.785156 C 270.339844 105.757812 271.800781 105.871094 272.773438 105.042969 C 273.75 104.210938 273.863281 102.746094 273.03125 101.773438 L 269.414062 97.53125 C 268.582031 96.554688 267.121094 96.441406 266.148438 97.277344 C 265.175781 98.105469 265.0625 99.574219 265.894531 100.546875"/><path d="M 268.191406 70.175781 L 264.769531 104.597656 C 264.644531 105.875 265.578125 107.011719 266.847656 107.136719 C 268.117188 107.265625 269.253906 106.332031 269.382812 105.0625 L 272.800781 70.640625 C 272.925781 69.363281 272 68.230469 270.726562 68.101562 C 269.453125 67.972656 268.316406 68.90625 268.191406 70.175781"/><path d="M 278.292969 85.175781 L 283.441406 87.300781 C 284.625 87.785156 285.980469 87.222656 286.46875 86.035156 C 286.949219 84.855469 286.390625 83.496094 285.203125 83.011719 L 280.050781 80.886719 C 278.871094 80.398438 277.519531 80.964844 277.03125 82.152344 C 276.542969 83.332031 277.109375 84.6875 278.292969 85.175781"/><path d="M 281.347656 83.828125 L 283.253906 78.582031 C 283.695312 77.382812 283.074219 76.050781 281.871094 75.613281 C 280.667969 75.171875 279.335938 75.792969 278.898438 76.996094 L 276.996094 82.238281 C 276.558594 83.441406 277.179688 84.773438 278.378906 85.210938 C 279.582031 85.648438 280.910156 85.027344 281.347656 83.828125"/><path d="M 259.179688 90.109375 L 254.027344 87.984375 C 252.847656 87.5 251.496094 88.0625 251.003906 89.246094 C 250.523438 90.429688 251.082031 91.78125 252.269531 92.273438 L 257.414062 94.394531 C 258.601562 94.878906 259.953125 94.320312 260.441406 93.132812 C 260.925781 91.949219 260.367188 90.597656 259.179688 90.109375"/><path d="M 256.121094 91.457031 L 254.21875 96.703125 C 253.777344 97.902344 254.398438 99.234375 255.601562 99.671875 C 256.804688 100.109375 258.128906 99.492188 258.570312 98.285156 L 260.476562 93.046875 C 260.914062 91.84375 260.292969 90.511719 259.089844 90.070312 C 257.890625 89.636719 256.5625 90.257812 256.121094 91.457031"/><path d="M 283.65625 78.515625 L 252.046875 92.480469 C 250.875 92.996094 250.34375 94.367188 250.859375 95.539062 C 251.375 96.710938 252.742188 97.238281 253.914062 96.722656 L 285.527344 82.757812 C 286.699219 82.242188 287.226562 80.875 286.710938 79.699219 C 286.195312 78.527344 284.828125 78 283.65625 78.515625"/><path d="M 275.59375 94.695312 L 276.28125 100.230469 C 276.4375 101.5 277.589844 102.402344 278.863281 102.246094 C 280.132812 102.085938 281.035156 100.929688 280.875 99.660156 L 280.1875 94.125 C 280.03125 92.851562 278.871094 91.949219 277.601562 92.109375 C 276.335938 92.269531 275.429688 93.425781 275.59375 94.695312"/><path d="M 278.269531 96.695312 L 283.761719 95.777344 C 285.023438 95.570312 285.878906 94.375 285.667969 93.109375 C 285.457031 91.847656 284.265625 90.996094 283 91.203125 L 277.503906 92.121094 C 276.242188 92.335938 275.394531 93.527344 275.605469 94.789062 C 275.8125 96.054688 277.007812 96.90625 278.269531 96.695312"/><path d="M 261.894531 80.476562 L 261.207031 74.941406 C 261.046875 73.667969 259.890625 72.769531 258.621094 72.925781 C 257.351562 73.085938 256.453125 74.242188 256.609375 75.515625 L 257.296875 81.050781 C 257.457031 82.320312 258.613281 83.222656 259.882812 83.066406 C 261.152344 82.902344 262.050781 81.746094 261.894531 80.476562"/><path d="M 259.214844 78.476562 L 253.71875 79.394531 C 252.457031 79.605469 251.609375 80.800781 251.816406 82.066406 C 252.027344 83.324219 253.21875 84.179688 254.480469 83.96875 L 259.976562 83.046875 C 261.238281 82.839844 262.09375 81.644531 261.878906 80.378906 C 261.671875 79.117188 260.476562 78.265625 259.214844 78.476562"/><path d="M 284.023438 96.09375 L 256.316406 75.425781 C 255.292969 74.660156 253.84375 74.875 253.078125 75.898438 C 252.3125 76.925781 252.527344 78.378906 253.546875 79.144531 L 281.253906 99.8125 C 282.277344 100.578125 283.730469 100.363281 284.496094 99.339844 C 285.257812 98.3125 285.046875 96.859375 284.023438 96.09375"/><path d="M 402.050781 20.457031 L 406.429688 17.011719 C 407.441406 16.222656 407.617188 14.765625 406.824219 13.761719 C 406.03125 12.75 404.582031 12.578125 403.570312 13.367188 L 399.1875 16.8125 C 398.183594 17.601562 398.007812 19.058594 398.800781 20.070312 C 399.585938 21.074219 401.042969 21.25 402.050781 20.457031"/><path d="M 402.382812 17.128906 L 398.761719 12.886719 C 397.929688 11.917969 396.46875 11.800781 395.496094 12.632812 C 394.523438 13.464844 394.40625 14.929688 395.238281 15.902344 L 398.859375 20.140625 C 399.691406 21.113281 401.152344 21.226562 402.125 20.394531 C 403.097656 19.566406 403.214844 18.101562 402.382812 17.128906"/><path d="M 396.9375 39.535156 L 392.550781 42.980469 C 391.542969 43.769531 391.367188 45.230469 392.160156 46.234375 C 392.945312 47.246094 394.402344 47.421875 395.410156 46.628906 L 399.792969 43.1875 C 400.800781 42.394531 400.976562 40.9375 400.183594 39.929688 C 399.398438 38.921875 397.941406 38.746094 396.9375 39.535156"/><path d="M 396.601562 42.867188 L 400.21875 47.109375 C 401.050781 48.082031 402.511719 48.195312 403.484375 47.363281 C 404.457031 46.535156 404.570312 45.070312 403.742188 44.097656 L 400.125 39.855469 C 399.292969 38.878906 397.832031 38.765625 396.859375 39.601562 C 395.886719 40.429688 395.769531 41.890625 396.601562 42.867188"/><g clip-path="url(#e)"><path d="M 398.898438 12.5 L 395.480469 46.921875 C 395.355469 48.199219 396.285156 49.335938 397.554688 49.460938 C 398.832031 49.585938 399.960938 48.65625 400.089844 47.378906 L 403.511719 12.964844 C 403.636719 11.6875 402.707031 10.550781 401.4375 10.421875 C 400.160156 10.296875 399.03125 11.230469 398.898438 12.5"/></g><path d="M 409 27.5 L 414.152344 29.621094 C 415.332031 30.109375 416.691406 29.546875 417.175781 28.359375 C 417.664062 27.179688 417.097656 25.820312 415.917969 25.335938 L 410.765625 23.210938 C 409.578125 22.722656 408.226562 23.289062 407.738281 24.476562 C 407.253906 25.65625 407.816406 27.011719 409 27.5"/><path d="M 412.058594 26.152344 L 413.964844 20.90625 C 414.402344 19.703125 413.78125 18.375 412.578125 17.9375 C 411.375 17.496094 410.050781 18.117188 409.609375 19.320312 L 407.707031 24.5625 C 407.269531 25.765625 407.886719 27.097656 409.085938 27.53125 C 410.289062 27.972656 411.621094 27.351562 412.058594 26.152344"/><path d="M 389.890625 32.433594 L 384.738281 30.308594 C 383.558594 29.824219 382.203125 30.386719 381.71875 31.570312 C 381.230469 32.753906 381.796875 34.105469 382.976562 34.597656 L 388.128906 36.71875 C 389.3125 37.203125 390.664062 36.644531 391.15625 35.457031 C 391.636719 34.273438 391.074219 32.921875 389.890625 32.433594"/><path d="M 386.835938 33.78125 L 384.929688 39.019531 C 384.492188 40.226562 385.109375 41.558594 386.308594 41.996094 C 387.511719 42.433594 388.84375 41.816406 389.28125 40.609375 L 391.1875 35.367188 C 391.625 34.167969 391.003906 32.835938 389.800781 32.394531 C 388.597656 31.960938 387.273438 32.582031 386.835938 33.78125"/><path d="M 414.371094 20.839844 L 382.753906 34.804688 C 381.582031 35.320312 381.054688 36.6875 381.574219 37.863281 C 382.089844 39.035156 383.457031 39.5625 384.625 39.046875 L 416.238281 25.082031 C 417.410156 24.566406 417.9375 23.195312 417.421875 22.023438 C 416.902344 20.851562 415.539062 20.324219 414.371094 20.839844"/><path d="M 406.300781 37.019531 L 406.988281 42.554688 C 407.144531 43.824219 408.304688 44.726562 409.574219 44.566406 C 410.847656 44.410156 411.742188 43.25 411.582031 41.984375 L 410.894531 36.449219 C 410.738281 35.175781 409.578125 34.273438 408.3125 34.433594 C 407.042969 34.59375 406.140625 35.75 406.300781 37.019531"/><path d="M 408.976562 39.019531 L 414.472656 38.101562 C 415.734375 37.894531 416.585938 36.699219 416.375 35.433594 C 416.167969 34.171875 414.972656 33.320312 413.710938 33.527344 L 408.21875 34.445312 C 406.957031 34.65625 406.105469 35.851562 406.3125 37.113281 C 406.523438 38.378906 407.714844 39.230469 408.976562 39.019531"/><path d="M 392.605469 22.800781 L 391.914062 17.265625 C 391.757812 15.992188 390.597656 15.09375 389.332031 15.25 C 388.058594 15.410156 387.160156 16.566406 387.320312 17.835938 L 388.011719 23.375 C 388.164062 24.644531 389.324219 25.542969 390.59375 25.386719 C 391.859375 25.226562 392.765625 24.066406 392.605469 22.800781"/><path d="M 389.925781 20.796875 L 384.429688 21.71875 C 383.164062 21.929688 382.316406 23.125 382.527344 24.382812 C 382.734375 25.648438 383.929688 26.503906 385.191406 26.289062 L 390.6875 25.371094 C 391.949219 25.164062 392.800781 23.96875 392.59375 22.703125 C 392.378906 21.441406 391.1875 20.589844 389.925781 20.796875"/><path d="M 414.730469 38.417969 L 387.027344 17.75 C 386.003906 16.984375 384.550781 17.191406 383.785156 18.222656 C 383.019531 19.25 383.234375 20.703125 384.261719 21.46875 L 411.964844 42.136719 C 412.992188 42.902344 414.4375 42.6875 415.203125 41.664062 C 415.96875 40.636719 415.757812 39.183594 414.730469 38.417969"/><path d="M 546.273438 102.097656 L 550.660156 98.652344 C 551.664062 97.859375 551.839844 96.40625 551.050781 95.398438 C 550.261719 94.390625 548.804688 94.214844 547.796875 95.003906 L 543.414062 98.449219 C 542.410156 99.242188 542.234375 100.695312 543.023438 101.707031 C 543.8125 102.710938 545.269531 102.886719 546.273438 102.097656"/><path d="M 546.605469 98.765625 L 542.988281 94.527344 C 542.15625 93.554688 540.695312 93.441406 539.722656 94.269531 C 538.75 95.101562 538.632812 96.566406 539.464844 97.539062 L 543.082031 101.777344 C 543.914062 102.75 545.375 102.867188 546.347656 102.035156 C 547.320312 101.203125 547.4375 99.738281 546.605469 98.765625"/><path d="M 541.15625 121.171875 L 536.777344 124.621094 C 535.769531 125.40625 535.589844 126.867188 536.382812 127.871094 C 537.171875 128.882812 538.628906 129.058594 539.636719 128.265625 L 544.019531 124.824219 C 545.023438 124.035156 545.199219 122.578125 544.410156 121.566406 C 543.621094 120.5625 542.164062 120.386719 541.15625 121.171875"/><path d="M 540.824219 124.507812 L 544.445312 128.746094 C 545.277344 129.71875 546.738281 129.832031 547.710938 129.003906 C 548.683594 128.171875 548.796875 126.707031 547.96875 125.734375 L 544.347656 121.496094 C 543.515625 120.519531 542.054688 120.402344 541.082031 121.238281 C 540.109375 122.070312 539.992188 123.53125 540.824219 124.507812"/><path d="M 543.128906 94.140625 L 539.707031 128.5625 C 539.582031 129.835938 540.507812 130.972656 541.78125 131.101562 C 543.054688 131.226562 544.191406 130.292969 544.316406 129.023438 L 547.738281 94.601562 C 547.863281 93.324219 546.933594 92.191406 545.660156 92.0625 C 544.386719 91.9375 543.253906 92.867188 543.128906 94.140625"/><path d="M 553.226562 109.136719 L 558.378906 111.261719 C 559.5625 111.75 560.914062 111.183594 561.398438 109.996094 C 561.886719 108.816406 561.324219 107.460938 560.140625 106.972656 L 554.988281 104.847656 C 553.804688 104.363281 552.453125 104.925781 551.964844 106.113281 C 551.480469 107.292969 552.042969 108.648438 553.226562 109.136719"/><path d="M 556.28125 107.789062 L 558.1875 102.546875 C 558.625 101.34375 558.007812 100.011719 556.804688 99.574219 C 555.605469 99.136719 554.273438 99.757812 553.835938 100.957031 L 551.929688 106.203125 C 551.492188 107.402344 552.113281 108.734375 553.316406 109.171875 C 554.515625 109.613281 555.84375 108.988281 556.28125 107.789062"/><path d="M 534.117188 114.066406 L 528.964844 111.949219 C 527.785156 111.460938 526.429688 112.027344 525.941406 113.207031 C 525.453125 114.390625 526.019531 115.75 527.203125 116.234375 L 532.351562 118.355469 C 533.535156 118.847656 534.890625 118.28125 535.378906 117.097656 C 535.863281 115.910156 535.296875 114.558594 534.117188 114.066406"/><path d="M 531.058594 115.421875 L 529.15625 120.660156 C 528.714844 121.867188 529.335938 123.199219 530.539062 123.632812 C 531.742188 124.070312 533.070312 123.453125 533.507812 122.246094 L 535.410156 117.007812 C 535.847656 115.800781 535.230469 114.472656 534.027344 114.035156 C 532.824219 113.597656 531.492188 114.21875 531.058594 115.421875"/><path d="M 558.59375 102.480469 L 526.980469 116.441406 C 525.8125 116.957031 525.277344 118.328125 525.796875 119.496094 C 526.3125 120.671875 527.679688 121.199219 528.851562 120.683594 L 560.464844 106.722656 C 561.632812 106.203125 562.164062 104.835938 561.648438 103.660156 C 561.132812 102.492188 559.761719 101.957031 558.59375 102.480469"/><path d="M 550.523438 118.660156 L 551.210938 124.195312 C 551.371094 125.464844 552.527344 126.363281 553.800781 126.210938 C 555.066406 126.050781 555.964844 124.890625 555.8125 123.617188 L 555.121094 118.085938 C 554.960938 116.8125 553.808594 115.910156 552.539062 116.070312 C 551.265625 116.226562 550.367188 117.386719 550.523438 118.660156"/><path d="M 553.207031 120.65625 L 558.699219 119.742188 C 559.960938 119.53125 560.816406 118.335938 560.601562 117.070312 C 560.390625 115.808594 559.199219 114.957031 557.9375 115.164062 L 552.441406 116.082031 C 551.179688 116.296875 550.328125 117.492188 550.539062 118.753906 C 550.75 120.019531 551.945312 120.871094 553.207031 120.65625"/><path d="M 536.832031 104.4375 L 536.140625 98.902344 C 535.980469 97.628906 534.824219 96.734375 533.554688 96.886719 C 532.285156 97.046875 531.382812 98.203125 531.542969 99.476562 L 532.234375 105.011719 C 532.394531 106.285156 533.550781 107.183594 534.816406 107.027344 C 536.089844 106.867188 536.988281 105.707031 536.832031 104.4375"/><path d="M 534.148438 102.4375 L 528.65625 103.359375 C 527.394531 103.566406 526.542969 104.761719 526.753906 106.027344 C 526.960938 107.289062 528.15625 108.140625 529.417969 107.933594 L 534.914062 107.011719 C 536.175781 106.800781 537.027344 105.605469 536.816406 104.339844 C 536.605469 103.082031 535.410156 102.226562 534.148438 102.4375"/><path d="M 558.957031 120.058594 L 531.253906 99.386719 C 530.226562 98.621094 528.773438 98.835938 528.011719 99.859375 C 527.246094 100.886719 527.457031 102.339844 528.484375 103.105469 L 556.191406 123.777344 C 557.214844 124.539062 558.667969 124.328125 559.429688 123.300781 C 560.195312 122.273438 559.984375 120.820312 558.957031 120.058594"/></svg>