<svg xmlns="http://www.w3.org/2000/svg" width="810" viewBox="0 0 810 810" height="810" version="1.0"><path fill="#F33" d="M 408.941406 306.046875 C 408.941406 306.046875 468.914062 79.792969 591.691406 184.175781 C 591.691406 184.175781 697.488281 275.40625 558.921875 306.046875 L 408.941406 306.046875"/><path d="M 408.941406 306.046875 L 419.175781 308.765625 L 419.183594 308.691406 C 419.433594 307.78125 422.058594 298.15625 427.0625 284.300781 C 434.527344 263.539062 447.449219 233.25 465.160156 208.929688 C 473.988281 196.761719 483.988281 186.140625 494.738281 178.78125 C 500.113281 175.097656 505.65625 172.222656 511.382812 170.257812 C 517.109375 168.304688 523.015625 167.25 529.25 167.25 C 537.042969 167.261719 545.429688 168.894531 554.679688 172.824219 C 563.914062 176.753906 573.992188 183.019531 584.839844 192.253906 L 584.785156 192.203125 L 585.488281 191.375 L 584.777344 192.191406 L 584.785156 192.203125 L 585.488281 191.375 L 584.777344 192.191406 C 585.035156 192.40625 594.246094 200.484375 603.066406 212.003906 C 607.46875 217.75 611.761719 224.339844 614.839844 231.050781 C 617.933594 237.757812 619.75 244.5 619.742188 250.613281 C 619.730469 254.695312 618.988281 258.511719 617.25 262.316406 C 615.945312 265.171875 614.054688 268.054688 611.285156 271.003906 C 607.140625 275.40625 600.964844 279.957031 592.023438 284.21875 C 583.101562 288.488281 571.449219 292.4375 556.625 295.714844 L 558.921875 306.046875 L 558.921875 295.457031 L 408.941406 295.457031 L 408.941406 306.046875 L 419.175781 308.765625 L 408.941406 306.046875 L 408.941406 316.632812 L 558.921875 316.632812 C 559.683594 316.632812 560.449219 316.550781 561.195312 316.386719 C 575.453125 313.242188 587.414062 309.4375 597.460938 305.023438 C 605.007812 301.703125 611.46875 298.042969 616.980469 294.019531 C 625.230469 288.011719 631.332031 281.117188 635.269531 273.628906 C 639.230469 266.164062 640.925781 258.222656 640.914062 250.613281 C 640.894531 240.25 637.949219 230.542969 633.882812 221.792969 C 627.753906 208.671875 619.027344 197.503906 611.8125 189.410156 C 604.59375 181.332031 598.859375 176.382812 598.609375 176.164062 L 598.558594 176.113281 C 586.390625 165.773438 574.550781 158.277344 562.972656 153.34375 C 551.402344 148.410156 540.074219 146.074219 529.25 146.074219 C 517.515625 146.0625 506.472656 148.824219 496.453125 153.476562 C 478.878906 161.65625 464.363281 175.386719 452.183594 190.972656 C 433.929688 214.378906 420.765625 242.277344 411.9375 264.449219 C 403.140625 286.617188 398.777344 303.046875 398.703125 303.335938 C 397.855469 306.519531 398.539062 309.902344 400.542969 312.507812 C 402.550781 315.113281 405.652344 316.632812 408.941406 316.632812 L 408.941406 306.046875"/><path fill="#F33" d="M 408.941406 306.046875 C 408.941406 306.046875 348.957031 79.792969 226.164062 184.175781 C 226.164062 184.175781 120.382812 275.40625 258.960938 306.046875 L 408.941406 306.046875"/><path d="M 408.941406 306.046875 L 419.175781 303.335938 C 419.113281 303.121094 416.558594 293.523438 411.460938 279.160156 C 403.792969 257.613281 390.496094 225.394531 370.769531 197.773438 C 360.875 183.960938 349.359375 171.253906 335.742188 161.761719 C 328.941406 157.023438 321.601562 153.09375 313.710938 150.355469 C 305.832031 147.613281 297.40625 146.074219 288.621094 146.074219 C 277.796875 146.074219 266.464844 148.410156 254.894531 153.34375 C 243.316406 158.277344 231.480469 165.773438 219.3125 176.113281 L 219.257812 176.164062 C 218.929688 176.453125 208.839844 185.140625 198.488281 198.488281 C 193.308594 205.179688 188.058594 213.035156 183.984375 221.792969 C 179.921875 230.542969 176.976562 240.25 176.953125 250.613281 C 176.945312 257.375 178.277344 264.40625 181.359375 271.128906 C 183.664062 276.171875 186.941406 281.023438 191.167969 285.511719 C 197.519531 292.25 205.953125 298.1875 216.726562 303.335938 C 227.5 308.476562 240.640625 312.839844 256.664062 316.386719 C 257.417969 316.550781 258.183594 316.632812 258.960938 316.632812 L 408.941406 316.632812 C 412.226562 316.632812 415.320312 315.113281 417.324219 312.507812 C 419.328125 309.902344 420.011719 306.519531 419.175781 303.335938 L 408.941406 306.046875 L 408.941406 295.457031 L 258.960938 295.457031 L 258.960938 306.046875 L 261.234375 295.714844 C 248.0625 292.800781 237.394531 289.355469 228.914062 285.625 C 222.558594 282.832031 217.441406 279.886719 213.375 276.917969 C 207.277344 272.460938 203.585938 268.023438 201.320312 263.746094 C 199.070312 259.453125 198.148438 255.203125 198.128906 250.613281 C 198.117188 244.410156 200 237.542969 203.171875 230.726562 C 207.917969 220.503906 215.476562 210.628906 221.84375 203.523438 C 225.027344 199.957031 227.890625 197.070312 229.9375 195.105469 C 230.960938 194.125 231.78125 193.371094 232.328125 192.875 C 232.597656 192.625 232.804688 192.449219 232.9375 192.335938 L 233.070312 192.210938 L 233.09375 192.191406 L 230.902344 189.667969 L 233.082031 192.203125 L 233.09375 192.191406 L 230.902344 189.667969 L 233.082031 192.203125 L 233.03125 192.253906 C 243.875 183.019531 253.957031 176.753906 263.1875 172.824219 C 272.441406 168.894531 280.816406 167.261719 288.621094 167.25 C 297.066406 167.261719 304.914062 169.175781 312.503906 172.691406 C 325.765625 178.800781 338.164062 190.09375 348.996094 204 C 365.289062 224.824219 377.914062 251.210938 386.257812 272.265625 C 390.433594 282.789062 393.566406 291.992188 395.644531 298.519531 C 396.6875 301.785156 397.453125 304.378906 397.96875 306.136719 C 398.21875 307.027344 398.414062 307.699219 398.527344 308.144531 L 398.671875 308.628906 L 398.695312 308.746094 L 398.703125 308.765625 L 408.941406 306.046875 L 408.941406 295.457031 L 408.941406 306.046875"/><path fill="#F33" d="M 357.960938 328.050781 C 357.960938 328.050781 298.410156 258.675781 400.027344 258.316406 C 494.882812 257.972656 464.632812 315.828125 445.339844 328.050781 L 357.960938 328.050781"/><path d="M 357.960938 328.050781 L 365.992188 321.152344 L 365.960938 321.183594 L 365.992188 321.152344 L 365.960938 321.183594 L 365.992188 321.152344 C 365.753906 320.875 361.765625 316.097656 358.0625 309.644531 C 356.203125 306.417969 354.425781 302.789062 353.175781 299.199219 C 351.902344 295.621094 351.199219 292.117188 351.210938 289.191406 C 351.21875 286.597656 351.695312 284.515625 352.6875 282.613281 C 353.453125 281.1875 354.527344 279.78125 356.359375 278.292969 C 359.078125 276.058594 363.605469 273.679688 370.757812 271.902344 C 377.882812 270.101562 387.539062 268.945312 400.070312 268.902344 C 400.328125 268.902344 400.585938 268.902344 400.855469 268.902344 C 412.785156 268.902344 422.378906 269.886719 429.875 271.488281 C 435.5 272.6875 439.933594 274.238281 443.335938 275.902344 C 448.464844 278.425781 451.191406 281.105469 452.816406 283.597656 C 454.410156 286.109375 455.070312 288.664062 455.089844 291.777344 C 455.101562 294.183594 454.625 296.882812 453.714844 299.65625 C 452.351562 303.824219 449.972656 308.101562 447.296875 311.628906 C 444.636719 315.15625 441.589844 317.925781 439.675781 319.105469 L 445.339844 328.050781 L 445.339844 317.460938 L 357.960938 317.460938 L 357.960938 328.050781 L 365.992188 321.152344 L 357.960938 328.050781 L 357.960938 338.636719 L 445.339844 338.636719 C 447.347656 338.636719 449.300781 338.078125 451.007812 336.992188 C 454.234375 334.945312 457.199219 332.351562 460.042969 329.3125 C 464.292969 324.761719 468.191406 319.199219 471.1875 312.871094 C 474.15625 306.542969 476.253906 299.417969 476.265625 291.777344 C 476.273438 285.984375 474.980469 279.863281 471.859375 274.21875 C 469.535156 269.988281 466.234375 266.089844 462.078125 262.78125 C 455.824219 257.796875 447.769531 254.085938 437.730469 251.574219 C 427.671875 249.0625 415.566406 247.726562 400.855469 247.726562 C 400.566406 247.726562 400.277344 247.726562 399.996094 247.726562 C 387.746094 247.769531 377.488281 248.761719 368.796875 250.613281 C 362.28125 252.007812 356.648438 253.890625 351.746094 256.308594 C 344.425781 259.90625 338.730469 264.859375 335.09375 270.753906 C 333.28125 273.691406 331.992188 276.804688 331.183594 279.925781 C 330.378906 283.050781 330.035156 286.171875 330.035156 289.191406 C 330.046875 295.507812 331.464844 301.390625 333.375 306.71875 C 336.261719 314.722656 340.332031 321.566406 343.695312 326.582031 C 347.054688 331.585938 349.730469 334.71875 349.925781 334.945312 C 351.953125 337.304688 354.859375 338.636719 357.960938 338.636719 L 357.960938 328.050781"/><path fill="#FFF" d="M 677.6875 765.125 C 677.6875 784.148438 662.925781 799.578125 644.71875 799.578125 L 156.949219 799.578125 C 138.742188 799.578125 123.980469 784.148438 123.980469 765.125 L 123.980469 340.507812 C 123.980469 321.472656 138.742188 306.046875 156.949219 306.046875 L 644.71875 306.046875 C 662.925781 306.046875 677.6875 321.472656 677.6875 340.507812 L 677.6875 765.125"/><path d="M 677.6875 765.125 L 667.101562 765.125 C 667.101562 771.875 664.496094 777.863281 660.382812 782.164062 C 656.246094 786.464844 650.789062 788.988281 644.71875 788.988281 L 156.949219 788.988281 C 150.871094 788.988281 145.421875 786.464844 141.285156 782.164062 C 137.171875 777.863281 134.566406 771.886719 134.566406 765.125 L 134.566406 340.507812 C 134.566406 333.757812 137.171875 327.769531 141.285156 323.457031 C 145.421875 319.167969 150.871094 316.644531 156.949219 316.632812 L 644.71875 316.632812 C 650.789062 316.644531 656.246094 319.167969 660.382812 323.46875 C 664.496094 327.769531 667.101562 333.757812 667.101562 340.507812 L 667.101562 765.125 L 688.273438 765.125 L 688.273438 340.507812 C 688.273438 328.234375 683.5 316.984375 675.683594 308.816406 C 667.886719 300.648438 656.847656 295.457031 644.71875 295.457031 L 156.949219 295.457031 C 144.8125 295.457031 133.78125 300.648438 125.984375 308.816406 C 118.160156 316.996094 113.394531 328.234375 113.394531 340.507812 L 113.394531 765.125 C 113.394531 777.398438 118.160156 788.648438 125.984375 796.804688 C 133.78125 804.984375 144.8125 810.175781 156.949219 810.164062 L 644.71875 810.164062 C 656.847656 810.175781 667.886719 804.984375 675.683594 796.804688 C 683.5 788.648438 688.273438 777.398438 688.273438 765.125 L 677.6875 765.125"/><path fill="#FFF" d="M 98.445312 424.242188 L 703.226562 424.242188 L 703.226562 304.328125 L 98.445312 304.328125 Z M 98.445312 424.242188"/><path d="M 703.226562 424.242188 L 703.226562 413.65625 L 109.03125 413.65625 L 109.03125 314.917969 L 692.636719 314.917969 L 692.636719 424.242188 L 703.226562 424.242188 L 703.226562 413.65625 L 703.226562 424.242188 L 713.8125 424.242188 L 713.8125 304.328125 C 713.8125 301.539062 712.683594 298.816406 710.710938 296.84375 C 708.734375 294.867188 706.015625 293.742188 703.226562 293.742188 L 98.445312 293.742188 C 95.664062 293.742188 92.933594 294.867188 90.957031 296.84375 C 88.984375 298.816406 87.855469 301.539062 87.855469 304.328125 L 87.855469 424.242188 C 87.855469 427.035156 88.984375 429.765625 90.957031 431.738281 C 92.933594 433.703125 95.664062 434.832031 98.445312 434.832031 L 703.226562 434.832031 C 706.015625 434.832031 708.734375 433.703125 710.710938 431.738281 C 712.683594 429.765625 713.8125 427.035156 713.8125 424.242188 L 703.226562 424.242188"/><path fill="#43B36E" d="M 622.875 788.988281 L 156.949219 788.988281 C 150.871094 788.988281 145.421875 786.464844 141.285156 782.164062 C 137.171875 777.863281 134.566406 771.886719 134.566406 765.125 L 134.566406 434.832031 L 630.804688 434.832031 C 631.03125 444.914062 631.257812 454.972656 631.660156 464.972656 C 634.359375 532.441406 631.539062 599.941406 631.195312 667.421875 C 631.042969 698.84375 632.21875 730.269531 631.507812 761.679688 C 631.394531 766.550781 631.484375 771.597656 630.605469 776.375 C 630.183594 778.402344 629.605469 780.386719 628.878906 782.328125 C 629.054688 781.8125 629.054688 781.617188 628.964844 781.617188 C 628.808594 781.617188 628.40625 782.152344 628.054688 782.691406 C 627.710938 783.21875 627.433594 783.757812 627.535156 783.757812 C 627.566406 783.757812 627.671875 783.683594 627.835938 783.5 C 626.265625 785.378906 624.601562 787.210938 622.875 788.988281"/><path d="M 611.820312 799.578125 L 156.949219 799.578125 C 138.742188 799.578125 123.980469 784.148438 123.980469 765.125 L 123.980469 434.832031 L 134.566406 434.832031 L 134.566406 765.125 C 134.566406 771.886719 137.171875 777.863281 141.285156 782.164062 C 145.421875 786.464844 150.871094 788.988281 156.949219 788.988281 L 622.875 788.988281 C 619.347656 792.640625 615.566406 796.125 611.820312 799.578125"/><path fill="#43B36E" d="M 630.308594 413.65625 L 109.03125 413.65625 L 109.03125 314.917969 L 623.578125 314.917969 C 627.628906 330.367188 626.875 358.046875 627.824219 368.210938 C 629.230469 383.246094 629.882812 398.445312 630.308594 413.65625"/><path d="M 630.804688 434.832031 L 123.980469 434.832031 L 123.980469 422.207031 L 99.445312 420.355469 L 99.445312 315 C 99.445312 305.757812 108.710938 303.378906 120.332031 303.378906 C 132.632812 303.378906 147.582031 306.046875 156.949219 306.046875 L 594.164062 306.046875 C 595.03125 307.339844 596.035156 308.558594 597.152344 309.683594 C 598.15625 311.390625 599.34375 312.054688 600.65625 312.054688 C 602.890625 312.054688 605.484375 310.160156 608.152344 308.269531 C 610.808594 306.375 613.539062 304.484375 616.039062 304.484375 C 617.375 304.484375 618.636719 305.023438 619.792969 306.398438 C 621.386719 308.289062 622.617188 311.257812 623.578125 314.917969 L 109.03125 314.917969 L 109.03125 413.65625 L 630.308594 413.65625 C 630.503906 420.71875 630.648438 427.777344 630.804688 434.832031"/><path fill="#F33" d="M 468.023438 765.527344 C 468.023438 784.335938 454.90625 799.578125 438.726562 799.578125 L 362.945312 799.578125 C 346.753906 799.578125 333.632812 784.335938 333.632812 765.527344 L 333.632812 340.105469 C 333.632812 321.296875 346.753906 306.046875 362.945312 306.046875 L 438.726562 306.046875 C 454.90625 306.046875 468.023438 321.296875 468.023438 340.105469 L 468.023438 765.527344"/><path d="M 468.023438 765.527344 L 457.4375 765.527344 C 457.449219 772.464844 454.996094 778.554688 451.421875 782.703125 C 449.632812 784.78125 447.59375 786.351562 445.464844 787.40625 C 443.324219 788.453125 441.101562 788.988281 438.726562 788.988281 L 362.945312 788.988281 C 360.554688 788.988281 358.34375 788.453125 356.203125 787.40625 C 353.007812 785.835938 349.988281 783.042969 347.789062 779.25 C 345.585938 775.453125 344.222656 770.726562 344.222656 765.527344 L 344.222656 340.105469 C 344.210938 333.167969 346.660156 327.078125 350.238281 322.929688 C 352.027344 320.863281 354.0625 319.28125 356.203125 318.226562 C 358.34375 317.183594 360.554688 316.644531 362.945312 316.632812 L 438.726562 316.632812 C 441.101562 316.644531 443.324219 317.183594 445.464844 318.226562 C 448.648438 319.796875 451.667969 322.589844 453.871094 326.382812 C 456.074219 330.179688 457.449219 334.90625 457.4375 340.105469 L 457.4375 765.527344 L 478.609375 765.527344 L 478.609375 340.105469 C 478.609375 328.234375 474.496094 317.304688 467.464844 309.117188 C 463.949219 305.03125 459.679688 301.621094 454.800781 299.222656 C 449.933594 296.820312 444.441406 295.457031 438.726562 295.457031 L 362.945312 295.457031 C 357.226562 295.457031 351.738281 296.820312 346.867188 299.222656 C 339.539062 302.828125 333.601562 308.671875 329.488281 315.746094 C 325.375 322.828125 323.046875 331.203125 323.046875 340.105469 L 323.046875 765.527344 C 323.058594 777.398438 327.164062 788.328125 334.191406 796.515625 C 337.707031 800.601562 341.988281 804.011719 346.867188 806.410156 C 351.738281 808.8125 357.226562 810.175781 362.945312 810.164062 L 438.726562 810.164062 C 444.441406 810.175781 449.933594 808.8125 454.800781 806.410156 C 462.121094 802.804688 468.066406 796.960938 472.167969 789.886719 C 476.292969 782.804688 478.609375 774.429688 478.609375 765.527344 L 468.023438 765.527344"/><path fill="#F33" d="M 400.835938 306.046875 C 400.835938 306.046875 265.070312 339 154.789062 536.382812 L 133.976562 445.585938 L 35.308594 465.324219 C 35.308594 465.324219 142.765625 284.941406 400.835938 306.046875"/><path d="M 400.835938 306.046875 L 398.34375 295.757812 C 397.328125 296.003906 362.136719 304.703125 313.152344 338.480469 C 264.179688 372.242188 201.457031 431.117188 145.546875 531.210938 L 154.789062 536.382812 L 165.105469 534.011719 L 144.296875 443.21875 C 143.011719 437.644531 137.503906 434.078125 131.898438 435.203125 L 33.230469 454.941406 L 35.308594 465.324219 L 44.394531 470.742188 L 42.410156 469.554688 L 44.394531 470.753906 L 44.394531 470.742188 L 42.410156 469.554688 L 44.394531 470.753906 C 44.652344 470.289062 68.359375 431.109375 119.421875 392.3125 C 144.957031 372.90625 177.316406 353.570312 217.089844 339.082031 C 256.859375 324.59375 304.046875 314.925781 359.40625 314.917969 C 372.464844 314.917969 385.988281 315.464844 399.964844 316.601562 L 400.835938 306.046875 L 398.34375 295.757812 L 400.835938 306.046875 L 401.691406 295.5 C 387.144531 294.308594 373.054688 293.742188 359.40625 293.742188 C 301.109375 293.742188 251.039062 304.039062 208.847656 319.550781 C 145.535156 342.816406 99.996094 377.703125 70.273438 406.820312 C 40.546875 435.949219 26.558594 459.316406 26.207031 459.90625 C 24.070312 463.503906 24.246094 468.023438 26.664062 471.433594 C 29.074219 474.859375 33.28125 476.523438 37.386719 475.707031 L 125.953125 457.984375 L 144.472656 538.738281 C 145.453125 543.007812 148.957031 546.234375 153.289062 546.855469 C 157.632812 547.476562 161.902344 545.367188 164.03125 541.539062 C 218.402344 444.261719 278.707031 387.96875 325.175781 355.914062 C 348.417969 339.886719 368.195312 329.941406 382.058594 324.015625 C 388.988281 321.058594 394.425781 319.117188 398.085938 317.914062 C 399.902344 317.316406 401.277344 316.914062 402.167969 316.65625 C 402.613281 316.53125 402.933594 316.449219 403.128906 316.394531 L 403.324219 316.34375 L 403.335938 316.34375 C 408.390625 315.113281 411.792969 310.417969 411.390625 305.21875 C 410.976562 300.027344 406.894531 295.921875 401.691406 295.5 L 400.835938 306.046875"/><path fill="#F33" d="M 408.941406 306.046875 C 408.941406 306.046875 544.695312 339 654.976562 536.382812 L 675.796875 445.585938 L 774.457031 465.324219 C 774.457031 465.324219 667 284.941406 408.941406 306.046875"/><path d="M 408.941406 306.046875 L 406.4375 316.34375 C 407.503906 316.613281 440.617188 325.144531 486.777344 357.4375 C 532.9375 389.75 592.21875 445.78125 645.730469 541.539062 C 647.871094 545.367188 652.140625 547.476562 656.472656 546.855469 C 660.816406 546.234375 664.320312 543.007812 665.292969 538.738281 L 683.808594 457.984375 L 772.390625 475.707031 C 776.484375 476.523438 780.691406 474.859375 783.109375 471.433594 C 785.519531 468.023438 785.695312 463.492188 783.554688 459.90625 C 783.078125 459.121094 758.390625 417.820312 704.425781 376.421875 C 677.441406 355.738281 643.128906 335.050781 600.925781 319.550781 C 558.722656 304.039062 508.65625 293.742188 450.367188 293.742188 C 436.71875 293.742188 422.628906 294.308594 408.070312 295.5 C 402.882812 295.921875 398.789062 300.027344 398.382812 305.21875 C 397.96875 310.417969 401.382812 315.113281 406.4375 316.34375 L 408.941406 306.046875 L 409.796875 316.601562 C 423.785156 315.464844 437.296875 314.917969 450.367188 314.917969 C 506.164062 314.925781 553.65625 324.75 593.617188 339.421875 C 653.546875 361.449219 696.609375 394.464844 724.675781 421.949219 C 738.707031 435.6875 748.960938 448.035156 755.671875 456.867188 C 759.03125 461.292969 761.503906 464.828125 763.105469 467.238281 C 763.910156 468.4375 764.492188 469.347656 764.871094 469.945312 C 765.058594 470.246094 765.195312 470.464844 765.277344 470.597656 L 765.359375 470.730469 L 765.371094 470.753906 L 769.058594 468.539062 L 765.371094 470.742188 L 765.371094 470.753906 L 769.058594 468.539062 L 765.371094 470.742188 L 774.457031 465.324219 L 776.535156 454.941406 L 677.863281 435.203125 C 672.261719 434.078125 666.75 437.644531 665.480469 443.21875 L 644.65625 534.011719 L 654.976562 536.382812 L 664.21875 531.210938 C 608.308594 431.117188 545.59375 372.242188 496.609375 338.480469 C 447.625 304.703125 412.445312 296.003906 411.429688 295.757812 L 408.941406 306.046875 L 409.796875 316.601562 L 408.941406 306.046875"/><path fill="#FFF" d="M 468.023438 292.6875 C 468.023438 292.6875 513.628906 262.421875 542.574219 266.804688 C 571.523438 271.1875 512.757812 297.070312 468.023438 292.6875"/><path d="M 468.023438 292.6875 L 473.875 301.507812 L 471.570312 298.023438 L 473.875 301.507812 L 471.570312 298.023438 L 473.875 301.507812 C 473.925781 301.476562 483.582031 295.105469 496.394531 288.902344 C 502.78125 285.800781 509.96875 282.738281 517.019531 280.527344 C 524.046875 278.292969 530.945312 276.9375 536.507812 276.957031 C 538.117188 276.957031 539.628906 277.074219 540.992188 277.269531 C 541.945312 277.414062 542.648438 277.578125 543.019531 277.691406 L 543.296875 277.785156 L 543.308594 277.785156 L 545.605469 272.925781 L 541.542969 276.308594 C 542.503906 277.433594 543.195312 277.722656 543.308594 277.785156 L 545.605469 272.925781 L 541.542969 276.308594 L 547.628906 271.242188 L 540.226562 274.03125 C 540.570312 274.964844 541.066406 275.75 541.542969 276.308594 L 547.628906 271.242188 L 540.226562 274.03125 L 547.972656 271.117188 L 539.691406 271.117188 C 539.691406 272.058594 539.867188 273.101562 540.226562 274.03125 L 547.972656 271.117188 L 539.691406 271.117188 L 546.96875 271.117188 L 540.496094 267.671875 C 540.1875 268.273438 539.691406 269.453125 539.691406 271.117188 L 546.96875 271.117188 L 540.496094 267.671875 L 544.527344 269.8125 L 540.859375 267.09375 C 540.777344 267.207031 540.652344 267.382812 540.496094 267.671875 L 544.527344 269.8125 L 540.859375 267.09375 L 542.171875 268.066406 L 540.972656 266.949219 L 540.859375 267.09375 L 542.171875 268.066406 L 540.972656 266.949219 C 540.953125 266.992188 540.269531 267.621094 539.101562 268.355469 C 537.066406 269.679688 533.640625 271.386719 529.414062 273.039062 C 523.054688 275.542969 514.847656 277.972656 506.007812 279.730469 C 497.15625 281.5 487.65625 282.59375 478.652344 282.59375 C 475.363281 282.59375 472.148438 282.449219 469.058594 282.148438 L 468.023438 292.6875 L 473.875 301.507812 L 468.023438 292.6875 L 466.988281 303.222656 C 470.847656 303.59375 474.742188 303.769531 478.652344 303.769531 C 497.1875 303.75 515.921875 299.984375 530.613281 295.117188 C 537.972656 292.65625 544.28125 289.957031 549.347656 286.925781 C 551.890625 285.375 554.144531 283.792969 556.230469 281.632812 C 557.277344 280.546875 558.300781 279.285156 559.199219 277.609375 C 560.078125 275.957031 560.863281 273.753906 560.863281 271.117188 C 560.863281 269.804688 560.65625 268.429688 560.234375 267.136719 C 559.507812 264.851562 558.15625 262.957031 556.769531 261.636719 C 554.648438 259.640625 552.550781 258.636719 550.523438 257.882812 C 548.476562 257.136719 546.421875 256.683594 544.167969 256.339844 C 541.613281 255.949219 539.058594 255.78125 536.507812 255.78125 C 527.6875 255.804688 518.890625 257.714844 510.441406 260.394531 C 497.789062 264.417969 485.898438 270.238281 477.027344 275.054688 C 468.167969 279.886719 462.359375 283.742188 462.171875 283.855469 C 458.441406 286.335938 456.671875 290.898438 457.746094 295.238281 C 458.832031 299.582031 462.535156 302.789062 466.988281 303.222656 L 468.023438 292.6875"/><path fill="#FFF" d="M 336.375 292.6875 C 336.375 292.6875 290.761719 262.421875 261.8125 266.804688 C 232.875 271.1875 291.640625 297.070312 336.375 292.6875"/><path d="M 336.375 292.6875 L 342.226562 283.855469 C 341.96875 283.699219 331.742188 276.90625 317.566406 270.011719 C 310.476562 266.558594 302.390625 263.070312 293.953125 260.394531 C 285.5 257.714844 276.699219 255.804688 267.890625 255.78125 C 265.339844 255.78125 262.773438 255.949219 260.230469 256.339844 C 258.515625 256.597656 256.902344 256.929688 255.339844 257.394531 C 254.164062 257.746094 253.003906 258.171875 251.816406 258.75 C 250.066406 259.609375 248.175781 260.808594 246.460938 262.90625 C 245.613281 263.949219 244.847656 265.222656 244.320312 266.648438 C 243.792969 268.078125 243.523438 269.636719 243.523438 271.117188 C 243.535156 273.753906 244.308594 275.957031 245.1875 277.609375 C 246.035156 279.183594 246.988281 280.382812 247.960938 281.425781 C 249.800781 283.371094 251.742188 284.816406 253.902344 286.214844 C 257.675781 288.613281 262.144531 290.753906 267.300781 292.777344 C 275.023438 295.796875 284.269531 298.507812 294.277344 300.503906 C 304.292969 302.488281 315.046875 303.769531 325.746094 303.769531 C 329.652344 303.769531 333.550781 303.59375 337.398438 303.222656 C 341.851562 302.789062 345.566406 299.582031 346.640625 295.238281 C 347.726562 290.898438 345.945312 286.335938 342.226562 283.855469 L 336.375 292.6875 L 335.339844 282.148438 C 332.238281 282.449219 329.023438 282.59375 325.746094 282.59375 C 310.144531 282.613281 293.054688 279.234375 280.472656 275.023438 C 274.1875 272.945312 268.988281 270.609375 265.957031 268.769531 C 264.460938 267.878906 263.507812 267.074219 263.425781 266.960938 L 263.414062 266.949219 L 260.695312 269.429688 L 263.953125 267.796875 C 263.632812 267.167969 263.414062 266.960938 263.414062 266.949219 L 260.695312 269.429688 L 263.953125 267.796875 L 257.347656 271.117188 L 264.695312 271.117188 C 264.695312 269.554688 264.261719 268.417969 263.953125 267.796875 L 257.347656 271.117188 L 264.695312 271.117188 L 256.414062 271.117188 L 264.292969 273.671875 C 264.5625 272.832031 264.707031 271.933594 264.695312 271.117188 L 256.414062 271.117188 L 264.292969 273.671875 L 256.914062 271.273438 L 262.320312 276.875 C 262.960938 276.265625 263.816406 275.140625 264.292969 273.671875 L 256.914062 271.273438 L 262.320312 276.875 L 258.578125 273 L 261.253906 277.703125 C 261.449219 277.578125 261.832031 277.351562 262.320312 276.875 L 258.578125 273 L 261.253906 277.703125 L 259.972656 275.449219 L 261.089844 277.785156 L 261.253906 277.703125 L 259.972656 275.449219 L 261.089844 277.785156 L 260.808594 277.207031 L 261.058594 277.796875 L 261.089844 277.785156 L 260.808594 277.207031 L 261.058594 277.796875 C 261.109375 277.765625 261.957031 277.484375 263.40625 277.269531 C 264.757812 277.074219 266.269531 276.957031 267.890625 276.957031 C 273.484375 276.9375 280.453125 278.3125 287.546875 280.578125 C 298.203125 283.949219 309.132812 289.234375 317.238281 293.65625 C 321.300781 295.871094 324.660156 297.855469 326.996094 299.28125 C 328.15625 299.996094 329.054688 300.566406 329.664062 300.957031 C 329.964844 301.144531 330.191406 301.289062 330.335938 301.382812 L 330.480469 301.484375 L 330.523438 301.507812 L 330.957031 300.835938 L 330.511719 301.507812 L 330.523438 301.507812 L 330.957031 300.835938 L 330.511719 301.507812 L 336.375 292.6875 L 335.339844 282.148438 L 336.375 292.6875"/><path d="M 576.070312 510.664062 L 586.058594 502.828125 C 588.355469 501.027344 588.746094 497.710938 586.949219 495.414062 C 585.148438 493.128906 581.832031 492.726562 579.546875 494.523438 L 569.558594 502.363281 C 567.261719 504.160156 566.871094 507.480469 568.667969 509.777344 C 570.46875 512.070312 573.785156 512.464844 576.070312 510.664062"/><path d="M 576.828125 503.085938 L 568.578125 493.4375 C 566.683594 491.214844 563.355469 490.957031 561.144531 492.847656 C 558.929688 494.75 558.660156 498.082031 560.5625 500.292969 L 568.804688 509.941406 C 570.695312 512.164062 574.035156 512.421875 576.246094 510.53125 C 578.460938 508.636719 578.71875 505.296875 576.828125 503.085938"/><path d="M 564.410156 554.105469 L 554.421875 561.941406 C 552.128906 563.742188 551.734375 567.058594 553.535156 569.355469 C 555.332031 571.640625 558.652344 572.042969 560.9375 570.246094 L 570.933594 562.40625 C 573.226562 560.609375 573.621094 557.289062 571.824219 554.992188 C 570.023438 552.699219 566.703125 552.304688 564.410156 554.105469"/><path d="M 563.65625 561.683594 L 571.90625 571.339844 C 573.796875 573.554688 577.125 573.8125 579.339844 571.917969 C 581.5625 570.027344 581.820312 566.699219 579.929688 564.476562 L 571.6875 554.828125 C 569.785156 552.605469 566.457031 552.347656 564.246094 554.238281 C 562.03125 556.128906 561.761719 559.460938 563.65625 561.683594"/><path d="M 568.898438 492.558594 L 561.113281 570.917969 C 560.824219 573.8125 562.929688 576.40625 565.835938 576.6875 C 568.742188 576.976562 571.316406 574.867188 571.605469 571.960938 L 579.402344 493.605469 C 579.691406 490.699219 577.570312 488.113281 574.675781 487.824219 C 571.769531 487.535156 569.1875 489.652344 568.898438 492.558594"/><path d="M 591.910156 526.703125 L 603.644531 531.53125 C 606.34375 532.636719 609.433594 531.355469 610.539062 528.65625 C 611.644531 525.957031 610.363281 522.875 607.664062 521.769531 L 595.921875 516.929688 C 593.234375 515.824219 590.140625 517.117188 589.035156 519.804688 C 587.929688 522.503906 589.210938 525.585938 591.910156 526.703125"/><path d="M 598.878906 523.621094 L 603.21875 511.6875 C 604.214844 508.949219 602.808594 505.929688 600.066406 504.925781 C 597.328125 503.933594 594.296875 505.339844 593.304688 508.082031 L 588.964844 520.011719 C 587.960938 522.753906 589.378906 525.78125 592.117188 526.773438 C 594.855469 527.777344 597.875 526.363281 598.878906 523.621094"/><path d="M 548.363281 537.933594 L 536.628906 533.09375 C 533.933594 531.988281 530.851562 533.269531 529.734375 535.96875 C 528.628906 538.65625 529.910156 541.746094 532.609375 542.855469 L 544.351562 547.683594 C 547.042969 548.800781 550.132812 547.515625 551.238281 544.820312 C 552.34375 542.121094 551.0625 539.039062 548.363281 537.933594"/><path d="M 541.394531 541.003906 L 537.054688 552.933594 C 536.050781 555.675781 537.46875 558.695312 540.207031 559.699219 C 542.945312 560.691406 545.976562 559.285156 546.96875 556.542969 L 551.320312 544.613281 C 552.3125 541.871094 550.90625 538.84375 548.167969 537.847656 C 545.429688 536.847656 542.398438 538.261719 541.394531 541.003906"/><path d="M 604.140625 511.535156 L 532.101562 543.328125 C 529.433594 544.496094 528.234375 547.621094 529.402344 550.289062 C 530.582031 552.957031 533.703125 554.164062 536.363281 552.988281 L 608.398438 521.191406 C 611.066406 520.011719 612.277344 516.898438 611.097656 514.234375 C 609.917969 511.566406 606.808594 510.355469 604.140625 511.535156"/><path d="M 585.757812 548.375 L 587.332031 560.96875 C 587.691406 563.863281 590.328125 565.914062 593.210938 565.550781 C 596.109375 565.199219 598.164062 562.5625 597.804688 559.667969 L 596.230469 547.0625 C 595.871094 544.167969 593.234375 542.121094 590.339844 542.480469 C 587.445312 542.84375 585.398438 545.480469 585.757812 548.375"/><path d="M 591.859375 552.925781 L 604.378906 550.835938 C 607.253906 550.351562 609.195312 547.632812 608.710938 544.757812 C 608.234375 541.882812 605.515625 539.9375 602.640625 540.425781 L 590.121094 542.511719 C 587.246094 543 585.304688 545.707031 585.789062 548.59375 C 586.265625 551.46875 588.984375 553.402344 591.859375 552.925781"/><path d="M 554.546875 516 L 552.976562 503.394531 C 552.613281 500.5 549.976562 498.453125 547.09375 498.816406 C 544.199219 499.175781 542.140625 501.8125 542.503906 504.710938 L 544.074219 517.304688 C 544.4375 520.199219 547.070312 522.257812 549.96875 521.882812 C 552.863281 521.53125 554.910156 518.894531 554.546875 516"/><path d="M 548.445312 511.449219 L 535.917969 513.539062 C 533.042969 514.015625 531.109375 516.734375 531.585938 519.609375 C 532.0625 522.484375 534.78125 524.429688 537.664062 523.953125 L 550.183594 521.851562 C 553.058594 521.378906 555 518.65625 554.515625 515.785156 C 554.039062 512.910156 551.320312 510.964844 548.445312 511.449219"/><path d="M 604.96875 551.558594 L 541.851562 504.503906 C 539.515625 502.753906 536.207031 503.242188 534.460938 505.578125 C 532.722656 507.914062 533.199219 511.222656 535.535156 512.960938 L 598.660156 560.019531 C 600.996094 561.765625 604.304688 561.28125 606.042969 558.941406 C 607.789062 556.605469 607.304688 553.296875 604.96875 551.558594"/><path d="M 236.285156 510.664062 L 246.273438 502.828125 C 248.570312 501.027344 248.960938 497.710938 247.164062 495.414062 C 245.363281 493.128906 242.046875 492.726562 239.761719 494.523438 L 229.773438 502.363281 C 227.480469 504.160156 227.085938 507.480469 228.882812 509.777344 C 230.683594 512.070312 234.003906 512.464844 236.285156 510.664062"/><path d="M 237.042969 503.085938 L 228.792969 493.4375 C 226.898438 491.214844 223.570312 490.957031 221.359375 492.847656 C 219.144531 494.75 218.875 498.082031 220.769531 500.292969 L 229.019531 509.941406 C 230.910156 512.164062 234.25 512.421875 236.460938 510.53125 C 238.675781 508.636719 238.933594 505.296875 237.042969 503.085938"/><path d="M 224.625 554.105469 L 214.636719 561.941406 C 212.351562 563.742188 211.949219 567.058594 213.75 569.355469 C 215.546875 571.640625 218.867188 572.042969 221.160156 570.246094 L 231.148438 562.40625 C 233.445312 560.609375 233.835938 557.289062 232.039062 554.992188 C 230.238281 552.699219 226.921875 552.304688 224.625 554.105469"/><path d="M 223.878906 561.683594 L 232.121094 571.339844 C 234.011719 573.554688 237.339844 573.8125 239.554688 571.917969 C 241.777344 570.027344 242.035156 566.699219 240.144531 564.476562 L 231.902344 554.828125 C 230.011719 552.605469 226.683594 552.347656 224.460938 554.238281 C 222.246094 556.128906 221.976562 559.460938 223.878906 561.683594"/><path d="M 229.113281 492.558594 L 221.328125 570.917969 C 221.039062 573.8125 223.15625 576.40625 226.050781 576.6875 C 228.957031 576.976562 231.542969 574.867188 231.832031 571.960938 L 239.617188 493.605469 C 239.90625 490.699219 237.796875 488.113281 234.890625 487.824219 C 231.984375 487.535156 229.402344 489.652344 229.113281 492.558594"/><path d="M 252.125 526.703125 L 263.859375 531.53125 C 266.558594 532.636719 269.648438 531.355469 270.753906 528.65625 C 271.863281 525.957031 270.578125 522.875 267.882812 521.769531 L 256.136719 516.929688 C 253.449219 515.824219 250.359375 517.117188 249.25 519.804688 C 248.144531 522.503906 249.425781 525.585938 252.125 526.703125"/><path d="M 259.09375 523.621094 L 263.4375 511.6875 C 264.429688 508.949219 263.023438 505.929688 260.28125 504.925781 C 257.542969 503.933594 254.515625 505.339844 253.511719 508.082031 L 249.179688 520.011719 C 248.175781 522.753906 249.59375 525.78125 252.332031 526.773438 C 255.0625 527.777344 258.089844 526.363281 259.09375 523.621094"/><path d="M 208.589844 537.933594 L 196.84375 533.09375 C 194.148438 531.988281 191.066406 533.269531 189.960938 535.96875 C 188.84375 538.65625 190.136719 541.746094 192.824219 542.855469 L 204.570312 547.683594 C 207.265625 548.800781 210.347656 547.515625 211.464844 544.820312 C 212.570312 542.121094 211.277344 539.039062 208.589844 537.933594"/><path d="M 201.621094 541.003906 L 197.269531 552.933594 C 196.277344 555.675781 197.695312 558.695312 200.433594 559.699219 C 203.164062 560.691406 206.191406 559.285156 207.195312 556.542969 L 211.535156 544.613281 C 212.539062 541.871094 211.125 538.84375 208.382812 537.847656 C 205.644531 536.847656 202.613281 538.261719 201.621094 541.003906"/><path d="M 264.355469 511.535156 L 192.328125 543.328125 C 189.660156 544.496094 188.449219 547.621094 189.628906 550.289062 C 190.808594 552.957031 193.917969 554.164062 196.585938 552.988281 L 268.617188 521.191406 C 271.28125 520.011719 272.492188 516.898438 271.3125 514.234375 C 270.136719 511.566406 267.023438 510.355469 264.355469 511.535156"/><path d="M 245.972656 548.375 L 247.546875 560.96875 C 247.90625 563.863281 250.542969 565.914062 253.4375 565.550781 C 256.324219 565.199219 258.378906 562.5625 258.019531 559.667969 L 256.445312 547.0625 C 256.085938 544.167969 253.449219 542.121094 250.554688 542.480469 C 247.660156 542.84375 245.613281 545.480469 245.972656 548.375"/><path d="M 252.085938 552.925781 L 264.59375 550.835938 C 267.46875 550.351562 269.410156 547.632812 268.9375 544.757812 C 268.449219 541.882812 265.730469 539.9375 262.855469 540.425781 L 250.335938 542.511719 C 247.460938 543 245.53125 545.707031 246.003906 548.59375 C 246.492188 551.46875 249.199219 553.402344 252.085938 552.925781"/><path d="M 214.773438 516 L 213.199219 503.394531 C 212.839844 500.5 210.203125 498.453125 207.308594 498.816406 C 204.414062 499.175781 202.367188 501.8125 202.71875 504.710938 L 204.289062 517.304688 C 204.652344 520.199219 207.289062 522.257812 210.183594 521.882812 C 213.078125 521.53125 215.125 518.894531 214.773438 516"/><path d="M 208.664062 511.449219 L 196.144531 513.539062 C 193.269531 514.015625 191.324219 516.734375 191.800781 519.609375 C 192.285156 522.484375 195.003906 524.429688 197.878906 523.953125 L 210.398438 521.851562 C 213.273438 521.378906 215.21875 518.65625 214.742188 515.785156 C 214.253906 512.910156 211.535156 510.964844 208.664062 511.449219"/><path d="M 265.183594 551.558594 L 202.066406 504.503906 C 199.730469 502.753906 196.421875 503.242188 194.675781 505.578125 C 192.9375 507.914062 193.421875 511.222656 195.761719 512.960938 L 258.875 560.019531 C 261.214844 561.765625 264.519531 561.28125 266.269531 558.941406 C 268.003906 556.605469 267.519531 553.296875 265.183594 551.558594"/><path d="M 576.070312 678.804688 L 586.058594 670.96875 C 588.355469 669.167969 588.746094 665.847656 586.949219 663.5625 C 585.148438 661.269531 581.832031 660.863281 579.535156 662.664062 L 569.558594 670.511719 C 567.261719 672.3125 566.871094 675.628906 568.667969 677.914062 C 570.46875 680.210938 573.785156 680.613281 576.070312 678.804688"/><path d="M 576.828125 671.226562 L 568.578125 661.578125 C 566.683594 659.367188 563.355469 659.097656 561.144531 661 C 558.929688 662.890625 558.660156 666.222656 560.554688 668.433594 L 568.804688 678.089844 C 570.695312 680.304688 574.035156 680.5625 576.246094 678.671875 C 578.460938 676.777344 578.71875 673.449219 576.828125 671.226562"/><path d="M 564.410156 722.242188 L 554.421875 730.082031 C 552.128906 731.878906 551.734375 735.199219 553.535156 737.496094 C 555.332031 739.78125 558.640625 740.183594 560.9375 738.382812 L 570.933594 730.546875 C 573.21875 728.746094 573.621094 725.429688 571.824219 723.132812 C 570.023438 720.847656 566.703125 720.445312 564.410156 722.242188"/><path d="M 563.65625 729.824219 L 571.90625 739.480469 C 573.796875 741.695312 577.125 741.953125 579.347656 740.058594 C 581.5625 738.167969 581.820312 734.839844 579.929688 732.613281 L 571.6875 722.96875 C 569.785156 720.746094 566.457031 720.484375 564.246094 722.378906 C 562.03125 724.269531 561.761719 727.609375 563.65625 729.824219"/><path d="M 568.898438 660.699219 L 561.113281 739.058594 C 560.824219 741.960938 562.929688 744.546875 565.835938 744.835938 C 568.742188 745.125 571.316406 743.007812 571.605469 740.101562 L 579.402344 661.742188 C 579.691406 658.839844 577.570312 656.265625 574.675781 655.972656 C 571.769531 655.683594 569.1875 657.804688 568.898438 660.699219"/><path d="M 591.910156 694.832031 L 603.644531 699.671875 C 606.34375 700.777344 609.421875 699.496094 610.539062 696.796875 C 611.644531 694.109375 610.363281 691.015625 607.664062 689.910156 L 595.921875 685.070312 C 593.234375 683.964844 590.152344 685.246094 589.035156 687.945312 C 587.929688 690.644531 589.210938 693.726562 591.910156 694.832031"/><path d="M 598.878906 691.761719 L 603.21875 679.828125 C 604.214844 677.089844 602.808594 674.070312 600.066406 673.066406 C 597.328125 672.074219 594.296875 673.480469 593.304688 676.21875 L 588.964844 688.152344 C 587.960938 690.894531 589.378906 693.921875 592.117188 694.914062 C 594.855469 695.917969 597.875 694.5 598.878906 691.761719"/><path d="M 548.363281 706.070312 L 536.628906 701.234375 C 533.933594 700.125 530.851562 701.410156 529.734375 704.105469 C 528.628906 706.804688 529.910156 709.886719 532.609375 710.992188 L 544.351562 715.832031 C 547.042969 716.9375 550.132812 715.65625 551.238281 712.957031 C 552.34375 710.257812 551.0625 707.179688 548.363281 706.070312"/><path d="M 541.394531 709.144531 L 537.054688 721.066406 C 536.050781 723.804688 537.46875 726.835938 540.207031 727.835938 C 542.945312 728.832031 545.976562 727.425781 546.96875 724.683594 L 551.320312 712.761719 C 552.3125 710.023438 550.90625 706.992188 548.167969 705.988281 C 545.429688 704.996094 542.398438 706.402344 541.394531 709.144531"/><path d="M 604.140625 679.671875 L 532.101562 711.46875 C 529.433594 712.648438 528.234375 715.761719 529.402344 718.429688 C 530.582031 721.097656 533.703125 722.304688 536.363281 721.128906 L 608.398438 689.332031 C 611.066406 688.164062 612.277344 685.039062 611.097656 682.371094 C 609.917969 679.703125 606.808594 678.503906 604.140625 679.671875"/><path d="M 585.757812 716.515625 L 587.332031 729.109375 C 587.691406 732.003906 590.328125 734.0625 593.210938 733.699219 C 596.109375 733.339844 598.164062 730.703125 597.804688 727.808594 L 596.230469 715.210938 C 595.871094 712.316406 593.234375 710.257812 590.339844 710.621094 C 587.445312 710.984375 585.398438 713.621094 585.757812 716.515625"/><path d="M 591.859375 721.066406 L 604.378906 718.976562 C 607.253906 718.5 609.195312 715.769531 608.710938 712.894531 C 608.234375 710.023438 605.515625 708.078125 602.640625 708.5625 L 590.121094 710.652344 C 587.246094 711.136719 585.304688 713.859375 585.789062 716.734375 C 586.265625 719.605469 588.984375 721.550781 591.859375 721.066406"/><path d="M 554.546875 684.140625 L 552.976562 671.535156 C 552.613281 668.652344 549.976562 666.59375 547.09375 666.957031 C 544.199219 667.316406 542.140625 669.953125 542.503906 672.847656 L 544.074219 685.445312 C 544.4375 688.339844 547.070312 690.394531 549.96875 690.035156 C 552.863281 689.671875 554.910156 687.035156 554.546875 684.140625"/><path d="M 548.445312 679.589844 L 535.917969 681.679688 C 533.042969 682.15625 531.109375 684.875 531.585938 687.757812 C 532.0625 690.632812 534.78125 692.566406 537.664062 692.09375 L 550.183594 690.003906 C 553.058594 689.515625 555 686.796875 554.515625 683.921875 C 554.039062 681.050781 551.320312 679.105469 548.445312 679.589844"/><path d="M 604.96875 719.699219 L 541.851562 672.640625 C 539.515625 670.894531 536.207031 671.382812 534.460938 673.71875 C 532.722656 676.054688 533.199219 679.363281 535.535156 681.109375 L 598.660156 728.167969 C 600.996094 729.90625 604.304688 729.417969 606.042969 727.082031 C 607.789062 724.746094 607.304688 721.4375 604.96875 719.699219"/><path d="M 230.609375 678.804688 L 240.585938 670.96875 C 242.882812 669.167969 243.285156 665.847656 241.476562 663.5625 C 239.679688 661.269531 236.359375 660.863281 234.074219 662.664062 L 224.085938 670.511719 C 221.800781 672.3125 221.398438 675.628906 223.199219 677.914062 C 224.996094 680.210938 228.316406 680.613281 230.609375 678.804688"/><path d="M 231.355469 671.226562 L 223.117188 661.578125 C 221.222656 659.367188 217.882812 659.097656 215.671875 661 C 213.460938 662.890625 213.199219 666.222656 215.09375 668.433594 L 223.332031 678.089844 C 225.234375 680.304688 228.5625 680.5625 230.777344 678.671875 C 232.988281 676.777344 233.257812 673.449219 231.355469 671.226562"/><path d="M 218.949219 722.242188 L 208.960938 730.082031 C 206.667969 731.878906 206.265625 735.199219 208.0625 737.496094 C 209.863281 739.78125 213.179688 740.183594 215.476562 738.382812 L 225.460938 730.546875 C 227.757812 728.746094 228.152344 725.429688 226.351562 723.132812 C 224.554688 720.847656 221.234375 720.445312 218.949219 722.242188"/><path d="M 218.195312 729.824219 L 226.433594 739.480469 C 228.328125 741.695312 231.65625 741.953125 233.878906 740.058594 C 236.089844 738.167969 236.359375 734.839844 234.457031 732.613281 L 226.21875 722.96875 C 224.324219 720.746094 220.984375 720.484375 218.773438 722.378906 C 216.5625 724.269531 216.292969 727.609375 218.195312 729.824219"/><path d="M 223.4375 660.699219 L 215.640625 739.058594 C 215.351562 741.960938 217.472656 744.546875 220.367188 744.835938 C 223.269531 745.125 225.855469 743.007812 226.144531 740.101562 L 233.941406 661.742188 C 234.21875 658.839844 232.109375 656.265625 229.207031 655.972656 C 226.308594 655.683594 223.714844 657.804688 223.4375 660.699219"/><path d="M 246.4375 694.832031 L 258.183594 699.671875 C 260.871094 700.777344 263.964844 699.496094 265.070312 696.796875 C 266.175781 694.109375 264.894531 691.015625 262.195312 689.910156 L 250.460938 685.070312 C 247.761719 683.964844 244.683594 685.246094 243.566406 687.945312 C 242.460938 690.644531 243.742188 693.726562 246.4375 694.832031"/><path d="M 253.40625 691.761719 L 257.75 679.828125 C 258.753906 677.089844 257.335938 674.070312 254.597656 673.066406 C 251.855469 672.074219 248.828125 673.480469 247.835938 676.21875 L 243.492188 688.152344 C 242.488281 690.894531 243.90625 693.921875 246.644531 694.914062 C 249.386719 695.917969 252.414062 694.5 253.40625 691.761719"/><path d="M 202.902344 706.070312 L 191.160156 701.234375 C 188.460938 700.125 185.378906 701.410156 184.273438 704.105469 C 183.15625 706.804688 184.449219 709.886719 187.148438 710.992188 L 198.882812 715.832031 C 201.582031 716.9375 204.660156 715.65625 205.769531 712.957031 C 206.882812 710.257812 205.601562 707.179688 202.902344 706.070312"/><path d="M 195.9375 709.144531 L 191.59375 721.066406 C 190.589844 723.804688 192.007812 726.835938 194.738281 727.835938 C 197.476562 728.832031 200.503906 727.425781 201.507812 724.683594 L 205.851562 712.761719 C 206.851562 710.023438 205.4375 706.992188 202.695312 705.988281 C 199.957031 704.996094 196.929688 706.402344 195.9375 709.144531"/><path d="M 258.667969 679.671875 L 186.640625 711.46875 C 183.972656 712.648438 182.765625 715.761719 183.941406 718.429688 C 185.121094 721.097656 188.234375 722.304688 190.902344 721.128906 L 262.929688 689.332031 C 265.597656 688.164062 266.804688 685.039062 265.628906 682.371094 C 264.460938 679.703125 261.335938 678.503906 258.667969 679.671875"/><path d="M 240.289062 716.515625 L 241.859375 729.109375 C 242.222656 732.003906 244.859375 734.0625 247.753906 733.699219 C 250.636719 733.339844 252.695312 730.703125 252.332031 727.808594 L 250.761719 715.210938 C 250.398438 712.316406 247.761719 710.257812 244.867188 710.621094 C 241.984375 710.984375 239.925781 713.621094 240.289062 716.515625"/><path d="M 246.398438 721.066406 L 258.90625 718.976562 C 261.792969 718.5 263.726562 715.769531 263.25 712.894531 C 262.765625 710.023438 260.054688 708.078125 257.179688 708.5625 L 244.652344 710.652344 C 241.777344 711.136719 239.832031 713.859375 240.320312 716.734375 C 240.792969 719.605469 243.523438 721.550781 246.398438 721.066406"/><path d="M 209.074219 684.140625 L 207.503906 671.535156 C 207.152344 668.652344 204.515625 666.59375 201.621094 666.957031 C 198.726562 667.316406 196.679688 669.953125 197.03125 672.847656 L 198.601562 685.445312 C 198.964844 688.339844 201.601562 690.394531 204.496094 690.035156 C 207.390625 689.671875 209.449219 687.035156 209.074219 684.140625"/><path d="M 202.976562 679.589844 L 190.457031 681.679688 C 187.570312 682.15625 185.640625 684.875 186.113281 687.757812 C 186.601562 690.632812 189.320312 692.566406 192.191406 692.09375 L 204.714844 690.003906 C 207.585938 689.515625 209.53125 686.796875 209.046875 683.921875 C 208.570312 681.050781 205.851562 679.105469 202.976562 679.589844"/><path d="M 259.507812 719.699219 L 196.378906 672.640625 C 194.042969 670.894531 190.734375 671.382812 188.988281 673.71875 C 187.25 676.054688 187.738281 679.363281 190.074219 681.109375 L 253.191406 728.167969 C 255.539062 729.90625 258.835938 729.417969 260.582031 727.082031 C 262.320312 724.746094 261.84375 721.4375 259.507812 719.699219"/><path d="M 99.601562 154.988281 L 109.621094 147.128906 C 111.914062 145.320312 112.316406 141.988281 110.507812 139.695312 C 108.710938 137.386719 105.382812 136.996094 103.074219 138.792969 L 93.066406 146.664062 C 90.761719 148.460938 90.371094 151.792969 92.167969 154.097656 C 93.976562 156.394531 97.308594 156.796875 99.601562 154.988281"/><path d="M 100.355469 147.386719 L 92.085938 137.710938 C 90.183594 135.484375 86.84375 135.21875 84.621094 137.121094 C 82.398438 139.023438 82.140625 142.363281 84.042969 144.585938 L 92.3125 154.261719 C 94.207031 156.488281 97.542969 156.753906 99.765625 154.851562 C 101.988281 152.949219 102.257812 149.609375 100.355469 147.386719"/><path d="M 87.910156 198.550781 L 77.890625 206.410156 C 75.585938 208.21875 75.183594 211.546875 76.992188 213.84375 C 78.800781 216.148438 82.128906 216.550781 84.425781 214.742188 L 94.441406 206.882812 C 96.738281 205.074219 97.140625 201.753906 95.34375 199.449219 C 93.53125 197.144531 90.203125 196.75 87.910156 198.550781"/><path d="M 87.15625 206.160156 L 95.425781 215.839844 C 97.316406 218.0625 100.65625 218.320312 102.878906 216.429688 C 105.113281 214.527344 105.371094 211.1875 103.46875 208.960938 L 95.199219 199.273438 C 93.296875 197.050781 89.957031 196.792969 87.734375 198.695312 C 85.511719 200.585938 85.253906 203.9375 87.15625 206.160156"/><path d="M 92.40625 136.820312 L 84.589844 215.414062 C 84.300781 218.332031 86.429688 220.925781 89.335938 221.207031 C 92.242188 221.503906 94.835938 219.375 95.125 216.46875 L 102.941406 137.875 C 103.230469 134.957031 101.109375 132.375 98.195312 132.085938 C 95.289062 131.785156 92.695312 133.914062 92.40625 136.820312"/><path d="M 115.492188 171.066406 L 127.257812 175.914062 C 129.964844 177.023438 133.058594 175.738281 134.171875 173.03125 C 135.28125 170.332031 133.996094 167.230469 131.289062 166.125 L 119.515625 161.273438 C 116.816406 160.15625 113.722656 161.449219 112.609375 164.160156 C 111.492188 166.859375 112.785156 169.949219 115.492188 171.066406"/><path d="M 122.46875 167.984375 L 126.832031 156.011719 C 127.835938 153.269531 126.417969 150.230469 123.667969 149.226562 C 120.917969 148.226562 117.878906 149.640625 116.878906 152.390625 L 112.523438 164.355469 C 111.53125 167.105469 112.949219 170.144531 115.6875 171.148438 C 118.4375 172.140625 121.476562 170.726562 122.46875 167.984375"/><path d="M 71.8125 182.328125 L 60.035156 177.476562 C 57.339844 176.371094 54.246094 177.652344 53.128906 180.363281 C 52.023438 183.0625 53.304688 186.152344 56.015625 187.269531 L 67.78125 192.117188 C 70.488281 193.226562 73.578125 191.941406 74.695312 189.234375 C 75.800781 186.535156 74.519531 183.441406 71.8125 182.328125"/><path d="M 64.824219 185.40625 L 60.46875 197.382812 C 59.46875 200.121094 60.882812 203.160156 63.632812 204.164062 C 66.382812 205.167969 69.414062 203.75 70.417969 201 L 74.777344 189.039062 C 75.773438 186.285156 74.355469 183.246094 71.605469 182.242188 C 68.867188 181.25 65.824219 182.667969 64.824219 185.40625"/><path d="M 127.753906 155.855469 L 55.507812 187.746094 C 52.832031 188.921875 51.621094 192.054688 52.800781 194.722656 C 53.976562 197.402344 57.101562 198.613281 59.777344 197.433594 L 132.023438 165.542969 C 134.699219 164.367188 135.910156 161.242188 134.730469 158.566406 C 133.554688 155.886719 130.429688 154.675781 127.753906 155.855469"/><path d="M 109.320312 192.800781 L 110.890625 205.4375 C 111.253906 208.34375 113.890625 210.398438 116.792969 210.039062 C 119.699219 209.675781 121.757812 207.039062 121.394531 204.132812 L 119.824219 191.5 C 119.460938 188.59375 116.816406 186.535156 113.910156 186.898438 C 111.015625 187.257812 108.949219 189.90625 109.320312 192.800781"/><path d="M 115.441406 197.371094 L 127.992188 195.273438 C 130.875 194.796875 132.828125 192.066406 132.34375 189.183594 C 131.867188 186.296875 129.140625 184.351562 126.253906 184.828125 L 113.691406 186.929688 C 110.808594 187.414062 108.863281 190.132812 109.351562 193.019531 C 109.828125 195.902344 112.554688 197.847656 115.441406 197.371094"/><path d="M 78.015625 160.332031 L 76.445312 147.699219 C 76.082031 144.792969 73.433594 142.734375 70.53125 143.097656 C 67.636719 143.457031 65.578125 146.105469 65.941406 149.011719 L 67.511719 161.644531 C 67.871094 164.542969 70.519531 166.609375 73.414062 166.246094 C 76.320312 165.875 78.375 163.238281 78.015625 160.332031"/><path d="M 71.894531 155.773438 L 59.332031 157.863281 C 56.449219 158.347656 54.503906 161.078125 54.980469 163.960938 C 55.46875 166.835938 58.1875 168.792969 61.070312 168.304688 L 73.632812 166.207031 C 76.515625 165.730469 78.46875 163 77.984375 160.117188 C 77.507812 157.230469 74.777344 155.289062 71.894531 155.773438"/><path d="M 128.589844 195.996094 L 65.269531 148.804688 C 62.929688 147.054688 59.613281 147.542969 57.867188 149.878906 C 56.117188 152.226562 56.605469 155.546875 58.941406 157.292969 L 122.265625 204.484375 C 124.601562 206.234375 127.917969 205.746094 129.667969 203.410156 C 131.414062 201.0625 130.925781 197.742188 128.589844 195.996094"/><path d="M 398.332031 23.296875 L 408.339844 15.425781 C 410.644531 13.628906 411.046875 10.296875 409.238281 8.003906 C 407.429688 5.699219 404.113281 5.304688 401.804688 7.105469 L 391.789062 14.972656 C 389.492188 16.773438 389.089844 20.101562 390.898438 22.40625 C 392.699219 24.703125 396.027344 25.105469 398.332031 23.296875"/><path d="M 399.085938 15.695312 L 390.816406 6.007812 C 388.914062 3.792969 385.574219 3.527344 383.351562 5.429688 C 381.128906 7.332031 380.859375 10.671875 382.761719 12.894531 L 391.035156 22.574219 C 392.9375 24.796875 396.273438 25.054688 398.496094 23.152344 C 400.71875 21.257812 400.988281 17.917969 399.085938 15.695312"/><path d="M 386.640625 66.859375 L 376.621094 74.71875 C 374.316406 76.527344 373.914062 79.855469 375.722656 82.152344 C 377.519531 84.457031 380.851562 84.859375 383.15625 83.050781 L 393.171875 75.191406 C 395.46875 73.382812 395.871094 70.054688 394.0625 67.757812 C 392.265625 65.453125 388.933594 65.050781 386.640625 66.859375"/><path d="M 385.875 74.457031 L 394.144531 84.148438 C 396.046875 86.371094 399.386719 86.628906 401.609375 84.726562 C 403.832031 82.835938 404.089844 79.496094 402.199219 77.269531 L 393.929688 67.582031 C 392.027344 65.359375 388.6875 65.101562 386.464844 67.003906 C 384.242188 68.894531 383.972656 72.234375 385.875 74.457031"/><path d="M 391.125 5.128906 L 383.3125 83.722656 C 383.03125 86.640625 385.152344 89.234375 388.054688 89.515625 C 390.972656 89.804688 393.554688 87.683594 393.84375 84.769531 L 401.671875 6.183594 C 401.949219 3.265625 399.832031 0.671875 396.925781 0.382812 C 394.011719 0.09375 391.425781 2.222656 391.125 5.128906"/><path d="M 414.210938 39.375 L 425.988281 44.214844 C 428.6875 45.332031 431.789062 44.046875 432.894531 41.339844 C 434.011719 38.640625 432.71875 35.539062 430.019531 34.433594 L 418.246094 29.582031 C 415.535156 28.464844 412.445312 29.757812 411.328125 32.46875 C 410.222656 35.167969 411.503906 38.257812 414.210938 39.375"/><path d="M 421.199219 36.292969 L 425.554688 24.320312 C 426.554688 21.570312 425.140625 18.539062 422.390625 17.535156 C 419.640625 16.535156 416.609375 17.949219 415.609375 20.699219 L 411.253906 32.664062 C 410.253906 35.414062 411.667969 38.453125 414.410156 39.449219 C 417.160156 40.449219 420.199219 39.035156 421.199219 36.292969"/><path d="M 370.542969 50.636719 L 358.765625 45.785156 C 356.070312 44.679688 352.96875 45.960938 351.859375 48.671875 C 350.746094 51.371094 352.035156 54.460938 354.734375 55.578125 L 366.511719 60.425781 C 369.21875 61.535156 372.308594 60.25 373.425781 57.542969 C 374.53125 54.84375 373.242188 51.753906 370.542969 50.636719"/><path d="M 363.554688 53.714844 L 359.203125 65.679688 C 358.199219 68.429688 359.613281 71.46875 362.355469 72.472656 C 365.105469 73.476562 368.144531 72.058594 369.148438 69.308594 L 373.5 57.335938 C 374.503906 54.59375 373.085938 51.554688 370.335938 50.550781 C 367.585938 49.558594 364.554688 50.976562 363.554688 53.714844"/><path d="M 426.484375 24.164062 L 354.226562 56.054688 C 351.550781 57.230469 350.339844 60.355469 351.53125 63.03125 C 352.707031 65.710938 355.832031 66.921875 358.507812 65.742188 L 430.753906 33.851562 C 433.429688 32.675781 434.640625 29.542969 433.460938 26.875 C 432.273438 24.195312 429.152344 22.984375 426.484375 24.164062"/><path d="M 408.039062 61.109375 L 409.613281 73.746094 C 409.972656 76.652344 412.621094 78.707031 415.523438 78.347656 C 418.429688 77.984375 420.476562 75.335938 420.117188 72.441406 L 418.542969 59.808594 C 418.183594 56.902344 415.535156 54.84375 412.640625 55.207031 C 409.734375 55.566406 407.679688 58.214844 408.039062 61.109375"/><path d="M 414.160156 65.679688 L 426.722656 63.582031 C 429.605469 63.105469 431.550781 60.375 431.0625 57.492188 C 430.589844 54.605469 427.859375 52.660156 424.976562 53.136719 L 412.421875 55.238281 C 409.539062 55.710938 407.59375 58.441406 408.070312 61.328125 C 408.546875 64.210938 411.277344 66.15625 414.160156 65.679688"/><path d="M 376.746094 28.640625 L 375.164062 16.007812 C 374.800781 13.101562 372.15625 11.042969 369.261719 11.40625 C 366.355469 11.765625 364.296875 14.414062 364.660156 17.308594 L 366.242188 29.957031 C 366.59375 32.851562 369.238281 34.90625 372.144531 34.546875 C 375.039062 34.183594 377.109375 31.539062 376.746094 28.640625"/><path d="M 370.613281 24.070312 L 358.054688 26.171875 C 355.167969 26.65625 353.226562 29.386719 353.710938 32.261719 C 354.1875 35.144531 356.917969 37.101562 359.800781 36.613281 L 372.363281 34.515625 C 375.246094 34.039062 377.191406 31.308594 376.714844 28.425781 C 376.230469 25.539062 373.5 23.597656 370.613281 24.070312"/><path d="M 427.3125 64.304688 L 364 17.113281 C 361.652344 15.367188 358.332031 15.839844 356.585938 18.1875 C 354.839844 20.535156 355.324219 23.855469 357.671875 25.601562 L 420.984375 72.792969 C 423.332031 74.542969 426.640625 74.054688 428.386719 71.71875 C 430.132812 69.371094 429.65625 66.050781 427.3125 64.304688"/><path d="M 727.933594 209.707031 L 737.960938 201.839844 C 740.257812 200.027344 740.660156 196.710938 738.851562 194.402344 C 737.050781 192.109375 733.722656 191.703125 731.417969 193.503906 L 721.398438 201.371094 C 719.105469 203.183594 718.703125 206.5 720.511719 208.808594 C 722.308594 211.101562 725.636719 211.507812 727.933594 209.707031"/><path d="M 728.699219 202.097656 L 720.429688 192.417969 C 718.527344 190.195312 715.1875 189.9375 712.964844 191.828125 C 710.742188 193.730469 710.472656 197.070312 712.375 199.292969 L 720.644531 208.972656 C 722.546875 211.195312 725.886719 211.464844 728.109375 209.5625 C 730.332031 207.660156 730.601562 204.320312 728.699219 202.097656"/><path d="M 716.242188 253.257812 L 706.234375 261.128906 C 703.925781 262.925781 703.523438 266.257812 705.332031 268.550781 C 707.132812 270.859375 710.460938 271.261719 712.765625 269.453125 L 722.785156 261.59375 C 725.082031 259.792969 725.484375 256.464844 723.675781 254.160156 C 721.875 251.863281 718.546875 251.460938 716.242188 253.257812"/><path d="M 715.484375 260.871094 L 723.757812 270.546875 C 725.660156 272.769531 729 273.03125 731.222656 271.136719 C 733.445312 269.234375 733.703125 265.894531 731.808594 263.671875 L 723.539062 253.992188 C 721.636719 251.769531 718.296875 251.5 716.074219 253.402344 C 713.851562 255.308594 713.582031 258.648438 715.484375 260.871094"/><path d="M 720.75 191.539062 L 712.933594 270.132812 C 712.644531 273.039062 714.761719 275.636719 717.667969 275.925781 C 720.582031 276.214844 723.179688 274.085938 723.46875 271.179688 L 731.285156 192.582031 C 731.574219 189.667969 729.441406 187.082031 726.539062 186.792969 C 723.621094 186.503906 721.039062 188.625 720.75 191.539062"/><path d="M 743.824219 225.777344 L 755.597656 230.625 C 758.308594 231.742188 761.398438 230.449219 762.503906 227.738281 C 763.621094 225.042969 762.328125 221.949219 759.632812 220.832031 L 747.855469 215.984375 C 745.148438 214.878906 742.054688 216.160156 740.9375 218.867188 C 739.832031 221.566406 741.125 224.660156 743.824219 225.777344"/><path d="M 750.8125 222.695312 L 755.164062 210.730469 C 756.167969 207.980469 754.75 204.941406 752 203.9375 C 749.261719 202.945312 746.222656 204.359375 745.21875 207.101562 L 740.867188 219.074219 C 739.863281 221.816406 741.28125 224.855469 744.03125 225.859375 C 746.769531 226.859375 749.808594 225.433594 750.8125 222.695312"/><path d="M 700.152344 237.035156 L 688.378906 232.195312 C 685.679688 231.078125 682.589844 232.371094 681.472656 235.070312 C 680.355469 237.769531 681.648438 240.871094 684.355469 241.976562 L 696.121094 246.828125 C 698.820312 247.945312 701.921875 246.652344 703.039062 243.953125 C 704.144531 241.246094 702.851562 238.152344 700.152344 237.035156"/><path d="M 693.164062 240.128906 L 688.8125 252.089844 C 687.808594 254.839844 689.226562 257.882812 691.976562 258.875 C 694.726562 259.878906 697.765625 258.460938 698.757812 255.710938 L 703.109375 243.746094 C 704.113281 240.996094 702.699219 237.957031 699.949219 236.964844 C 697.199219 235.960938 694.15625 237.378906 693.164062 240.128906"/><path d="M 756.09375 210.574219 L 683.839844 242.453125 C 681.171875 243.632812 679.953125 246.765625 681.140625 249.433594 C 682.320312 252.113281 685.441406 253.320312 688.121094 252.144531 L 760.367188 220.265625 C 763.042969 219.074219 764.253906 215.953125 763.074219 213.273438 C 761.894531 210.605469 758.761719 209.386719 756.09375 210.574219"/><path d="M 737.652344 247.519531 L 739.222656 260.15625 C 739.585938 263.0625 742.230469 265.109375 745.136719 264.757812 C 748.03125 264.394531 750.089844 261.75 749.738281 258.84375 L 748.15625 246.207031 C 747.792969 243.300781 745.15625 241.246094 742.253906 241.605469 C 739.347656 241.96875 737.289062 244.613281 737.652344 247.519531"/><path d="M 743.78125 252.082031 L 756.332031 249.992188 C 759.21875 249.507812 761.171875 246.777344 760.6875 243.890625 C 760.199219 241.007812 757.480469 239.0625 754.597656 239.539062 L 742.035156 241.636719 C 739.152344 242.125 737.207031 244.851562 737.683594 247.738281 C 738.167969 250.621094 740.898438 252.566406 743.78125 252.082031"/><path d="M 706.355469 215.042969 L 704.773438 202.40625 C 704.414062 199.5 701.765625 197.453125 698.871094 197.804688 C 695.96875 198.167969 693.910156 200.816406 694.269531 203.71875 L 695.851562 216.355469 C 696.214844 219.261719 698.863281 221.320312 701.757812 220.957031 C 704.660156 220.59375 706.71875 217.949219 706.355469 215.042969"/><path d="M 700.226562 210.484375 L 687.675781 212.582031 C 684.792969 213.058594 682.847656 215.785156 683.324219 218.671875 C 683.796875 221.558594 686.527344 223.5 689.414062 223.023438 L 701.972656 220.925781 C 704.859375 220.441406 706.800781 217.710938 706.324219 214.824219 C 705.839844 211.949219 703.109375 209.996094 700.226562 210.484375"/><path d="M 756.921875 250.714844 L 693.609375 203.511719 C 691.261719 201.765625 687.945312 202.25 686.195312 204.589844 C 684.449219 206.9375 684.9375 210.253906 687.28125 212.003906 L 750.605469 259.203125 C 752.941406 260.941406 756.261719 260.464844 758.007812 258.121094 C 759.753906 255.773438 759.269531 252.453125 756.921875 250.714844"/></svg>