<svg width="45" height="44" viewBox="0 0 45 44" fill="none" xmlns="http://www.w3.org/2000/svg">
<g clip-path="url(#clip0_107_257)">
<path d="M30.3323 0C27.9866 0.162249 25.2448 1.66374 23.6471 3.61898C22.1896 5.39272 20.9906 8.0272 21.4581 10.5874C24.0211 10.6672 26.6693 9.12995 28.2038 7.14171C29.6393 5.29097 30.7255 2.67298 30.3323 0Z" fill="#444B59"/>
<path d="M39.6025 14.7619C37.3503 11.9377 34.1851 10.2987 31.1958 10.2987C27.2496 10.2987 25.5804 12.1879 22.8386 12.1879C20.0117 12.1879 17.8639 10.3042 14.4512 10.3042C11.099 10.3042 7.52948 12.3529 5.26624 15.8564C2.08451 20.7899 2.62901 30.0656 7.78523 37.9663C9.63047 40.7933 12.0945 43.9723 15.3174 43.9998C18.1857 44.0273 18.9942 42.16 22.8799 42.1408C26.7656 42.1188 27.5026 44.0245 30.3653 43.9943C33.5911 43.9695 36.1898 40.4468 38.0351 37.6198C39.3578 35.5931 39.85 34.5728 40.8758 32.2848C33.4151 29.4441 32.2188 18.8347 39.6025 14.7619Z" fill="#444B59"/>
</g>
<defs>
<clipPath id="clip0_107_257">
<rect width="44" height="44" fill="white" transform="translate(0.0842285)"/>
</clipPath>
</defs>
</svg>
