<svg xmlns="http://www.w3.org/2000/svg" width="810" viewBox="0 0 810 810" height="810" version="1.0"><path d="M 810 363.25 L 759.960938 400.78125 C 758.398438 399.214844 611.410156 208.441406 404.996094 208.441406 C 198.585938 208.441406 51.59375 399.21875 50.03125 402.34375 L -0.00390625 363.25 C 6.25 355.429688 167.304688 145.890625 404.996094 145.890625 C 642.683594 145.890625 803.734375 355.425781 809.996094 363.25 Z M 405 297.574219 C 308.046875 297.574219 229.867188 375.753906 229.867188 472.707031 C 229.867188 569.65625 308.050781 647.839844 405 647.839844 C 501.949219 647.839844 580.132812 569.65625 580.132812 472.707031 C 581.699219 375.753906 501.949219 297.574219 405 297.574219 Z M 405 297.574219"/></svg>