<svg width="39" height="38" viewBox="0 0 39 38" fill="none" xmlns="http://www.w3.org/2000/svg">
<g clip-path="url(#clip0_107_249)">
<path d="M9.33731 22.9639L8.01459 27.9018L3.18005 28.0041C1.73523 25.3243 0.91571 22.2582 0.91571 19C0.91571 15.8493 1.68195 12.8782 3.04015 10.2621H3.04119L7.34528 11.0512L9.23073 15.3294C8.83611 16.4799 8.62103 17.7149 8.62103 19C8.62118 20.3947 8.87382 21.731 9.33731 22.9639Z" fill="#FBBB00"/>
<path d="M38.5837 15.4505C38.8019 16.5999 38.9157 17.7869 38.9157 19C38.9157 20.3602 38.7727 21.6871 38.5002 22.967C37.5753 27.3224 35.1585 31.1255 31.8106 33.8169L31.8096 33.8158L26.3883 33.5392L25.621 28.7495C27.8426 27.4467 29.5787 25.4078 30.4932 22.967H20.3334V15.4505H30.6414H38.5837Z" fill="#518EF8"/>
<path d="M31.8095 33.8158L31.8105 33.8169C28.5545 36.434 24.4183 38 19.9157 38C12.6801 38 6.3892 33.9557 3.18005 28.0041L9.33732 22.9639C10.9419 27.2462 15.0728 30.2946 19.9157 30.2946C21.9973 30.2946 23.9475 29.7319 25.6209 28.7495L31.8095 33.8158Z" fill="#28B446"/>
<path d="M32.0434 4.37416L25.8882 9.41331C24.1563 8.33076 22.1091 7.70539 19.9158 7.70539C14.9632 7.70539 10.755 10.8936 9.23085 15.3294L3.04123 10.2621H3.04019C6.20235 4.16538 12.5725 0 19.9158 0C24.5258 0 28.7528 1.64216 32.0434 4.37416Z" fill="#F14336"/>
</g>
<defs>
<clipPath id="clip0_107_249">
<rect width="38" height="38" fill="white" transform="translate(0.91571)"/>
</clipPath>
</defs>
</svg>
